%TF.GenerationSoftware,KiCad,Pcbnew,5.1.8-db9833491~87~ubuntu20.04.1*%
%TF.CreationDate,2020-11-18T23:17:20-05:00*%
%TF.ProjectId,mfos_noise-panel,6d666f73-5f6e-46f6-9973-652d70616e65,rev?*%
%TF.SameCoordinates,Original*%
%TF.FileFunction,Legend,Bot*%
%TF.FilePolarity,Positive*%
%FSLAX46Y46*%
G04 Gerber Fmt 4.6, Leading zero omitted, Abs format (unit mm)*
G04 Created by KiCad (PCBNEW 5.1.8-db9833491~87~ubuntu20.04.1) date 2020-11-18 23:17:20*
%MOMM*%
%LPD*%
G01*
G04 APERTURE LIST*
%ADD10C,0.150000*%
G04 APERTURE END LIST*
D10*
X101000000Y-192977380D02*
X101000000Y-191977380D01*
X100619047Y-191977380D01*
X100523809Y-192025000D01*
X100476190Y-192072619D01*
X100428571Y-192167857D01*
X100428571Y-192310714D01*
X100476190Y-192405952D01*
X100523809Y-192453571D01*
X100619047Y-192501190D01*
X101000000Y-192501190D01*
X99571428Y-192977380D02*
X99571428Y-192453571D01*
X99619047Y-192358333D01*
X99714285Y-192310714D01*
X99904761Y-192310714D01*
X100000000Y-192358333D01*
X99571428Y-192929761D02*
X99666666Y-192977380D01*
X99904761Y-192977380D01*
X100000000Y-192929761D01*
X100047619Y-192834523D01*
X100047619Y-192739285D01*
X100000000Y-192644047D01*
X99904761Y-192596428D01*
X99666666Y-192596428D01*
X99571428Y-192548809D01*
X99095238Y-192310714D02*
X99095238Y-192977380D01*
X99095238Y-192405952D02*
X99047619Y-192358333D01*
X98952380Y-192310714D01*
X98809523Y-192310714D01*
X98714285Y-192358333D01*
X98666666Y-192453571D01*
X98666666Y-192977380D01*
X97809523Y-192929761D02*
X97904761Y-192977380D01*
X98095238Y-192977380D01*
X98190476Y-192929761D01*
X98238095Y-192834523D01*
X98238095Y-192453571D01*
X98190476Y-192358333D01*
X98095238Y-192310714D01*
X97904761Y-192310714D01*
X97809523Y-192358333D01*
X97761904Y-192453571D01*
X97761904Y-192548809D01*
X98238095Y-192644047D01*
X97190476Y-192977380D02*
X97285714Y-192929761D01*
X97333333Y-192834523D01*
X97333333Y-191977380D01*
X95619047Y-192977380D02*
X95619047Y-191977380D01*
X95619047Y-192929761D02*
X95714285Y-192977380D01*
X95904761Y-192977380D01*
X96000000Y-192929761D01*
X96047619Y-192882142D01*
X96095238Y-192786904D01*
X96095238Y-192501190D01*
X96047619Y-192405952D01*
X96000000Y-192358333D01*
X95904761Y-192310714D01*
X95714285Y-192310714D01*
X95619047Y-192358333D01*
X94761904Y-192929761D02*
X94857142Y-192977380D01*
X95047619Y-192977380D01*
X95142857Y-192929761D01*
X95190476Y-192834523D01*
X95190476Y-192453571D01*
X95142857Y-192358333D01*
X95047619Y-192310714D01*
X94857142Y-192310714D01*
X94761904Y-192358333D01*
X94714285Y-192453571D01*
X94714285Y-192548809D01*
X95190476Y-192644047D01*
X94333333Y-192929761D02*
X94238095Y-192977380D01*
X94047619Y-192977380D01*
X93952380Y-192929761D01*
X93904761Y-192834523D01*
X93904761Y-192786904D01*
X93952380Y-192691666D01*
X94047619Y-192644047D01*
X94190476Y-192644047D01*
X94285714Y-192596428D01*
X94333333Y-192501190D01*
X94333333Y-192453571D01*
X94285714Y-192358333D01*
X94190476Y-192310714D01*
X94047619Y-192310714D01*
X93952380Y-192358333D01*
X93476190Y-192977380D02*
X93476190Y-192310714D01*
X93476190Y-191977380D02*
X93523809Y-192025000D01*
X93476190Y-192072619D01*
X93428571Y-192025000D01*
X93476190Y-191977380D01*
X93476190Y-192072619D01*
X92571428Y-192310714D02*
X92571428Y-193120238D01*
X92619047Y-193215476D01*
X92666666Y-193263095D01*
X92761904Y-193310714D01*
X92904761Y-193310714D01*
X93000000Y-193263095D01*
X92571428Y-192929761D02*
X92666666Y-192977380D01*
X92857142Y-192977380D01*
X92952380Y-192929761D01*
X93000000Y-192882142D01*
X93047619Y-192786904D01*
X93047619Y-192501190D01*
X93000000Y-192405952D01*
X92952380Y-192358333D01*
X92857142Y-192310714D01*
X92666666Y-192310714D01*
X92571428Y-192358333D01*
X92095238Y-192310714D02*
X92095238Y-192977380D01*
X92095238Y-192405952D02*
X92047619Y-192358333D01*
X91952380Y-192310714D01*
X91809523Y-192310714D01*
X91714285Y-192358333D01*
X91666666Y-192453571D01*
X91666666Y-192977380D01*
X90428571Y-192977380D02*
X90428571Y-191977380D01*
X90428571Y-192358333D02*
X90333333Y-192310714D01*
X90142857Y-192310714D01*
X90047619Y-192358333D01*
X90000000Y-192405952D01*
X89952380Y-192501190D01*
X89952380Y-192786904D01*
X90000000Y-192882142D01*
X90047619Y-192929761D01*
X90142857Y-192977380D01*
X90333333Y-192977380D01*
X90428571Y-192929761D01*
X89619047Y-192310714D02*
X89380952Y-192977380D01*
X89142857Y-192310714D02*
X89380952Y-192977380D01*
X89476190Y-193215476D01*
X89523809Y-193263095D01*
X89619047Y-193310714D01*
X87428571Y-192977380D02*
X87761904Y-192501190D01*
X88000000Y-192977380D02*
X88000000Y-191977380D01*
X87619047Y-191977380D01*
X87523809Y-192025000D01*
X87476190Y-192072619D01*
X87428571Y-192167857D01*
X87428571Y-192310714D01*
X87476190Y-192405952D01*
X87523809Y-192453571D01*
X87619047Y-192501190D01*
X88000000Y-192501190D01*
X87000000Y-192977380D02*
X87000000Y-192310714D01*
X87000000Y-191977380D02*
X87047619Y-192025000D01*
X87000000Y-192072619D01*
X86952380Y-192025000D01*
X87000000Y-191977380D01*
X87000000Y-192072619D01*
X86095238Y-192929761D02*
X86190476Y-192977380D01*
X86380952Y-192977380D01*
X86476190Y-192929761D01*
X86523809Y-192882142D01*
X86571428Y-192786904D01*
X86571428Y-192501190D01*
X86523809Y-192405952D01*
X86476190Y-192358333D01*
X86380952Y-192310714D01*
X86190476Y-192310714D01*
X86095238Y-192358333D01*
X85666666Y-192977380D02*
X85666666Y-191977380D01*
X85238095Y-192977380D02*
X85238095Y-192453571D01*
X85285714Y-192358333D01*
X85380952Y-192310714D01*
X85523809Y-192310714D01*
X85619047Y-192358333D01*
X85666666Y-192405952D01*
X84000000Y-192977380D02*
X84000000Y-191977380D01*
X84000000Y-192453571D02*
X83428571Y-192453571D01*
X83428571Y-192977380D02*
X83428571Y-191977380D01*
X82809523Y-192977380D02*
X82904761Y-192929761D01*
X82952380Y-192882142D01*
X83000000Y-192786904D01*
X83000000Y-192501190D01*
X82952380Y-192405952D01*
X82904761Y-192358333D01*
X82809523Y-192310714D01*
X82666666Y-192310714D01*
X82571428Y-192358333D01*
X82523809Y-192405952D01*
X82476190Y-192501190D01*
X82476190Y-192786904D01*
X82523809Y-192882142D01*
X82571428Y-192929761D01*
X82666666Y-192977380D01*
X82809523Y-192977380D01*
X81904761Y-192977380D02*
X82000000Y-192929761D01*
X82047619Y-192834523D01*
X82047619Y-191977380D01*
X81523809Y-192977380D02*
X81523809Y-192310714D01*
X81523809Y-192405952D02*
X81476190Y-192358333D01*
X81380952Y-192310714D01*
X81238095Y-192310714D01*
X81142857Y-192358333D01*
X81095238Y-192453571D01*
X81095238Y-192977380D01*
X81095238Y-192453571D02*
X81047619Y-192358333D01*
X80952380Y-192310714D01*
X80809523Y-192310714D01*
X80714285Y-192358333D01*
X80666666Y-192453571D01*
X80666666Y-192977380D01*
X79809523Y-192929761D02*
X79904761Y-192977380D01*
X80095238Y-192977380D01*
X80190476Y-192929761D01*
X80238095Y-192834523D01*
X80238095Y-192453571D01*
X80190476Y-192358333D01*
X80095238Y-192310714D01*
X79904761Y-192310714D01*
X79809523Y-192358333D01*
X79761904Y-192453571D01*
X79761904Y-192548809D01*
X80238095Y-192644047D01*
X79380952Y-192929761D02*
X79285714Y-192977380D01*
X79095238Y-192977380D01*
X79000000Y-192929761D01*
X78952380Y-192834523D01*
X78952380Y-192786904D01*
X79000000Y-192691666D01*
X79095238Y-192644047D01*
X79238095Y-192644047D01*
X79333333Y-192596428D01*
X79380952Y-192501190D01*
X79380952Y-192453571D01*
X79333333Y-192358333D01*
X79238095Y-192310714D01*
X79095238Y-192310714D01*
X79000000Y-192358333D01*
X93404761Y-194627380D02*
X93404761Y-193627380D01*
X92833333Y-194627380D01*
X92833333Y-193627380D01*
X92214285Y-194627380D02*
X92309523Y-194579761D01*
X92357142Y-194532142D01*
X92404761Y-194436904D01*
X92404761Y-194151190D01*
X92357142Y-194055952D01*
X92309523Y-194008333D01*
X92214285Y-193960714D01*
X92071428Y-193960714D01*
X91976190Y-194008333D01*
X91928571Y-194055952D01*
X91880952Y-194151190D01*
X91880952Y-194436904D01*
X91928571Y-194532142D01*
X91976190Y-194579761D01*
X92071428Y-194627380D01*
X92214285Y-194627380D01*
X91547619Y-193960714D02*
X91309523Y-194627380D01*
X91071428Y-193960714D01*
X89976190Y-193722619D02*
X89928571Y-193675000D01*
X89833333Y-193627380D01*
X89595238Y-193627380D01*
X89500000Y-193675000D01*
X89452380Y-193722619D01*
X89404761Y-193817857D01*
X89404761Y-193913095D01*
X89452380Y-194055952D01*
X90023809Y-194627380D01*
X89404761Y-194627380D01*
X88785714Y-193627380D02*
X88690476Y-193627380D01*
X88595238Y-193675000D01*
X88547619Y-193722619D01*
X88500000Y-193817857D01*
X88452380Y-194008333D01*
X88452380Y-194246428D01*
X88500000Y-194436904D01*
X88547619Y-194532142D01*
X88595238Y-194579761D01*
X88690476Y-194627380D01*
X88785714Y-194627380D01*
X88880952Y-194579761D01*
X88928571Y-194532142D01*
X88976190Y-194436904D01*
X89023809Y-194246428D01*
X89023809Y-194008333D01*
X88976190Y-193817857D01*
X88928571Y-193722619D01*
X88880952Y-193675000D01*
X88785714Y-193627380D01*
X88071428Y-193722619D02*
X88023809Y-193675000D01*
X87928571Y-193627380D01*
X87690476Y-193627380D01*
X87595238Y-193675000D01*
X87547619Y-193722619D01*
X87500000Y-193817857D01*
X87500000Y-193913095D01*
X87547619Y-194055952D01*
X88119047Y-194627380D01*
X87500000Y-194627380D01*
X86880952Y-193627380D02*
X86785714Y-193627380D01*
X86690476Y-193675000D01*
X86642857Y-193722619D01*
X86595238Y-193817857D01*
X86547619Y-194008333D01*
X86547619Y-194246428D01*
X86595238Y-194436904D01*
X86642857Y-194532142D01*
X86690476Y-194579761D01*
X86785714Y-194627380D01*
X86880952Y-194627380D01*
X86976190Y-194579761D01*
X87023809Y-194532142D01*
X87071428Y-194436904D01*
X87119047Y-194246428D01*
X87119047Y-194008333D01*
X87071428Y-193817857D01*
X87023809Y-193722619D01*
X86976190Y-193675000D01*
X86880952Y-193627380D01*
X94619047Y-196927380D02*
X94619047Y-197641666D01*
X94666666Y-197784523D01*
X94761904Y-197879761D01*
X94904761Y-197927380D01*
X95000000Y-197927380D01*
X93666666Y-197927380D02*
X94142857Y-197927380D01*
X94142857Y-196927380D01*
X92761904Y-197832142D02*
X92809523Y-197879761D01*
X92952380Y-197927380D01*
X93047619Y-197927380D01*
X93190476Y-197879761D01*
X93285714Y-197784523D01*
X93333333Y-197689285D01*
X93380952Y-197498809D01*
X93380952Y-197355952D01*
X93333333Y-197165476D01*
X93285714Y-197070238D01*
X93190476Y-196975000D01*
X93047619Y-196927380D01*
X92952380Y-196927380D01*
X92809523Y-196975000D01*
X92761904Y-197022619D01*
X92047619Y-196927380D02*
X92047619Y-197641666D01*
X92095238Y-197784523D01*
X92190476Y-197879761D01*
X92333333Y-197927380D01*
X92428571Y-197927380D01*
X91095238Y-197927380D02*
X91571428Y-197927380D01*
X91571428Y-196927380D01*
X90190476Y-197832142D02*
X90238095Y-197879761D01*
X90380952Y-197927380D01*
X90476190Y-197927380D01*
X90619047Y-197879761D01*
X90714285Y-197784523D01*
X90761904Y-197689285D01*
X90809523Y-197498809D01*
X90809523Y-197355952D01*
X90761904Y-197165476D01*
X90714285Y-197070238D01*
X90619047Y-196975000D01*
X90476190Y-196927380D01*
X90380952Y-196927380D01*
X90238095Y-196975000D01*
X90190476Y-197022619D01*
X89476190Y-196927380D02*
X89476190Y-197641666D01*
X89523809Y-197784523D01*
X89619047Y-197879761D01*
X89761904Y-197927380D01*
X89857142Y-197927380D01*
X88523809Y-197927380D02*
X89000000Y-197927380D01*
X89000000Y-196927380D01*
X87619047Y-197832142D02*
X87666666Y-197879761D01*
X87809523Y-197927380D01*
X87904761Y-197927380D01*
X88047619Y-197879761D01*
X88142857Y-197784523D01*
X88190476Y-197689285D01*
X88238095Y-197498809D01*
X88238095Y-197355952D01*
X88190476Y-197165476D01*
X88142857Y-197070238D01*
X88047619Y-196975000D01*
X87904761Y-196927380D01*
X87809523Y-196927380D01*
X87666666Y-196975000D01*
X87619047Y-197022619D01*
X86904761Y-196927380D02*
X86904761Y-197641666D01*
X86952380Y-197784523D01*
X87047619Y-197879761D01*
X87190476Y-197927380D01*
X87285714Y-197927380D01*
X85952380Y-197927380D02*
X86428571Y-197927380D01*
X86428571Y-196927380D01*
X85047619Y-197832142D02*
X85095238Y-197879761D01*
X85238095Y-197927380D01*
X85333333Y-197927380D01*
X85476190Y-197879761D01*
X85571428Y-197784523D01*
X85619047Y-197689285D01*
X85666666Y-197498809D01*
X85666666Y-197355952D01*
X85619047Y-197165476D01*
X85571428Y-197070238D01*
X85476190Y-196975000D01*
X85333333Y-196927380D01*
X85238095Y-196927380D01*
X85095238Y-196975000D01*
X85047619Y-197022619D01*
M02*
