%TF.GenerationSoftware,KiCad,Pcbnew,5.1.8-db9833491~87~ubuntu20.04.1*%
%TF.CreationDate,2020-11-18T23:17:20-05:00*%
%TF.ProjectId,mfos_noise-panel,6d666f73-5f6e-46f6-9973-652d70616e65,rev?*%
%TF.SameCoordinates,Original*%
%TF.FileFunction,Copper,L1,Top*%
%TF.FilePolarity,Positive*%
%FSLAX46Y46*%
G04 Gerber Fmt 4.6, Leading zero omitted, Abs format (unit mm)*
G04 Created by KiCad (PCBNEW 5.1.8-db9833491~87~ubuntu20.04.1) date 2020-11-18 23:17:20*
%MOMM*%
%LPD*%
G01*
G04 APERTURE LIST*
%TA.AperFunction,ComponentPad*%
%ADD10O,6.800000X4.000000*%
%TD*%
%TA.AperFunction,ComponentPad*%
%ADD11C,14.000000*%
%TD*%
%TA.AperFunction,ComponentPad*%
%ADD12C,5.500000*%
%TD*%
%TA.AperFunction,ComponentPad*%
%ADD13C,9.000000*%
%TD*%
%TA.AperFunction,Conductor*%
%ADD14C,0.254000*%
%TD*%
%TA.AperFunction,Conductor*%
%ADD15C,0.100000*%
%TD*%
G04 APERTURE END LIST*
D10*
%TO.P,H11,1*%
%TO.N,GND*%
X110600000Y-197000000D03*
%TD*%
%TO.P,H13,1*%
%TO.N,GND*%
X110600000Y-3000000D03*
%TD*%
%TO.P,H12,1*%
%TO.N,GND*%
X69400000Y-197000000D03*
%TD*%
%TO.P,H10,1*%
%TO.N,GND*%
X69390000Y-3000000D03*
%TD*%
D11*
%TO.P,H9,1*%
%TO.N,GND*%
X102500000Y-175000000D03*
%TD*%
%TO.P,H8,1*%
%TO.N,GND*%
X77500000Y-150000000D03*
%TD*%
%TO.P,H7,1*%
%TO.N,GND*%
X77500000Y-175000000D03*
%TD*%
%TO.P,H6,1*%
%TO.N,GND*%
X102500000Y-125000000D03*
%TD*%
%TO.P,H5,1*%
%TO.N,GND*%
X102500000Y-150000000D03*
%TD*%
%TO.P,H4,1*%
%TO.N,GND*%
X77500000Y-125000000D03*
%TD*%
D12*
%TO.P,H3,1*%
%TO.N,GND*%
X90000000Y-175000000D03*
%TD*%
D13*
%TO.P,H2,1*%
%TO.N,GND*%
X90000000Y-80000000D03*
%TD*%
%TO.P,H1,1*%
%TO.N,GND*%
X90000000Y-30000000D03*
%TD*%
D14*
%TO.N,GND*%
X107630475Y-879635D02*
X107246970Y-1226576D01*
X106938519Y-1641669D01*
X106716975Y-2108962D01*
X106620333Y-2462838D01*
X106727009Y-2873000D01*
X110473000Y-2873000D01*
X110473000Y-2853000D01*
X110727000Y-2853000D01*
X110727000Y-2873000D01*
X110747000Y-2873000D01*
X110747000Y-3127000D01*
X110727000Y-3127000D01*
X110727000Y-5635000D01*
X112127000Y-5635000D01*
X112638623Y-5559593D01*
X113125704Y-5385822D01*
X113569525Y-5120365D01*
X113953030Y-4773424D01*
X114261481Y-4358331D01*
X114340000Y-4192714D01*
X114340001Y-195807288D01*
X114261481Y-195641669D01*
X113953030Y-195226576D01*
X113569525Y-194879635D01*
X113125704Y-194614178D01*
X112638623Y-194440407D01*
X112127000Y-194365000D01*
X110727000Y-194365000D01*
X110727000Y-196873000D01*
X110747000Y-196873000D01*
X110747000Y-197127000D01*
X110727000Y-197127000D01*
X110727000Y-197147000D01*
X110473000Y-197147000D01*
X110473000Y-197127000D01*
X106727009Y-197127000D01*
X106620333Y-197537162D01*
X106716975Y-197891038D01*
X106938519Y-198358331D01*
X107246970Y-198773424D01*
X107630475Y-199120365D01*
X107997686Y-199340000D01*
X72002314Y-199340000D01*
X72369525Y-199120365D01*
X72753030Y-198773424D01*
X73061481Y-198358331D01*
X73283025Y-197891038D01*
X73379667Y-197537162D01*
X73272991Y-197127000D01*
X69527000Y-197127000D01*
X69527000Y-197147000D01*
X69273000Y-197147000D01*
X69273000Y-197127000D01*
X69253000Y-197127000D01*
X69253000Y-196873000D01*
X69273000Y-196873000D01*
X69273000Y-194365000D01*
X69527000Y-194365000D01*
X69527000Y-196873000D01*
X73272991Y-196873000D01*
X73379667Y-196462838D01*
X106620333Y-196462838D01*
X106727009Y-196873000D01*
X110473000Y-196873000D01*
X110473000Y-194365000D01*
X109073000Y-194365000D01*
X108561377Y-194440407D01*
X108074296Y-194614178D01*
X107630475Y-194879635D01*
X107246970Y-195226576D01*
X106938519Y-195641669D01*
X106716975Y-196108962D01*
X106620333Y-196462838D01*
X73379667Y-196462838D01*
X73283025Y-196108962D01*
X73061481Y-195641669D01*
X72753030Y-195226576D01*
X72369525Y-194879635D01*
X71925704Y-194614178D01*
X71438623Y-194440407D01*
X70927000Y-194365000D01*
X69527000Y-194365000D01*
X69273000Y-194365000D01*
X67873000Y-194365000D01*
X67361377Y-194440407D01*
X66874296Y-194614178D01*
X66430475Y-194879635D01*
X66046970Y-195226576D01*
X65738519Y-195641669D01*
X65660000Y-195807286D01*
X65660000Y-180401674D01*
X72277932Y-180401674D01*
X73093908Y-181280530D01*
X74403840Y-182019437D01*
X75832756Y-182488591D01*
X77325743Y-182669963D01*
X78825428Y-182556583D01*
X80274176Y-182152807D01*
X81616314Y-181474153D01*
X81906092Y-181280530D01*
X82722068Y-180401674D01*
X97277932Y-180401674D01*
X98093908Y-181280530D01*
X99403840Y-182019437D01*
X100832756Y-182488591D01*
X102325743Y-182669963D01*
X103825428Y-182556583D01*
X105274176Y-182152807D01*
X106616314Y-181474153D01*
X106906092Y-181280530D01*
X107722068Y-180401674D01*
X102500000Y-175179605D01*
X97277932Y-180401674D01*
X82722068Y-180401674D01*
X77500000Y-175179605D01*
X72277932Y-180401674D01*
X65660000Y-180401674D01*
X65660000Y-174825743D01*
X69830037Y-174825743D01*
X69943417Y-176325428D01*
X70347193Y-177774176D01*
X71025847Y-179116314D01*
X71219470Y-179406092D01*
X72098326Y-180222068D01*
X77320395Y-175000000D01*
X77679605Y-175000000D01*
X82901674Y-180222068D01*
X83780530Y-179406092D01*
X84519437Y-178096160D01*
X84754268Y-177380928D01*
X87798677Y-177380928D01*
X88104859Y-177824503D01*
X88692306Y-178139954D01*
X89330008Y-178334740D01*
X89993457Y-178401372D01*
X90657158Y-178337292D01*
X91295605Y-178144962D01*
X91884262Y-177831772D01*
X91895141Y-177824503D01*
X92201323Y-177380928D01*
X90000000Y-175179605D01*
X87798677Y-177380928D01*
X84754268Y-177380928D01*
X84988591Y-176667244D01*
X85169963Y-175174257D01*
X85156295Y-174993457D01*
X86598628Y-174993457D01*
X86662708Y-175657158D01*
X86855038Y-176295605D01*
X87168228Y-176884262D01*
X87175497Y-176895141D01*
X87619072Y-177201323D01*
X89820395Y-175000000D01*
X90179605Y-175000000D01*
X92380928Y-177201323D01*
X92824503Y-176895141D01*
X93139954Y-176307694D01*
X93334740Y-175669992D01*
X93401372Y-175006543D01*
X93383916Y-174825743D01*
X94830037Y-174825743D01*
X94943417Y-176325428D01*
X95347193Y-177774176D01*
X96025847Y-179116314D01*
X96219470Y-179406092D01*
X97098326Y-180222068D01*
X102320395Y-175000000D01*
X102679605Y-175000000D01*
X107901674Y-180222068D01*
X108780530Y-179406092D01*
X109519437Y-178096160D01*
X109988591Y-176667244D01*
X110169963Y-175174257D01*
X110056583Y-173674572D01*
X109652807Y-172225824D01*
X108974153Y-170883686D01*
X108780530Y-170593908D01*
X107901674Y-169777932D01*
X102679605Y-175000000D01*
X102320395Y-175000000D01*
X97098326Y-169777932D01*
X96219470Y-170593908D01*
X95480563Y-171903840D01*
X95011409Y-173332756D01*
X94830037Y-174825743D01*
X93383916Y-174825743D01*
X93337292Y-174342842D01*
X93144962Y-173704395D01*
X92831772Y-173115738D01*
X92824503Y-173104859D01*
X92380928Y-172798677D01*
X90179605Y-175000000D01*
X89820395Y-175000000D01*
X87619072Y-172798677D01*
X87175497Y-173104859D01*
X86860046Y-173692306D01*
X86665260Y-174330008D01*
X86598628Y-174993457D01*
X85156295Y-174993457D01*
X85056583Y-173674572D01*
X84762408Y-172619072D01*
X87798677Y-172619072D01*
X90000000Y-174820395D01*
X92201323Y-172619072D01*
X91895141Y-172175497D01*
X91307694Y-171860046D01*
X90669992Y-171665260D01*
X90006543Y-171598628D01*
X89342842Y-171662708D01*
X88704395Y-171855038D01*
X88115738Y-172168228D01*
X88104859Y-172175497D01*
X87798677Y-172619072D01*
X84762408Y-172619072D01*
X84652807Y-172225824D01*
X83974153Y-170883686D01*
X83780530Y-170593908D01*
X82901674Y-169777932D01*
X77679605Y-175000000D01*
X77320395Y-175000000D01*
X72098326Y-169777932D01*
X71219470Y-170593908D01*
X70480563Y-171903840D01*
X70011409Y-173332756D01*
X69830037Y-174825743D01*
X65660000Y-174825743D01*
X65660000Y-169598326D01*
X72277932Y-169598326D01*
X77500000Y-174820395D01*
X82722068Y-169598326D01*
X97277932Y-169598326D01*
X102500000Y-174820395D01*
X107722068Y-169598326D01*
X106906092Y-168719470D01*
X105596160Y-167980563D01*
X104167244Y-167511409D01*
X102674257Y-167330037D01*
X101174572Y-167443417D01*
X99725824Y-167847193D01*
X98383686Y-168525847D01*
X98093908Y-168719470D01*
X97277932Y-169598326D01*
X82722068Y-169598326D01*
X81906092Y-168719470D01*
X80596160Y-167980563D01*
X79167244Y-167511409D01*
X77674257Y-167330037D01*
X76174572Y-167443417D01*
X74725824Y-167847193D01*
X73383686Y-168525847D01*
X73093908Y-168719470D01*
X72277932Y-169598326D01*
X65660000Y-169598326D01*
X65660000Y-155401674D01*
X72277932Y-155401674D01*
X73093908Y-156280530D01*
X74403840Y-157019437D01*
X75832756Y-157488591D01*
X77325743Y-157669963D01*
X78825428Y-157556583D01*
X80274176Y-157152807D01*
X81616314Y-156474153D01*
X81906092Y-156280530D01*
X82722068Y-155401674D01*
X97277932Y-155401674D01*
X98093908Y-156280530D01*
X99403840Y-157019437D01*
X100832756Y-157488591D01*
X102325743Y-157669963D01*
X103825428Y-157556583D01*
X105274176Y-157152807D01*
X106616314Y-156474153D01*
X106906092Y-156280530D01*
X107722068Y-155401674D01*
X102500000Y-150179605D01*
X97277932Y-155401674D01*
X82722068Y-155401674D01*
X77500000Y-150179605D01*
X72277932Y-155401674D01*
X65660000Y-155401674D01*
X65660000Y-149825743D01*
X69830037Y-149825743D01*
X69943417Y-151325428D01*
X70347193Y-152774176D01*
X71025847Y-154116314D01*
X71219470Y-154406092D01*
X72098326Y-155222068D01*
X77320395Y-150000000D01*
X77679605Y-150000000D01*
X82901674Y-155222068D01*
X83780530Y-154406092D01*
X84519437Y-153096160D01*
X84988591Y-151667244D01*
X85169963Y-150174257D01*
X85143615Y-149825743D01*
X94830037Y-149825743D01*
X94943417Y-151325428D01*
X95347193Y-152774176D01*
X96025847Y-154116314D01*
X96219470Y-154406092D01*
X97098326Y-155222068D01*
X102320395Y-150000000D01*
X102679605Y-150000000D01*
X107901674Y-155222068D01*
X108780530Y-154406092D01*
X109519437Y-153096160D01*
X109988591Y-151667244D01*
X110169963Y-150174257D01*
X110056583Y-148674572D01*
X109652807Y-147225824D01*
X108974153Y-145883686D01*
X108780530Y-145593908D01*
X107901674Y-144777932D01*
X102679605Y-150000000D01*
X102320395Y-150000000D01*
X97098326Y-144777932D01*
X96219470Y-145593908D01*
X95480563Y-146903840D01*
X95011409Y-148332756D01*
X94830037Y-149825743D01*
X85143615Y-149825743D01*
X85056583Y-148674572D01*
X84652807Y-147225824D01*
X83974153Y-145883686D01*
X83780530Y-145593908D01*
X82901674Y-144777932D01*
X77679605Y-150000000D01*
X77320395Y-150000000D01*
X72098326Y-144777932D01*
X71219470Y-145593908D01*
X70480563Y-146903840D01*
X70011409Y-148332756D01*
X69830037Y-149825743D01*
X65660000Y-149825743D01*
X65660000Y-144598326D01*
X72277932Y-144598326D01*
X77500000Y-149820395D01*
X82722068Y-144598326D01*
X97277932Y-144598326D01*
X102500000Y-149820395D01*
X107722068Y-144598326D01*
X106906092Y-143719470D01*
X105596160Y-142980563D01*
X104167244Y-142511409D01*
X102674257Y-142330037D01*
X101174572Y-142443417D01*
X99725824Y-142847193D01*
X98383686Y-143525847D01*
X98093908Y-143719470D01*
X97277932Y-144598326D01*
X82722068Y-144598326D01*
X81906092Y-143719470D01*
X80596160Y-142980563D01*
X79167244Y-142511409D01*
X77674257Y-142330037D01*
X76174572Y-142443417D01*
X74725824Y-142847193D01*
X73383686Y-143525847D01*
X73093908Y-143719470D01*
X72277932Y-144598326D01*
X65660000Y-144598326D01*
X65660000Y-130401674D01*
X72277932Y-130401674D01*
X73093908Y-131280530D01*
X74403840Y-132019437D01*
X75832756Y-132488591D01*
X77325743Y-132669963D01*
X78825428Y-132556583D01*
X80274176Y-132152807D01*
X81616314Y-131474153D01*
X81906092Y-131280530D01*
X82722068Y-130401674D01*
X97277932Y-130401674D01*
X98093908Y-131280530D01*
X99403840Y-132019437D01*
X100832756Y-132488591D01*
X102325743Y-132669963D01*
X103825428Y-132556583D01*
X105274176Y-132152807D01*
X106616314Y-131474153D01*
X106906092Y-131280530D01*
X107722068Y-130401674D01*
X102500000Y-125179605D01*
X97277932Y-130401674D01*
X82722068Y-130401674D01*
X77500000Y-125179605D01*
X72277932Y-130401674D01*
X65660000Y-130401674D01*
X65660000Y-124825743D01*
X69830037Y-124825743D01*
X69943417Y-126325428D01*
X70347193Y-127774176D01*
X71025847Y-129116314D01*
X71219470Y-129406092D01*
X72098326Y-130222068D01*
X77320395Y-125000000D01*
X77679605Y-125000000D01*
X82901674Y-130222068D01*
X83780530Y-129406092D01*
X84519437Y-128096160D01*
X84988591Y-126667244D01*
X85169963Y-125174257D01*
X85143615Y-124825743D01*
X94830037Y-124825743D01*
X94943417Y-126325428D01*
X95347193Y-127774176D01*
X96025847Y-129116314D01*
X96219470Y-129406092D01*
X97098326Y-130222068D01*
X102320395Y-125000000D01*
X102679605Y-125000000D01*
X107901674Y-130222068D01*
X108780530Y-129406092D01*
X109519437Y-128096160D01*
X109988591Y-126667244D01*
X110169963Y-125174257D01*
X110056583Y-123674572D01*
X109652807Y-122225824D01*
X108974153Y-120883686D01*
X108780530Y-120593908D01*
X107901674Y-119777932D01*
X102679605Y-125000000D01*
X102320395Y-125000000D01*
X97098326Y-119777932D01*
X96219470Y-120593908D01*
X95480563Y-121903840D01*
X95011409Y-123332756D01*
X94830037Y-124825743D01*
X85143615Y-124825743D01*
X85056583Y-123674572D01*
X84652807Y-122225824D01*
X83974153Y-120883686D01*
X83780530Y-120593908D01*
X82901674Y-119777932D01*
X77679605Y-125000000D01*
X77320395Y-125000000D01*
X72098326Y-119777932D01*
X71219470Y-120593908D01*
X70480563Y-121903840D01*
X70011409Y-123332756D01*
X69830037Y-124825743D01*
X65660000Y-124825743D01*
X65660000Y-119598326D01*
X72277932Y-119598326D01*
X77500000Y-124820395D01*
X82722068Y-119598326D01*
X97277932Y-119598326D01*
X102500000Y-124820395D01*
X107722068Y-119598326D01*
X106906092Y-118719470D01*
X105596160Y-117980563D01*
X104167244Y-117511409D01*
X102674257Y-117330037D01*
X101174572Y-117443417D01*
X99725824Y-117847193D01*
X98383686Y-118525847D01*
X98093908Y-118719470D01*
X97277932Y-119598326D01*
X82722068Y-119598326D01*
X81906092Y-118719470D01*
X80596160Y-117980563D01*
X79167244Y-117511409D01*
X77674257Y-117330037D01*
X76174572Y-117443417D01*
X74725824Y-117847193D01*
X73383686Y-118525847D01*
X73093908Y-118719470D01*
X72277932Y-119598326D01*
X65660000Y-119598326D01*
X65660000Y-83624971D01*
X86554634Y-83624971D01*
X87070783Y-84247788D01*
X87955768Y-84737630D01*
X88919314Y-85045407D01*
X89924389Y-85159293D01*
X90932370Y-85074910D01*
X91904520Y-84795501D01*
X92803481Y-84331803D01*
X92929217Y-84247788D01*
X93445366Y-83624971D01*
X90000000Y-80179605D01*
X86554634Y-83624971D01*
X65660000Y-83624971D01*
X65660000Y-79924389D01*
X84840707Y-79924389D01*
X84925090Y-80932370D01*
X85204499Y-81904520D01*
X85668197Y-82803481D01*
X85752212Y-82929217D01*
X86375029Y-83445366D01*
X89820395Y-80000000D01*
X90179605Y-80000000D01*
X93624971Y-83445366D01*
X94247788Y-82929217D01*
X94737630Y-82044232D01*
X95045407Y-81080686D01*
X95159293Y-80075611D01*
X95074910Y-79067630D01*
X94795501Y-78095480D01*
X94331803Y-77196519D01*
X94247788Y-77070783D01*
X93624971Y-76554634D01*
X90179605Y-80000000D01*
X89820395Y-80000000D01*
X86375029Y-76554634D01*
X85752212Y-77070783D01*
X85262370Y-77955768D01*
X84954593Y-78919314D01*
X84840707Y-79924389D01*
X65660000Y-79924389D01*
X65660000Y-76375029D01*
X86554634Y-76375029D01*
X90000000Y-79820395D01*
X93445366Y-76375029D01*
X92929217Y-75752212D01*
X92044232Y-75262370D01*
X91080686Y-74954593D01*
X90075611Y-74840707D01*
X89067630Y-74925090D01*
X88095480Y-75204499D01*
X87196519Y-75668197D01*
X87070783Y-75752212D01*
X86554634Y-76375029D01*
X65660000Y-76375029D01*
X65660000Y-33624971D01*
X86554634Y-33624971D01*
X87070783Y-34247788D01*
X87955768Y-34737630D01*
X88919314Y-35045407D01*
X89924389Y-35159293D01*
X90932370Y-35074910D01*
X91904520Y-34795501D01*
X92803481Y-34331803D01*
X92929217Y-34247788D01*
X93445366Y-33624971D01*
X90000000Y-30179605D01*
X86554634Y-33624971D01*
X65660000Y-33624971D01*
X65660000Y-29924389D01*
X84840707Y-29924389D01*
X84925090Y-30932370D01*
X85204499Y-31904520D01*
X85668197Y-32803481D01*
X85752212Y-32929217D01*
X86375029Y-33445366D01*
X89820395Y-30000000D01*
X90179605Y-30000000D01*
X93624971Y-33445366D01*
X94247788Y-32929217D01*
X94737630Y-32044232D01*
X95045407Y-31080686D01*
X95159293Y-30075611D01*
X95074910Y-29067630D01*
X94795501Y-28095480D01*
X94331803Y-27196519D01*
X94247788Y-27070783D01*
X93624971Y-26554634D01*
X90179605Y-30000000D01*
X89820395Y-30000000D01*
X86375029Y-26554634D01*
X85752212Y-27070783D01*
X85262370Y-27955768D01*
X84954593Y-28919314D01*
X84840707Y-29924389D01*
X65660000Y-29924389D01*
X65660000Y-26375029D01*
X86554634Y-26375029D01*
X90000000Y-29820395D01*
X93445366Y-26375029D01*
X92929217Y-25752212D01*
X92044232Y-25262370D01*
X91080686Y-24954593D01*
X90075611Y-24840707D01*
X89067630Y-24925090D01*
X88095480Y-25204499D01*
X87196519Y-25668197D01*
X87070783Y-25752212D01*
X86554634Y-26375029D01*
X65660000Y-26375029D01*
X65660000Y-4213807D01*
X65728519Y-4358331D01*
X66036970Y-4773424D01*
X66420475Y-5120365D01*
X66864296Y-5385822D01*
X67351377Y-5559593D01*
X67863000Y-5635000D01*
X69263000Y-5635000D01*
X69263000Y-3127000D01*
X69517000Y-3127000D01*
X69517000Y-5635000D01*
X70917000Y-5635000D01*
X71428623Y-5559593D01*
X71915704Y-5385822D01*
X72359525Y-5120365D01*
X72743030Y-4773424D01*
X73051481Y-4358331D01*
X73273025Y-3891038D01*
X73369667Y-3537162D01*
X106620333Y-3537162D01*
X106716975Y-3891038D01*
X106938519Y-4358331D01*
X107246970Y-4773424D01*
X107630475Y-5120365D01*
X108074296Y-5385822D01*
X108561377Y-5559593D01*
X109073000Y-5635000D01*
X110473000Y-5635000D01*
X110473000Y-3127000D01*
X106727009Y-3127000D01*
X106620333Y-3537162D01*
X73369667Y-3537162D01*
X73262991Y-3127000D01*
X69517000Y-3127000D01*
X69263000Y-3127000D01*
X69243000Y-3127000D01*
X69243000Y-2873000D01*
X69263000Y-2873000D01*
X69263000Y-2853000D01*
X69517000Y-2853000D01*
X69517000Y-2873000D01*
X73262991Y-2873000D01*
X73369667Y-2462838D01*
X73273025Y-2108962D01*
X73051481Y-1641669D01*
X72743030Y-1226576D01*
X72359525Y-879635D01*
X71992314Y-660000D01*
X107997686Y-660000D01*
X107630475Y-879635D01*
%TA.AperFunction,Conductor*%
D15*
G36*
X107630475Y-879635D02*
G01*
X107246970Y-1226576D01*
X106938519Y-1641669D01*
X106716975Y-2108962D01*
X106620333Y-2462838D01*
X106727009Y-2873000D01*
X110473000Y-2873000D01*
X110473000Y-2853000D01*
X110727000Y-2853000D01*
X110727000Y-2873000D01*
X110747000Y-2873000D01*
X110747000Y-3127000D01*
X110727000Y-3127000D01*
X110727000Y-5635000D01*
X112127000Y-5635000D01*
X112638623Y-5559593D01*
X113125704Y-5385822D01*
X113569525Y-5120365D01*
X113953030Y-4773424D01*
X114261481Y-4358331D01*
X114340000Y-4192714D01*
X114340001Y-195807288D01*
X114261481Y-195641669D01*
X113953030Y-195226576D01*
X113569525Y-194879635D01*
X113125704Y-194614178D01*
X112638623Y-194440407D01*
X112127000Y-194365000D01*
X110727000Y-194365000D01*
X110727000Y-196873000D01*
X110747000Y-196873000D01*
X110747000Y-197127000D01*
X110727000Y-197127000D01*
X110727000Y-197147000D01*
X110473000Y-197147000D01*
X110473000Y-197127000D01*
X106727009Y-197127000D01*
X106620333Y-197537162D01*
X106716975Y-197891038D01*
X106938519Y-198358331D01*
X107246970Y-198773424D01*
X107630475Y-199120365D01*
X107997686Y-199340000D01*
X72002314Y-199340000D01*
X72369525Y-199120365D01*
X72753030Y-198773424D01*
X73061481Y-198358331D01*
X73283025Y-197891038D01*
X73379667Y-197537162D01*
X73272991Y-197127000D01*
X69527000Y-197127000D01*
X69527000Y-197147000D01*
X69273000Y-197147000D01*
X69273000Y-197127000D01*
X69253000Y-197127000D01*
X69253000Y-196873000D01*
X69273000Y-196873000D01*
X69273000Y-194365000D01*
X69527000Y-194365000D01*
X69527000Y-196873000D01*
X73272991Y-196873000D01*
X73379667Y-196462838D01*
X106620333Y-196462838D01*
X106727009Y-196873000D01*
X110473000Y-196873000D01*
X110473000Y-194365000D01*
X109073000Y-194365000D01*
X108561377Y-194440407D01*
X108074296Y-194614178D01*
X107630475Y-194879635D01*
X107246970Y-195226576D01*
X106938519Y-195641669D01*
X106716975Y-196108962D01*
X106620333Y-196462838D01*
X73379667Y-196462838D01*
X73283025Y-196108962D01*
X73061481Y-195641669D01*
X72753030Y-195226576D01*
X72369525Y-194879635D01*
X71925704Y-194614178D01*
X71438623Y-194440407D01*
X70927000Y-194365000D01*
X69527000Y-194365000D01*
X69273000Y-194365000D01*
X67873000Y-194365000D01*
X67361377Y-194440407D01*
X66874296Y-194614178D01*
X66430475Y-194879635D01*
X66046970Y-195226576D01*
X65738519Y-195641669D01*
X65660000Y-195807286D01*
X65660000Y-180401674D01*
X72277932Y-180401674D01*
X73093908Y-181280530D01*
X74403840Y-182019437D01*
X75832756Y-182488591D01*
X77325743Y-182669963D01*
X78825428Y-182556583D01*
X80274176Y-182152807D01*
X81616314Y-181474153D01*
X81906092Y-181280530D01*
X82722068Y-180401674D01*
X97277932Y-180401674D01*
X98093908Y-181280530D01*
X99403840Y-182019437D01*
X100832756Y-182488591D01*
X102325743Y-182669963D01*
X103825428Y-182556583D01*
X105274176Y-182152807D01*
X106616314Y-181474153D01*
X106906092Y-181280530D01*
X107722068Y-180401674D01*
X102500000Y-175179605D01*
X97277932Y-180401674D01*
X82722068Y-180401674D01*
X77500000Y-175179605D01*
X72277932Y-180401674D01*
X65660000Y-180401674D01*
X65660000Y-174825743D01*
X69830037Y-174825743D01*
X69943417Y-176325428D01*
X70347193Y-177774176D01*
X71025847Y-179116314D01*
X71219470Y-179406092D01*
X72098326Y-180222068D01*
X77320395Y-175000000D01*
X77679605Y-175000000D01*
X82901674Y-180222068D01*
X83780530Y-179406092D01*
X84519437Y-178096160D01*
X84754268Y-177380928D01*
X87798677Y-177380928D01*
X88104859Y-177824503D01*
X88692306Y-178139954D01*
X89330008Y-178334740D01*
X89993457Y-178401372D01*
X90657158Y-178337292D01*
X91295605Y-178144962D01*
X91884262Y-177831772D01*
X91895141Y-177824503D01*
X92201323Y-177380928D01*
X90000000Y-175179605D01*
X87798677Y-177380928D01*
X84754268Y-177380928D01*
X84988591Y-176667244D01*
X85169963Y-175174257D01*
X85156295Y-174993457D01*
X86598628Y-174993457D01*
X86662708Y-175657158D01*
X86855038Y-176295605D01*
X87168228Y-176884262D01*
X87175497Y-176895141D01*
X87619072Y-177201323D01*
X89820395Y-175000000D01*
X90179605Y-175000000D01*
X92380928Y-177201323D01*
X92824503Y-176895141D01*
X93139954Y-176307694D01*
X93334740Y-175669992D01*
X93401372Y-175006543D01*
X93383916Y-174825743D01*
X94830037Y-174825743D01*
X94943417Y-176325428D01*
X95347193Y-177774176D01*
X96025847Y-179116314D01*
X96219470Y-179406092D01*
X97098326Y-180222068D01*
X102320395Y-175000000D01*
X102679605Y-175000000D01*
X107901674Y-180222068D01*
X108780530Y-179406092D01*
X109519437Y-178096160D01*
X109988591Y-176667244D01*
X110169963Y-175174257D01*
X110056583Y-173674572D01*
X109652807Y-172225824D01*
X108974153Y-170883686D01*
X108780530Y-170593908D01*
X107901674Y-169777932D01*
X102679605Y-175000000D01*
X102320395Y-175000000D01*
X97098326Y-169777932D01*
X96219470Y-170593908D01*
X95480563Y-171903840D01*
X95011409Y-173332756D01*
X94830037Y-174825743D01*
X93383916Y-174825743D01*
X93337292Y-174342842D01*
X93144962Y-173704395D01*
X92831772Y-173115738D01*
X92824503Y-173104859D01*
X92380928Y-172798677D01*
X90179605Y-175000000D01*
X89820395Y-175000000D01*
X87619072Y-172798677D01*
X87175497Y-173104859D01*
X86860046Y-173692306D01*
X86665260Y-174330008D01*
X86598628Y-174993457D01*
X85156295Y-174993457D01*
X85056583Y-173674572D01*
X84762408Y-172619072D01*
X87798677Y-172619072D01*
X90000000Y-174820395D01*
X92201323Y-172619072D01*
X91895141Y-172175497D01*
X91307694Y-171860046D01*
X90669992Y-171665260D01*
X90006543Y-171598628D01*
X89342842Y-171662708D01*
X88704395Y-171855038D01*
X88115738Y-172168228D01*
X88104859Y-172175497D01*
X87798677Y-172619072D01*
X84762408Y-172619072D01*
X84652807Y-172225824D01*
X83974153Y-170883686D01*
X83780530Y-170593908D01*
X82901674Y-169777932D01*
X77679605Y-175000000D01*
X77320395Y-175000000D01*
X72098326Y-169777932D01*
X71219470Y-170593908D01*
X70480563Y-171903840D01*
X70011409Y-173332756D01*
X69830037Y-174825743D01*
X65660000Y-174825743D01*
X65660000Y-169598326D01*
X72277932Y-169598326D01*
X77500000Y-174820395D01*
X82722068Y-169598326D01*
X97277932Y-169598326D01*
X102500000Y-174820395D01*
X107722068Y-169598326D01*
X106906092Y-168719470D01*
X105596160Y-167980563D01*
X104167244Y-167511409D01*
X102674257Y-167330037D01*
X101174572Y-167443417D01*
X99725824Y-167847193D01*
X98383686Y-168525847D01*
X98093908Y-168719470D01*
X97277932Y-169598326D01*
X82722068Y-169598326D01*
X81906092Y-168719470D01*
X80596160Y-167980563D01*
X79167244Y-167511409D01*
X77674257Y-167330037D01*
X76174572Y-167443417D01*
X74725824Y-167847193D01*
X73383686Y-168525847D01*
X73093908Y-168719470D01*
X72277932Y-169598326D01*
X65660000Y-169598326D01*
X65660000Y-155401674D01*
X72277932Y-155401674D01*
X73093908Y-156280530D01*
X74403840Y-157019437D01*
X75832756Y-157488591D01*
X77325743Y-157669963D01*
X78825428Y-157556583D01*
X80274176Y-157152807D01*
X81616314Y-156474153D01*
X81906092Y-156280530D01*
X82722068Y-155401674D01*
X97277932Y-155401674D01*
X98093908Y-156280530D01*
X99403840Y-157019437D01*
X100832756Y-157488591D01*
X102325743Y-157669963D01*
X103825428Y-157556583D01*
X105274176Y-157152807D01*
X106616314Y-156474153D01*
X106906092Y-156280530D01*
X107722068Y-155401674D01*
X102500000Y-150179605D01*
X97277932Y-155401674D01*
X82722068Y-155401674D01*
X77500000Y-150179605D01*
X72277932Y-155401674D01*
X65660000Y-155401674D01*
X65660000Y-149825743D01*
X69830037Y-149825743D01*
X69943417Y-151325428D01*
X70347193Y-152774176D01*
X71025847Y-154116314D01*
X71219470Y-154406092D01*
X72098326Y-155222068D01*
X77320395Y-150000000D01*
X77679605Y-150000000D01*
X82901674Y-155222068D01*
X83780530Y-154406092D01*
X84519437Y-153096160D01*
X84988591Y-151667244D01*
X85169963Y-150174257D01*
X85143615Y-149825743D01*
X94830037Y-149825743D01*
X94943417Y-151325428D01*
X95347193Y-152774176D01*
X96025847Y-154116314D01*
X96219470Y-154406092D01*
X97098326Y-155222068D01*
X102320395Y-150000000D01*
X102679605Y-150000000D01*
X107901674Y-155222068D01*
X108780530Y-154406092D01*
X109519437Y-153096160D01*
X109988591Y-151667244D01*
X110169963Y-150174257D01*
X110056583Y-148674572D01*
X109652807Y-147225824D01*
X108974153Y-145883686D01*
X108780530Y-145593908D01*
X107901674Y-144777932D01*
X102679605Y-150000000D01*
X102320395Y-150000000D01*
X97098326Y-144777932D01*
X96219470Y-145593908D01*
X95480563Y-146903840D01*
X95011409Y-148332756D01*
X94830037Y-149825743D01*
X85143615Y-149825743D01*
X85056583Y-148674572D01*
X84652807Y-147225824D01*
X83974153Y-145883686D01*
X83780530Y-145593908D01*
X82901674Y-144777932D01*
X77679605Y-150000000D01*
X77320395Y-150000000D01*
X72098326Y-144777932D01*
X71219470Y-145593908D01*
X70480563Y-146903840D01*
X70011409Y-148332756D01*
X69830037Y-149825743D01*
X65660000Y-149825743D01*
X65660000Y-144598326D01*
X72277932Y-144598326D01*
X77500000Y-149820395D01*
X82722068Y-144598326D01*
X97277932Y-144598326D01*
X102500000Y-149820395D01*
X107722068Y-144598326D01*
X106906092Y-143719470D01*
X105596160Y-142980563D01*
X104167244Y-142511409D01*
X102674257Y-142330037D01*
X101174572Y-142443417D01*
X99725824Y-142847193D01*
X98383686Y-143525847D01*
X98093908Y-143719470D01*
X97277932Y-144598326D01*
X82722068Y-144598326D01*
X81906092Y-143719470D01*
X80596160Y-142980563D01*
X79167244Y-142511409D01*
X77674257Y-142330037D01*
X76174572Y-142443417D01*
X74725824Y-142847193D01*
X73383686Y-143525847D01*
X73093908Y-143719470D01*
X72277932Y-144598326D01*
X65660000Y-144598326D01*
X65660000Y-130401674D01*
X72277932Y-130401674D01*
X73093908Y-131280530D01*
X74403840Y-132019437D01*
X75832756Y-132488591D01*
X77325743Y-132669963D01*
X78825428Y-132556583D01*
X80274176Y-132152807D01*
X81616314Y-131474153D01*
X81906092Y-131280530D01*
X82722068Y-130401674D01*
X97277932Y-130401674D01*
X98093908Y-131280530D01*
X99403840Y-132019437D01*
X100832756Y-132488591D01*
X102325743Y-132669963D01*
X103825428Y-132556583D01*
X105274176Y-132152807D01*
X106616314Y-131474153D01*
X106906092Y-131280530D01*
X107722068Y-130401674D01*
X102500000Y-125179605D01*
X97277932Y-130401674D01*
X82722068Y-130401674D01*
X77500000Y-125179605D01*
X72277932Y-130401674D01*
X65660000Y-130401674D01*
X65660000Y-124825743D01*
X69830037Y-124825743D01*
X69943417Y-126325428D01*
X70347193Y-127774176D01*
X71025847Y-129116314D01*
X71219470Y-129406092D01*
X72098326Y-130222068D01*
X77320395Y-125000000D01*
X77679605Y-125000000D01*
X82901674Y-130222068D01*
X83780530Y-129406092D01*
X84519437Y-128096160D01*
X84988591Y-126667244D01*
X85169963Y-125174257D01*
X85143615Y-124825743D01*
X94830037Y-124825743D01*
X94943417Y-126325428D01*
X95347193Y-127774176D01*
X96025847Y-129116314D01*
X96219470Y-129406092D01*
X97098326Y-130222068D01*
X102320395Y-125000000D01*
X102679605Y-125000000D01*
X107901674Y-130222068D01*
X108780530Y-129406092D01*
X109519437Y-128096160D01*
X109988591Y-126667244D01*
X110169963Y-125174257D01*
X110056583Y-123674572D01*
X109652807Y-122225824D01*
X108974153Y-120883686D01*
X108780530Y-120593908D01*
X107901674Y-119777932D01*
X102679605Y-125000000D01*
X102320395Y-125000000D01*
X97098326Y-119777932D01*
X96219470Y-120593908D01*
X95480563Y-121903840D01*
X95011409Y-123332756D01*
X94830037Y-124825743D01*
X85143615Y-124825743D01*
X85056583Y-123674572D01*
X84652807Y-122225824D01*
X83974153Y-120883686D01*
X83780530Y-120593908D01*
X82901674Y-119777932D01*
X77679605Y-125000000D01*
X77320395Y-125000000D01*
X72098326Y-119777932D01*
X71219470Y-120593908D01*
X70480563Y-121903840D01*
X70011409Y-123332756D01*
X69830037Y-124825743D01*
X65660000Y-124825743D01*
X65660000Y-119598326D01*
X72277932Y-119598326D01*
X77500000Y-124820395D01*
X82722068Y-119598326D01*
X97277932Y-119598326D01*
X102500000Y-124820395D01*
X107722068Y-119598326D01*
X106906092Y-118719470D01*
X105596160Y-117980563D01*
X104167244Y-117511409D01*
X102674257Y-117330037D01*
X101174572Y-117443417D01*
X99725824Y-117847193D01*
X98383686Y-118525847D01*
X98093908Y-118719470D01*
X97277932Y-119598326D01*
X82722068Y-119598326D01*
X81906092Y-118719470D01*
X80596160Y-117980563D01*
X79167244Y-117511409D01*
X77674257Y-117330037D01*
X76174572Y-117443417D01*
X74725824Y-117847193D01*
X73383686Y-118525847D01*
X73093908Y-118719470D01*
X72277932Y-119598326D01*
X65660000Y-119598326D01*
X65660000Y-83624971D01*
X86554634Y-83624971D01*
X87070783Y-84247788D01*
X87955768Y-84737630D01*
X88919314Y-85045407D01*
X89924389Y-85159293D01*
X90932370Y-85074910D01*
X91904520Y-84795501D01*
X92803481Y-84331803D01*
X92929217Y-84247788D01*
X93445366Y-83624971D01*
X90000000Y-80179605D01*
X86554634Y-83624971D01*
X65660000Y-83624971D01*
X65660000Y-79924389D01*
X84840707Y-79924389D01*
X84925090Y-80932370D01*
X85204499Y-81904520D01*
X85668197Y-82803481D01*
X85752212Y-82929217D01*
X86375029Y-83445366D01*
X89820395Y-80000000D01*
X90179605Y-80000000D01*
X93624971Y-83445366D01*
X94247788Y-82929217D01*
X94737630Y-82044232D01*
X95045407Y-81080686D01*
X95159293Y-80075611D01*
X95074910Y-79067630D01*
X94795501Y-78095480D01*
X94331803Y-77196519D01*
X94247788Y-77070783D01*
X93624971Y-76554634D01*
X90179605Y-80000000D01*
X89820395Y-80000000D01*
X86375029Y-76554634D01*
X85752212Y-77070783D01*
X85262370Y-77955768D01*
X84954593Y-78919314D01*
X84840707Y-79924389D01*
X65660000Y-79924389D01*
X65660000Y-76375029D01*
X86554634Y-76375029D01*
X90000000Y-79820395D01*
X93445366Y-76375029D01*
X92929217Y-75752212D01*
X92044232Y-75262370D01*
X91080686Y-74954593D01*
X90075611Y-74840707D01*
X89067630Y-74925090D01*
X88095480Y-75204499D01*
X87196519Y-75668197D01*
X87070783Y-75752212D01*
X86554634Y-76375029D01*
X65660000Y-76375029D01*
X65660000Y-33624971D01*
X86554634Y-33624971D01*
X87070783Y-34247788D01*
X87955768Y-34737630D01*
X88919314Y-35045407D01*
X89924389Y-35159293D01*
X90932370Y-35074910D01*
X91904520Y-34795501D01*
X92803481Y-34331803D01*
X92929217Y-34247788D01*
X93445366Y-33624971D01*
X90000000Y-30179605D01*
X86554634Y-33624971D01*
X65660000Y-33624971D01*
X65660000Y-29924389D01*
X84840707Y-29924389D01*
X84925090Y-30932370D01*
X85204499Y-31904520D01*
X85668197Y-32803481D01*
X85752212Y-32929217D01*
X86375029Y-33445366D01*
X89820395Y-30000000D01*
X90179605Y-30000000D01*
X93624971Y-33445366D01*
X94247788Y-32929217D01*
X94737630Y-32044232D01*
X95045407Y-31080686D01*
X95159293Y-30075611D01*
X95074910Y-29067630D01*
X94795501Y-28095480D01*
X94331803Y-27196519D01*
X94247788Y-27070783D01*
X93624971Y-26554634D01*
X90179605Y-30000000D01*
X89820395Y-30000000D01*
X86375029Y-26554634D01*
X85752212Y-27070783D01*
X85262370Y-27955768D01*
X84954593Y-28919314D01*
X84840707Y-29924389D01*
X65660000Y-29924389D01*
X65660000Y-26375029D01*
X86554634Y-26375029D01*
X90000000Y-29820395D01*
X93445366Y-26375029D01*
X92929217Y-25752212D01*
X92044232Y-25262370D01*
X91080686Y-24954593D01*
X90075611Y-24840707D01*
X89067630Y-24925090D01*
X88095480Y-25204499D01*
X87196519Y-25668197D01*
X87070783Y-25752212D01*
X86554634Y-26375029D01*
X65660000Y-26375029D01*
X65660000Y-4213807D01*
X65728519Y-4358331D01*
X66036970Y-4773424D01*
X66420475Y-5120365D01*
X66864296Y-5385822D01*
X67351377Y-5559593D01*
X67863000Y-5635000D01*
X69263000Y-5635000D01*
X69263000Y-3127000D01*
X69517000Y-3127000D01*
X69517000Y-5635000D01*
X70917000Y-5635000D01*
X71428623Y-5559593D01*
X71915704Y-5385822D01*
X72359525Y-5120365D01*
X72743030Y-4773424D01*
X73051481Y-4358331D01*
X73273025Y-3891038D01*
X73369667Y-3537162D01*
X106620333Y-3537162D01*
X106716975Y-3891038D01*
X106938519Y-4358331D01*
X107246970Y-4773424D01*
X107630475Y-5120365D01*
X108074296Y-5385822D01*
X108561377Y-5559593D01*
X109073000Y-5635000D01*
X110473000Y-5635000D01*
X110473000Y-3127000D01*
X106727009Y-3127000D01*
X106620333Y-3537162D01*
X73369667Y-3537162D01*
X73262991Y-3127000D01*
X69517000Y-3127000D01*
X69263000Y-3127000D01*
X69243000Y-3127000D01*
X69243000Y-2873000D01*
X69263000Y-2873000D01*
X69263000Y-2853000D01*
X69517000Y-2853000D01*
X69517000Y-2873000D01*
X73262991Y-2873000D01*
X73369667Y-2462838D01*
X73273025Y-2108962D01*
X73051481Y-1641669D01*
X72743030Y-1226576D01*
X72359525Y-879635D01*
X71992314Y-660000D01*
X107997686Y-660000D01*
X107630475Y-879635D01*
G37*
%TD.AperFunction*%
%TD*%
M02*
