M48
; DRILL file {KiCad 5.1.8-db9833491~88~ubuntu20.04.1} date Tue Dec  1 11:04:50 2020
; FORMAT={-:-/ absolute / inch / decimal}
; #@! TF.CreationDate,2020-12-01T11:04:50-05:00
; #@! TF.GenerationSoftware,Kicad,Pcbnew,5.1.8-db9833491~88~ubuntu20.04.1
; #@! TF.FileFunction,Plated,1,2,PTH
FMAT,2
INCH
T1C0.1260
T2C0.2756
T3C0.3937
%
G90
G05
T2
X4.1339Y-0.7874
X4.1339Y-2.3819
X6.1024Y-1.9685
X6.1024Y-0.7874
X6.1024Y-4.3307
X6.1024Y-3.1496
T3
X3.6417Y-6.2992
X4.626Y-6.2992
X6.5945Y-5.315
X5.6102Y-6.2992
X3.6417Y-4.3307
X4.626Y-4.3307
X6.5945Y-6.2992
X4.626Y-5.315
X5.6102Y-5.315
X3.6417Y-5.315
T1
G00X3.2677Y0.4724
M15
G01X3.378Y0.4724
M16
G05
G00X6.9685Y0.4724
M15
G01X6.8583Y0.4724
M16
G05
G00X6.9685Y-7.1654
M15
G01X6.8583Y-7.1654
M16
G05
G00X3.2677Y-7.1654
M15
G01X3.378Y-7.1654
M16
G05
T0
M30
