%TF.GenerationSoftware,KiCad,Pcbnew,5.1.8-db9833491~88~ubuntu20.04.1*%
%TF.CreationDate,2020-12-01T11:04:47-05:00*%
%TF.ProjectId,mfos_vco_panel,6d666f73-5f76-4636-9f5f-70616e656c2e,rev?*%
%TF.SameCoordinates,Original*%
%TF.FileFunction,Copper,L1,Top*%
%TF.FilePolarity,Positive*%
%FSLAX46Y46*%
G04 Gerber Fmt 4.6, Leading zero omitted, Abs format (unit mm)*
G04 Created by KiCad (PCBNEW 5.1.8-db9833491~88~ubuntu20.04.1) date 2020-12-01 11:04:47*
%MOMM*%
%LPD*%
G01*
G04 APERTURE LIST*
%TA.AperFunction,ComponentPad*%
%ADD10C,14.000000*%
%TD*%
%TA.AperFunction,ComponentPad*%
%ADD11C,9.000000*%
%TD*%
%TA.AperFunction,ComponentPad*%
%ADD12O,6.800000X4.000000*%
%TD*%
%TA.AperFunction,Conductor*%
%ADD13C,0.254000*%
%TD*%
%TA.AperFunction,Conductor*%
%ADD14C,0.100000*%
%TD*%
G04 APERTURE END LIST*
D10*
%TO.P,H21,1*%
%TO.N,GND*%
X92500000Y-110000000D03*
%TD*%
D11*
%TO.P,H20,1*%
%TO.N,GND*%
X155000000Y-50000000D03*
%TD*%
D10*
%TO.P,H19,1*%
%TO.N,GND*%
X167500000Y-160000000D03*
%TD*%
D11*
%TO.P,H18,1*%
%TO.N,GND*%
X155000000Y-80000000D03*
%TD*%
D12*
%TO.P,H17,1*%
%TO.N,GND*%
X84400000Y12000000D03*
%TD*%
D10*
%TO.P,H16,1*%
%TO.N,GND*%
X117500000Y-160000000D03*
%TD*%
%TO.P,H15,1*%
%TO.N,GND*%
X167500000Y-135000000D03*
%TD*%
D11*
%TO.P,H14,1*%
%TO.N,GND*%
X105000000Y-60500000D03*
%TD*%
D12*
%TO.P,H13,1*%
%TO.N,GND*%
X175600000Y-182000000D03*
%TD*%
D10*
%TO.P,H12,1*%
%TO.N,GND*%
X92500000Y-160000000D03*
%TD*%
%TO.P,H11,1*%
%TO.N,GND*%
X142500000Y-160000000D03*
%TD*%
D11*
%TO.P,H10,1*%
%TO.N,GND*%
X155000000Y-20000000D03*
%TD*%
D12*
%TO.P,H9,1*%
%TO.N,GND*%
X84400000Y-182000000D03*
%TD*%
D10*
%TO.P,H8,1*%
%TO.N,GND*%
X142500000Y-135000000D03*
%TD*%
%TO.P,H7,1*%
%TO.N,GND*%
X92500000Y-135000000D03*
%TD*%
D11*
%TO.P,H6,1*%
%TO.N,GND*%
X155000000Y-110000000D03*
%TD*%
D12*
%TO.P,H5,1*%
%TO.N,GND*%
X175600000Y12000000D03*
%TD*%
D10*
%TO.P,H4,1*%
%TO.N,GND*%
X117500000Y-135000000D03*
%TD*%
%TO.P,H3,1*%
%TO.N,GND*%
X117500000Y-110000000D03*
%TD*%
D11*
%TO.P,H1,1*%
%TO.N,GND*%
X105000000Y-20000000D03*
%TD*%
D13*
%TO.N,GND*%
X172630475Y14120365D02*
X172246970Y13773424D01*
X171938519Y13358331D01*
X171716975Y12891038D01*
X171620333Y12537162D01*
X171727009Y12127000D01*
X175473000Y12127000D01*
X175473000Y12147000D01*
X175727000Y12147000D01*
X175727000Y12127000D01*
X175747000Y12127000D01*
X175747000Y11873000D01*
X175727000Y11873000D01*
X175727000Y9365000D01*
X177127000Y9365000D01*
X177638623Y9440407D01*
X178125704Y9614178D01*
X178569525Y9879635D01*
X178953030Y10226576D01*
X179261481Y10641669D01*
X179340000Y10807286D01*
X179340001Y-180807288D01*
X179261481Y-180641669D01*
X178953030Y-180226576D01*
X178569525Y-179879635D01*
X178125704Y-179614178D01*
X177638623Y-179440407D01*
X177127000Y-179365000D01*
X175727000Y-179365000D01*
X175727000Y-181873000D01*
X175747000Y-181873000D01*
X175747000Y-182127000D01*
X175727000Y-182127000D01*
X175727000Y-182147000D01*
X175473000Y-182147000D01*
X175473000Y-182127000D01*
X171727009Y-182127000D01*
X171620333Y-182537162D01*
X171716975Y-182891038D01*
X171938519Y-183358331D01*
X172246970Y-183773424D01*
X172630475Y-184120365D01*
X172997686Y-184340000D01*
X87002314Y-184340000D01*
X87369525Y-184120365D01*
X87753030Y-183773424D01*
X88061481Y-183358331D01*
X88283025Y-182891038D01*
X88379667Y-182537162D01*
X88272991Y-182127000D01*
X84527000Y-182127000D01*
X84527000Y-182147000D01*
X84273000Y-182147000D01*
X84273000Y-182127000D01*
X84253000Y-182127000D01*
X84253000Y-181873000D01*
X84273000Y-181873000D01*
X84273000Y-179365000D01*
X84527000Y-179365000D01*
X84527000Y-181873000D01*
X88272991Y-181873000D01*
X88379667Y-181462838D01*
X171620333Y-181462838D01*
X171727009Y-181873000D01*
X175473000Y-181873000D01*
X175473000Y-179365000D01*
X174073000Y-179365000D01*
X173561377Y-179440407D01*
X173074296Y-179614178D01*
X172630475Y-179879635D01*
X172246970Y-180226576D01*
X171938519Y-180641669D01*
X171716975Y-181108962D01*
X171620333Y-181462838D01*
X88379667Y-181462838D01*
X88283025Y-181108962D01*
X88061481Y-180641669D01*
X87753030Y-180226576D01*
X87369525Y-179879635D01*
X86925704Y-179614178D01*
X86438623Y-179440407D01*
X85927000Y-179365000D01*
X84527000Y-179365000D01*
X84273000Y-179365000D01*
X82873000Y-179365000D01*
X82361377Y-179440407D01*
X81874296Y-179614178D01*
X81430475Y-179879635D01*
X81046970Y-180226576D01*
X80738519Y-180641669D01*
X80660000Y-180807286D01*
X80660000Y-165401674D01*
X87277932Y-165401674D01*
X88093908Y-166280530D01*
X89403840Y-167019437D01*
X90832756Y-167488591D01*
X92325743Y-167669963D01*
X93825428Y-167556583D01*
X95274176Y-167152807D01*
X96616314Y-166474153D01*
X96906092Y-166280530D01*
X97722068Y-165401674D01*
X112277932Y-165401674D01*
X113093908Y-166280530D01*
X114403840Y-167019437D01*
X115832756Y-167488591D01*
X117325743Y-167669963D01*
X118825428Y-167556583D01*
X120274176Y-167152807D01*
X121616314Y-166474153D01*
X121906092Y-166280530D01*
X122722068Y-165401674D01*
X137277932Y-165401674D01*
X138093908Y-166280530D01*
X139403840Y-167019437D01*
X140832756Y-167488591D01*
X142325743Y-167669963D01*
X143825428Y-167556583D01*
X145274176Y-167152807D01*
X146616314Y-166474153D01*
X146906092Y-166280530D01*
X147722068Y-165401674D01*
X162277932Y-165401674D01*
X163093908Y-166280530D01*
X164403840Y-167019437D01*
X165832756Y-167488591D01*
X167325743Y-167669963D01*
X168825428Y-167556583D01*
X170274176Y-167152807D01*
X171616314Y-166474153D01*
X171906092Y-166280530D01*
X172722068Y-165401674D01*
X167500000Y-160179605D01*
X162277932Y-165401674D01*
X147722068Y-165401674D01*
X142500000Y-160179605D01*
X137277932Y-165401674D01*
X122722068Y-165401674D01*
X117500000Y-160179605D01*
X112277932Y-165401674D01*
X97722068Y-165401674D01*
X92500000Y-160179605D01*
X87277932Y-165401674D01*
X80660000Y-165401674D01*
X80660000Y-159825743D01*
X84830037Y-159825743D01*
X84943417Y-161325428D01*
X85347193Y-162774176D01*
X86025847Y-164116314D01*
X86219470Y-164406092D01*
X87098326Y-165222068D01*
X92320395Y-160000000D01*
X92679605Y-160000000D01*
X97901674Y-165222068D01*
X98780530Y-164406092D01*
X99519437Y-163096160D01*
X99988591Y-161667244D01*
X100169963Y-160174257D01*
X100143615Y-159825743D01*
X109830037Y-159825743D01*
X109943417Y-161325428D01*
X110347193Y-162774176D01*
X111025847Y-164116314D01*
X111219470Y-164406092D01*
X112098326Y-165222068D01*
X117320395Y-160000000D01*
X117679605Y-160000000D01*
X122901674Y-165222068D01*
X123780530Y-164406092D01*
X124519437Y-163096160D01*
X124988591Y-161667244D01*
X125169963Y-160174257D01*
X125143615Y-159825743D01*
X134830037Y-159825743D01*
X134943417Y-161325428D01*
X135347193Y-162774176D01*
X136025847Y-164116314D01*
X136219470Y-164406092D01*
X137098326Y-165222068D01*
X142320395Y-160000000D01*
X142679605Y-160000000D01*
X147901674Y-165222068D01*
X148780530Y-164406092D01*
X149519437Y-163096160D01*
X149988591Y-161667244D01*
X150169963Y-160174257D01*
X150143615Y-159825743D01*
X159830037Y-159825743D01*
X159943417Y-161325428D01*
X160347193Y-162774176D01*
X161025847Y-164116314D01*
X161219470Y-164406092D01*
X162098326Y-165222068D01*
X167320395Y-160000000D01*
X167679605Y-160000000D01*
X172901674Y-165222068D01*
X173780530Y-164406092D01*
X174519437Y-163096160D01*
X174988591Y-161667244D01*
X175169963Y-160174257D01*
X175056583Y-158674572D01*
X174652807Y-157225824D01*
X173974153Y-155883686D01*
X173780530Y-155593908D01*
X172901674Y-154777932D01*
X167679605Y-160000000D01*
X167320395Y-160000000D01*
X162098326Y-154777932D01*
X161219470Y-155593908D01*
X160480563Y-156903840D01*
X160011409Y-158332756D01*
X159830037Y-159825743D01*
X150143615Y-159825743D01*
X150056583Y-158674572D01*
X149652807Y-157225824D01*
X148974153Y-155883686D01*
X148780530Y-155593908D01*
X147901674Y-154777932D01*
X142679605Y-160000000D01*
X142320395Y-160000000D01*
X137098326Y-154777932D01*
X136219470Y-155593908D01*
X135480563Y-156903840D01*
X135011409Y-158332756D01*
X134830037Y-159825743D01*
X125143615Y-159825743D01*
X125056583Y-158674572D01*
X124652807Y-157225824D01*
X123974153Y-155883686D01*
X123780530Y-155593908D01*
X122901674Y-154777932D01*
X117679605Y-160000000D01*
X117320395Y-160000000D01*
X112098326Y-154777932D01*
X111219470Y-155593908D01*
X110480563Y-156903840D01*
X110011409Y-158332756D01*
X109830037Y-159825743D01*
X100143615Y-159825743D01*
X100056583Y-158674572D01*
X99652807Y-157225824D01*
X98974153Y-155883686D01*
X98780530Y-155593908D01*
X97901674Y-154777932D01*
X92679605Y-160000000D01*
X92320395Y-160000000D01*
X87098326Y-154777932D01*
X86219470Y-155593908D01*
X85480563Y-156903840D01*
X85011409Y-158332756D01*
X84830037Y-159825743D01*
X80660000Y-159825743D01*
X80660000Y-154598326D01*
X87277932Y-154598326D01*
X92500000Y-159820395D01*
X97722068Y-154598326D01*
X112277932Y-154598326D01*
X117500000Y-159820395D01*
X122722068Y-154598326D01*
X137277932Y-154598326D01*
X142500000Y-159820395D01*
X147722068Y-154598326D01*
X162277932Y-154598326D01*
X167500000Y-159820395D01*
X172722068Y-154598326D01*
X171906092Y-153719470D01*
X170596160Y-152980563D01*
X169167244Y-152511409D01*
X167674257Y-152330037D01*
X166174572Y-152443417D01*
X164725824Y-152847193D01*
X163383686Y-153525847D01*
X163093908Y-153719470D01*
X162277932Y-154598326D01*
X147722068Y-154598326D01*
X146906092Y-153719470D01*
X145596160Y-152980563D01*
X144167244Y-152511409D01*
X142674257Y-152330037D01*
X141174572Y-152443417D01*
X139725824Y-152847193D01*
X138383686Y-153525847D01*
X138093908Y-153719470D01*
X137277932Y-154598326D01*
X122722068Y-154598326D01*
X121906092Y-153719470D01*
X120596160Y-152980563D01*
X119167244Y-152511409D01*
X117674257Y-152330037D01*
X116174572Y-152443417D01*
X114725824Y-152847193D01*
X113383686Y-153525847D01*
X113093908Y-153719470D01*
X112277932Y-154598326D01*
X97722068Y-154598326D01*
X96906092Y-153719470D01*
X95596160Y-152980563D01*
X94167244Y-152511409D01*
X92674257Y-152330037D01*
X91174572Y-152443417D01*
X89725824Y-152847193D01*
X88383686Y-153525847D01*
X88093908Y-153719470D01*
X87277932Y-154598326D01*
X80660000Y-154598326D01*
X80660000Y-140401674D01*
X87277932Y-140401674D01*
X88093908Y-141280530D01*
X89403840Y-142019437D01*
X90832756Y-142488591D01*
X92325743Y-142669963D01*
X93825428Y-142556583D01*
X95274176Y-142152807D01*
X96616314Y-141474153D01*
X96906092Y-141280530D01*
X97722068Y-140401674D01*
X112277932Y-140401674D01*
X113093908Y-141280530D01*
X114403840Y-142019437D01*
X115832756Y-142488591D01*
X117325743Y-142669963D01*
X118825428Y-142556583D01*
X120274176Y-142152807D01*
X121616314Y-141474153D01*
X121906092Y-141280530D01*
X122722068Y-140401674D01*
X137277932Y-140401674D01*
X138093908Y-141280530D01*
X139403840Y-142019437D01*
X140832756Y-142488591D01*
X142325743Y-142669963D01*
X143825428Y-142556583D01*
X145274176Y-142152807D01*
X146616314Y-141474153D01*
X146906092Y-141280530D01*
X147722068Y-140401674D01*
X162277932Y-140401674D01*
X163093908Y-141280530D01*
X164403840Y-142019437D01*
X165832756Y-142488591D01*
X167325743Y-142669963D01*
X168825428Y-142556583D01*
X170274176Y-142152807D01*
X171616314Y-141474153D01*
X171906092Y-141280530D01*
X172722068Y-140401674D01*
X167500000Y-135179605D01*
X162277932Y-140401674D01*
X147722068Y-140401674D01*
X142500000Y-135179605D01*
X137277932Y-140401674D01*
X122722068Y-140401674D01*
X117500000Y-135179605D01*
X112277932Y-140401674D01*
X97722068Y-140401674D01*
X92500000Y-135179605D01*
X87277932Y-140401674D01*
X80660000Y-140401674D01*
X80660000Y-134825743D01*
X84830037Y-134825743D01*
X84943417Y-136325428D01*
X85347193Y-137774176D01*
X86025847Y-139116314D01*
X86219470Y-139406092D01*
X87098326Y-140222068D01*
X92320395Y-135000000D01*
X92679605Y-135000000D01*
X97901674Y-140222068D01*
X98780530Y-139406092D01*
X99519437Y-138096160D01*
X99988591Y-136667244D01*
X100169963Y-135174257D01*
X100143615Y-134825743D01*
X109830037Y-134825743D01*
X109943417Y-136325428D01*
X110347193Y-137774176D01*
X111025847Y-139116314D01*
X111219470Y-139406092D01*
X112098326Y-140222068D01*
X117320395Y-135000000D01*
X117679605Y-135000000D01*
X122901674Y-140222068D01*
X123780530Y-139406092D01*
X124519437Y-138096160D01*
X124988591Y-136667244D01*
X125169963Y-135174257D01*
X125143615Y-134825743D01*
X134830037Y-134825743D01*
X134943417Y-136325428D01*
X135347193Y-137774176D01*
X136025847Y-139116314D01*
X136219470Y-139406092D01*
X137098326Y-140222068D01*
X142320395Y-135000000D01*
X142679605Y-135000000D01*
X147901674Y-140222068D01*
X148780530Y-139406092D01*
X149519437Y-138096160D01*
X149988591Y-136667244D01*
X150169963Y-135174257D01*
X150143615Y-134825743D01*
X159830037Y-134825743D01*
X159943417Y-136325428D01*
X160347193Y-137774176D01*
X161025847Y-139116314D01*
X161219470Y-139406092D01*
X162098326Y-140222068D01*
X167320395Y-135000000D01*
X167679605Y-135000000D01*
X172901674Y-140222068D01*
X173780530Y-139406092D01*
X174519437Y-138096160D01*
X174988591Y-136667244D01*
X175169963Y-135174257D01*
X175056583Y-133674572D01*
X174652807Y-132225824D01*
X173974153Y-130883686D01*
X173780530Y-130593908D01*
X172901674Y-129777932D01*
X167679605Y-135000000D01*
X167320395Y-135000000D01*
X162098326Y-129777932D01*
X161219470Y-130593908D01*
X160480563Y-131903840D01*
X160011409Y-133332756D01*
X159830037Y-134825743D01*
X150143615Y-134825743D01*
X150056583Y-133674572D01*
X149652807Y-132225824D01*
X148974153Y-130883686D01*
X148780530Y-130593908D01*
X147901674Y-129777932D01*
X142679605Y-135000000D01*
X142320395Y-135000000D01*
X137098326Y-129777932D01*
X136219470Y-130593908D01*
X135480563Y-131903840D01*
X135011409Y-133332756D01*
X134830037Y-134825743D01*
X125143615Y-134825743D01*
X125056583Y-133674572D01*
X124652807Y-132225824D01*
X123974153Y-130883686D01*
X123780530Y-130593908D01*
X122901674Y-129777932D01*
X117679605Y-135000000D01*
X117320395Y-135000000D01*
X112098326Y-129777932D01*
X111219470Y-130593908D01*
X110480563Y-131903840D01*
X110011409Y-133332756D01*
X109830037Y-134825743D01*
X100143615Y-134825743D01*
X100056583Y-133674572D01*
X99652807Y-132225824D01*
X98974153Y-130883686D01*
X98780530Y-130593908D01*
X97901674Y-129777932D01*
X92679605Y-135000000D01*
X92320395Y-135000000D01*
X87098326Y-129777932D01*
X86219470Y-130593908D01*
X85480563Y-131903840D01*
X85011409Y-133332756D01*
X84830037Y-134825743D01*
X80660000Y-134825743D01*
X80660000Y-129598326D01*
X87277932Y-129598326D01*
X92500000Y-134820395D01*
X97722068Y-129598326D01*
X112277932Y-129598326D01*
X117500000Y-134820395D01*
X122722068Y-129598326D01*
X137277932Y-129598326D01*
X142500000Y-134820395D01*
X147722068Y-129598326D01*
X162277932Y-129598326D01*
X167500000Y-134820395D01*
X172722068Y-129598326D01*
X171906092Y-128719470D01*
X170596160Y-127980563D01*
X169167244Y-127511409D01*
X167674257Y-127330037D01*
X166174572Y-127443417D01*
X164725824Y-127847193D01*
X163383686Y-128525847D01*
X163093908Y-128719470D01*
X162277932Y-129598326D01*
X147722068Y-129598326D01*
X146906092Y-128719470D01*
X145596160Y-127980563D01*
X144167244Y-127511409D01*
X142674257Y-127330037D01*
X141174572Y-127443417D01*
X139725824Y-127847193D01*
X138383686Y-128525847D01*
X138093908Y-128719470D01*
X137277932Y-129598326D01*
X122722068Y-129598326D01*
X121906092Y-128719470D01*
X120596160Y-127980563D01*
X119167244Y-127511409D01*
X117674257Y-127330037D01*
X116174572Y-127443417D01*
X114725824Y-127847193D01*
X113383686Y-128525847D01*
X113093908Y-128719470D01*
X112277932Y-129598326D01*
X97722068Y-129598326D01*
X96906092Y-128719470D01*
X95596160Y-127980563D01*
X94167244Y-127511409D01*
X92674257Y-127330037D01*
X91174572Y-127443417D01*
X89725824Y-127847193D01*
X88383686Y-128525847D01*
X88093908Y-128719470D01*
X87277932Y-129598326D01*
X80660000Y-129598326D01*
X80660000Y-115401674D01*
X87277932Y-115401674D01*
X88093908Y-116280530D01*
X89403840Y-117019437D01*
X90832756Y-117488591D01*
X92325743Y-117669963D01*
X93825428Y-117556583D01*
X95274176Y-117152807D01*
X96616314Y-116474153D01*
X96906092Y-116280530D01*
X97722068Y-115401674D01*
X112277932Y-115401674D01*
X113093908Y-116280530D01*
X114403840Y-117019437D01*
X115832756Y-117488591D01*
X117325743Y-117669963D01*
X118825428Y-117556583D01*
X120274176Y-117152807D01*
X121616314Y-116474153D01*
X121906092Y-116280530D01*
X122722068Y-115401674D01*
X117500000Y-110179605D01*
X112277932Y-115401674D01*
X97722068Y-115401674D01*
X92500000Y-110179605D01*
X87277932Y-115401674D01*
X80660000Y-115401674D01*
X80660000Y-109825743D01*
X84830037Y-109825743D01*
X84943417Y-111325428D01*
X85347193Y-112774176D01*
X86025847Y-114116314D01*
X86219470Y-114406092D01*
X87098326Y-115222068D01*
X92320395Y-110000000D01*
X92679605Y-110000000D01*
X97901674Y-115222068D01*
X98780530Y-114406092D01*
X99519437Y-113096160D01*
X99988591Y-111667244D01*
X100169963Y-110174257D01*
X100143615Y-109825743D01*
X109830037Y-109825743D01*
X109943417Y-111325428D01*
X110347193Y-112774176D01*
X111025847Y-114116314D01*
X111219470Y-114406092D01*
X112098326Y-115222068D01*
X117320395Y-110000000D01*
X117679605Y-110000000D01*
X122901674Y-115222068D01*
X123780530Y-114406092D01*
X124221145Y-113624971D01*
X151554634Y-113624971D01*
X152070783Y-114247788D01*
X152955768Y-114737630D01*
X153919314Y-115045407D01*
X154924389Y-115159293D01*
X155932370Y-115074910D01*
X156904520Y-114795501D01*
X157803481Y-114331803D01*
X157929217Y-114247788D01*
X158445366Y-113624971D01*
X155000000Y-110179605D01*
X151554634Y-113624971D01*
X124221145Y-113624971D01*
X124519437Y-113096160D01*
X124988591Y-111667244D01*
X125169963Y-110174257D01*
X125151073Y-109924389D01*
X149840707Y-109924389D01*
X149925090Y-110932370D01*
X150204499Y-111904520D01*
X150668197Y-112803481D01*
X150752212Y-112929217D01*
X151375029Y-113445366D01*
X154820395Y-110000000D01*
X155179605Y-110000000D01*
X158624971Y-113445366D01*
X159247788Y-112929217D01*
X159737630Y-112044232D01*
X160045407Y-111080686D01*
X160159293Y-110075611D01*
X160074910Y-109067630D01*
X159795501Y-108095480D01*
X159331803Y-107196519D01*
X159247788Y-107070783D01*
X158624971Y-106554634D01*
X155179605Y-110000000D01*
X154820395Y-110000000D01*
X151375029Y-106554634D01*
X150752212Y-107070783D01*
X150262370Y-107955768D01*
X149954593Y-108919314D01*
X149840707Y-109924389D01*
X125151073Y-109924389D01*
X125056583Y-108674572D01*
X124652807Y-107225824D01*
X124222602Y-106375029D01*
X151554634Y-106375029D01*
X155000000Y-109820395D01*
X158445366Y-106375029D01*
X157929217Y-105752212D01*
X157044232Y-105262370D01*
X156080686Y-104954593D01*
X155075611Y-104840707D01*
X154067630Y-104925090D01*
X153095480Y-105204499D01*
X152196519Y-105668197D01*
X152070783Y-105752212D01*
X151554634Y-106375029D01*
X124222602Y-106375029D01*
X123974153Y-105883686D01*
X123780530Y-105593908D01*
X122901674Y-104777932D01*
X117679605Y-110000000D01*
X117320395Y-110000000D01*
X112098326Y-104777932D01*
X111219470Y-105593908D01*
X110480563Y-106903840D01*
X110011409Y-108332756D01*
X109830037Y-109825743D01*
X100143615Y-109825743D01*
X100056583Y-108674572D01*
X99652807Y-107225824D01*
X98974153Y-105883686D01*
X98780530Y-105593908D01*
X97901674Y-104777932D01*
X92679605Y-110000000D01*
X92320395Y-110000000D01*
X87098326Y-104777932D01*
X86219470Y-105593908D01*
X85480563Y-106903840D01*
X85011409Y-108332756D01*
X84830037Y-109825743D01*
X80660000Y-109825743D01*
X80660000Y-104598326D01*
X87277932Y-104598326D01*
X92500000Y-109820395D01*
X97722068Y-104598326D01*
X112277932Y-104598326D01*
X117500000Y-109820395D01*
X122722068Y-104598326D01*
X121906092Y-103719470D01*
X120596160Y-102980563D01*
X119167244Y-102511409D01*
X117674257Y-102330037D01*
X116174572Y-102443417D01*
X114725824Y-102847193D01*
X113383686Y-103525847D01*
X113093908Y-103719470D01*
X112277932Y-104598326D01*
X97722068Y-104598326D01*
X96906092Y-103719470D01*
X95596160Y-102980563D01*
X94167244Y-102511409D01*
X92674257Y-102330037D01*
X91174572Y-102443417D01*
X89725824Y-102847193D01*
X88383686Y-103525847D01*
X88093908Y-103719470D01*
X87277932Y-104598326D01*
X80660000Y-104598326D01*
X80660000Y-83624971D01*
X151554634Y-83624971D01*
X152070783Y-84247788D01*
X152955768Y-84737630D01*
X153919314Y-85045407D01*
X154924389Y-85159293D01*
X155932370Y-85074910D01*
X156904520Y-84795501D01*
X157803481Y-84331803D01*
X157929217Y-84247788D01*
X158445366Y-83624971D01*
X155000000Y-80179605D01*
X151554634Y-83624971D01*
X80660000Y-83624971D01*
X80660000Y-79924389D01*
X149840707Y-79924389D01*
X149925090Y-80932370D01*
X150204499Y-81904520D01*
X150668197Y-82803481D01*
X150752212Y-82929217D01*
X151375029Y-83445366D01*
X154820395Y-80000000D01*
X155179605Y-80000000D01*
X158624971Y-83445366D01*
X159247788Y-82929217D01*
X159737630Y-82044232D01*
X160045407Y-81080686D01*
X160159293Y-80075611D01*
X160074910Y-79067630D01*
X159795501Y-78095480D01*
X159331803Y-77196519D01*
X159247788Y-77070783D01*
X158624971Y-76554634D01*
X155179605Y-80000000D01*
X154820395Y-80000000D01*
X151375029Y-76554634D01*
X150752212Y-77070783D01*
X150262370Y-77955768D01*
X149954593Y-78919314D01*
X149840707Y-79924389D01*
X80660000Y-79924389D01*
X80660000Y-76375029D01*
X151554634Y-76375029D01*
X155000000Y-79820395D01*
X158445366Y-76375029D01*
X157929217Y-75752212D01*
X157044232Y-75262370D01*
X156080686Y-74954593D01*
X155075611Y-74840707D01*
X154067630Y-74925090D01*
X153095480Y-75204499D01*
X152196519Y-75668197D01*
X152070783Y-75752212D01*
X151554634Y-76375029D01*
X80660000Y-76375029D01*
X80660000Y-64124971D01*
X101554634Y-64124971D01*
X102070783Y-64747788D01*
X102955768Y-65237630D01*
X103919314Y-65545407D01*
X104924389Y-65659293D01*
X105932370Y-65574910D01*
X106904520Y-65295501D01*
X107803481Y-64831803D01*
X107929217Y-64747788D01*
X108445366Y-64124971D01*
X105000000Y-60679605D01*
X101554634Y-64124971D01*
X80660000Y-64124971D01*
X80660000Y-60424389D01*
X99840707Y-60424389D01*
X99925090Y-61432370D01*
X100204499Y-62404520D01*
X100668197Y-63303481D01*
X100752212Y-63429217D01*
X101375029Y-63945366D01*
X104820395Y-60500000D01*
X105179605Y-60500000D01*
X108624971Y-63945366D01*
X109247788Y-63429217D01*
X109737630Y-62544232D01*
X110045407Y-61580686D01*
X110159293Y-60575611D01*
X110074910Y-59567630D01*
X109795501Y-58595480D01*
X109331803Y-57696519D01*
X109247788Y-57570783D01*
X108624971Y-57054634D01*
X105179605Y-60500000D01*
X104820395Y-60500000D01*
X101375029Y-57054634D01*
X100752212Y-57570783D01*
X100262370Y-58455768D01*
X99954593Y-59419314D01*
X99840707Y-60424389D01*
X80660000Y-60424389D01*
X80660000Y-56875029D01*
X101554634Y-56875029D01*
X105000000Y-60320395D01*
X108445366Y-56875029D01*
X107929217Y-56252212D01*
X107044232Y-55762370D01*
X106080686Y-55454593D01*
X105075611Y-55340707D01*
X104067630Y-55425090D01*
X103095480Y-55704499D01*
X102196519Y-56168197D01*
X102070783Y-56252212D01*
X101554634Y-56875029D01*
X80660000Y-56875029D01*
X80660000Y-53624971D01*
X151554634Y-53624971D01*
X152070783Y-54247788D01*
X152955768Y-54737630D01*
X153919314Y-55045407D01*
X154924389Y-55159293D01*
X155932370Y-55074910D01*
X156904520Y-54795501D01*
X157803481Y-54331803D01*
X157929217Y-54247788D01*
X158445366Y-53624971D01*
X155000000Y-50179605D01*
X151554634Y-53624971D01*
X80660000Y-53624971D01*
X80660000Y-49924389D01*
X149840707Y-49924389D01*
X149925090Y-50932370D01*
X150204499Y-51904520D01*
X150668197Y-52803481D01*
X150752212Y-52929217D01*
X151375029Y-53445366D01*
X154820395Y-50000000D01*
X155179605Y-50000000D01*
X158624971Y-53445366D01*
X159247788Y-52929217D01*
X159737630Y-52044232D01*
X160045407Y-51080686D01*
X160159293Y-50075611D01*
X160074910Y-49067630D01*
X159795501Y-48095480D01*
X159331803Y-47196519D01*
X159247788Y-47070783D01*
X158624971Y-46554634D01*
X155179605Y-50000000D01*
X154820395Y-50000000D01*
X151375029Y-46554634D01*
X150752212Y-47070783D01*
X150262370Y-47955768D01*
X149954593Y-48919314D01*
X149840707Y-49924389D01*
X80660000Y-49924389D01*
X80660000Y-46375029D01*
X151554634Y-46375029D01*
X155000000Y-49820395D01*
X158445366Y-46375029D01*
X157929217Y-45752212D01*
X157044232Y-45262370D01*
X156080686Y-44954593D01*
X155075611Y-44840707D01*
X154067630Y-44925090D01*
X153095480Y-45204499D01*
X152196519Y-45668197D01*
X152070783Y-45752212D01*
X151554634Y-46375029D01*
X80660000Y-46375029D01*
X80660000Y-23624971D01*
X101554634Y-23624971D01*
X102070783Y-24247788D01*
X102955768Y-24737630D01*
X103919314Y-25045407D01*
X104924389Y-25159293D01*
X105932370Y-25074910D01*
X106904520Y-24795501D01*
X107803481Y-24331803D01*
X107929217Y-24247788D01*
X108445366Y-23624971D01*
X151554634Y-23624971D01*
X152070783Y-24247788D01*
X152955768Y-24737630D01*
X153919314Y-25045407D01*
X154924389Y-25159293D01*
X155932370Y-25074910D01*
X156904520Y-24795501D01*
X157803481Y-24331803D01*
X157929217Y-24247788D01*
X158445366Y-23624971D01*
X155000000Y-20179605D01*
X151554634Y-23624971D01*
X108445366Y-23624971D01*
X105000000Y-20179605D01*
X101554634Y-23624971D01*
X80660000Y-23624971D01*
X80660000Y-19924389D01*
X99840707Y-19924389D01*
X99925090Y-20932370D01*
X100204499Y-21904520D01*
X100668197Y-22803481D01*
X100752212Y-22929217D01*
X101375029Y-23445366D01*
X104820395Y-20000000D01*
X105179605Y-20000000D01*
X108624971Y-23445366D01*
X109247788Y-22929217D01*
X109737630Y-22044232D01*
X110045407Y-21080686D01*
X110159293Y-20075611D01*
X110146634Y-19924389D01*
X149840707Y-19924389D01*
X149925090Y-20932370D01*
X150204499Y-21904520D01*
X150668197Y-22803481D01*
X150752212Y-22929217D01*
X151375029Y-23445366D01*
X154820395Y-20000000D01*
X155179605Y-20000000D01*
X158624971Y-23445366D01*
X159247788Y-22929217D01*
X159737630Y-22044232D01*
X160045407Y-21080686D01*
X160159293Y-20075611D01*
X160074910Y-19067630D01*
X159795501Y-18095480D01*
X159331803Y-17196519D01*
X159247788Y-17070783D01*
X158624971Y-16554634D01*
X155179605Y-20000000D01*
X154820395Y-20000000D01*
X151375029Y-16554634D01*
X150752212Y-17070783D01*
X150262370Y-17955768D01*
X149954593Y-18919314D01*
X149840707Y-19924389D01*
X110146634Y-19924389D01*
X110074910Y-19067630D01*
X109795501Y-18095480D01*
X109331803Y-17196519D01*
X109247788Y-17070783D01*
X108624971Y-16554634D01*
X105179605Y-20000000D01*
X104820395Y-20000000D01*
X101375029Y-16554634D01*
X100752212Y-17070783D01*
X100262370Y-17955768D01*
X99954593Y-18919314D01*
X99840707Y-19924389D01*
X80660000Y-19924389D01*
X80660000Y-16375029D01*
X101554634Y-16375029D01*
X105000000Y-19820395D01*
X108445366Y-16375029D01*
X151554634Y-16375029D01*
X155000000Y-19820395D01*
X158445366Y-16375029D01*
X157929217Y-15752212D01*
X157044232Y-15262370D01*
X156080686Y-14954593D01*
X155075611Y-14840707D01*
X154067630Y-14925090D01*
X153095480Y-15204499D01*
X152196519Y-15668197D01*
X152070783Y-15752212D01*
X151554634Y-16375029D01*
X108445366Y-16375029D01*
X107929217Y-15752212D01*
X107044232Y-15262370D01*
X106080686Y-14954593D01*
X105075611Y-14840707D01*
X104067630Y-14925090D01*
X103095480Y-15204499D01*
X102196519Y-15668197D01*
X102070783Y-15752212D01*
X101554634Y-16375029D01*
X80660000Y-16375029D01*
X80660000Y10807286D01*
X80738519Y10641669D01*
X81046970Y10226576D01*
X81430475Y9879635D01*
X81874296Y9614178D01*
X82361377Y9440407D01*
X82873000Y9365000D01*
X84273000Y9365000D01*
X84273000Y11873000D01*
X84527000Y11873000D01*
X84527000Y9365000D01*
X85927000Y9365000D01*
X86438623Y9440407D01*
X86925704Y9614178D01*
X87369525Y9879635D01*
X87753030Y10226576D01*
X88061481Y10641669D01*
X88283025Y11108962D01*
X88379667Y11462838D01*
X171620333Y11462838D01*
X171716975Y11108962D01*
X171938519Y10641669D01*
X172246970Y10226576D01*
X172630475Y9879635D01*
X173074296Y9614178D01*
X173561377Y9440407D01*
X174073000Y9365000D01*
X175473000Y9365000D01*
X175473000Y11873000D01*
X171727009Y11873000D01*
X171620333Y11462838D01*
X88379667Y11462838D01*
X88272991Y11873000D01*
X84527000Y11873000D01*
X84273000Y11873000D01*
X84253000Y11873000D01*
X84253000Y12127000D01*
X84273000Y12127000D01*
X84273000Y12147000D01*
X84527000Y12147000D01*
X84527000Y12127000D01*
X88272991Y12127000D01*
X88379667Y12537162D01*
X88283025Y12891038D01*
X88061481Y13358331D01*
X87753030Y13773424D01*
X87369525Y14120365D01*
X87002314Y14340000D01*
X172997686Y14340000D01*
X172630475Y14120365D01*
%TA.AperFunction,Conductor*%
D14*
G36*
X172630475Y14120365D02*
G01*
X172246970Y13773424D01*
X171938519Y13358331D01*
X171716975Y12891038D01*
X171620333Y12537162D01*
X171727009Y12127000D01*
X175473000Y12127000D01*
X175473000Y12147000D01*
X175727000Y12147000D01*
X175727000Y12127000D01*
X175747000Y12127000D01*
X175747000Y11873000D01*
X175727000Y11873000D01*
X175727000Y9365000D01*
X177127000Y9365000D01*
X177638623Y9440407D01*
X178125704Y9614178D01*
X178569525Y9879635D01*
X178953030Y10226576D01*
X179261481Y10641669D01*
X179340000Y10807286D01*
X179340001Y-180807288D01*
X179261481Y-180641669D01*
X178953030Y-180226576D01*
X178569525Y-179879635D01*
X178125704Y-179614178D01*
X177638623Y-179440407D01*
X177127000Y-179365000D01*
X175727000Y-179365000D01*
X175727000Y-181873000D01*
X175747000Y-181873000D01*
X175747000Y-182127000D01*
X175727000Y-182127000D01*
X175727000Y-182147000D01*
X175473000Y-182147000D01*
X175473000Y-182127000D01*
X171727009Y-182127000D01*
X171620333Y-182537162D01*
X171716975Y-182891038D01*
X171938519Y-183358331D01*
X172246970Y-183773424D01*
X172630475Y-184120365D01*
X172997686Y-184340000D01*
X87002314Y-184340000D01*
X87369525Y-184120365D01*
X87753030Y-183773424D01*
X88061481Y-183358331D01*
X88283025Y-182891038D01*
X88379667Y-182537162D01*
X88272991Y-182127000D01*
X84527000Y-182127000D01*
X84527000Y-182147000D01*
X84273000Y-182147000D01*
X84273000Y-182127000D01*
X84253000Y-182127000D01*
X84253000Y-181873000D01*
X84273000Y-181873000D01*
X84273000Y-179365000D01*
X84527000Y-179365000D01*
X84527000Y-181873000D01*
X88272991Y-181873000D01*
X88379667Y-181462838D01*
X171620333Y-181462838D01*
X171727009Y-181873000D01*
X175473000Y-181873000D01*
X175473000Y-179365000D01*
X174073000Y-179365000D01*
X173561377Y-179440407D01*
X173074296Y-179614178D01*
X172630475Y-179879635D01*
X172246970Y-180226576D01*
X171938519Y-180641669D01*
X171716975Y-181108962D01*
X171620333Y-181462838D01*
X88379667Y-181462838D01*
X88283025Y-181108962D01*
X88061481Y-180641669D01*
X87753030Y-180226576D01*
X87369525Y-179879635D01*
X86925704Y-179614178D01*
X86438623Y-179440407D01*
X85927000Y-179365000D01*
X84527000Y-179365000D01*
X84273000Y-179365000D01*
X82873000Y-179365000D01*
X82361377Y-179440407D01*
X81874296Y-179614178D01*
X81430475Y-179879635D01*
X81046970Y-180226576D01*
X80738519Y-180641669D01*
X80660000Y-180807286D01*
X80660000Y-165401674D01*
X87277932Y-165401674D01*
X88093908Y-166280530D01*
X89403840Y-167019437D01*
X90832756Y-167488591D01*
X92325743Y-167669963D01*
X93825428Y-167556583D01*
X95274176Y-167152807D01*
X96616314Y-166474153D01*
X96906092Y-166280530D01*
X97722068Y-165401674D01*
X112277932Y-165401674D01*
X113093908Y-166280530D01*
X114403840Y-167019437D01*
X115832756Y-167488591D01*
X117325743Y-167669963D01*
X118825428Y-167556583D01*
X120274176Y-167152807D01*
X121616314Y-166474153D01*
X121906092Y-166280530D01*
X122722068Y-165401674D01*
X137277932Y-165401674D01*
X138093908Y-166280530D01*
X139403840Y-167019437D01*
X140832756Y-167488591D01*
X142325743Y-167669963D01*
X143825428Y-167556583D01*
X145274176Y-167152807D01*
X146616314Y-166474153D01*
X146906092Y-166280530D01*
X147722068Y-165401674D01*
X162277932Y-165401674D01*
X163093908Y-166280530D01*
X164403840Y-167019437D01*
X165832756Y-167488591D01*
X167325743Y-167669963D01*
X168825428Y-167556583D01*
X170274176Y-167152807D01*
X171616314Y-166474153D01*
X171906092Y-166280530D01*
X172722068Y-165401674D01*
X167500000Y-160179605D01*
X162277932Y-165401674D01*
X147722068Y-165401674D01*
X142500000Y-160179605D01*
X137277932Y-165401674D01*
X122722068Y-165401674D01*
X117500000Y-160179605D01*
X112277932Y-165401674D01*
X97722068Y-165401674D01*
X92500000Y-160179605D01*
X87277932Y-165401674D01*
X80660000Y-165401674D01*
X80660000Y-159825743D01*
X84830037Y-159825743D01*
X84943417Y-161325428D01*
X85347193Y-162774176D01*
X86025847Y-164116314D01*
X86219470Y-164406092D01*
X87098326Y-165222068D01*
X92320395Y-160000000D01*
X92679605Y-160000000D01*
X97901674Y-165222068D01*
X98780530Y-164406092D01*
X99519437Y-163096160D01*
X99988591Y-161667244D01*
X100169963Y-160174257D01*
X100143615Y-159825743D01*
X109830037Y-159825743D01*
X109943417Y-161325428D01*
X110347193Y-162774176D01*
X111025847Y-164116314D01*
X111219470Y-164406092D01*
X112098326Y-165222068D01*
X117320395Y-160000000D01*
X117679605Y-160000000D01*
X122901674Y-165222068D01*
X123780530Y-164406092D01*
X124519437Y-163096160D01*
X124988591Y-161667244D01*
X125169963Y-160174257D01*
X125143615Y-159825743D01*
X134830037Y-159825743D01*
X134943417Y-161325428D01*
X135347193Y-162774176D01*
X136025847Y-164116314D01*
X136219470Y-164406092D01*
X137098326Y-165222068D01*
X142320395Y-160000000D01*
X142679605Y-160000000D01*
X147901674Y-165222068D01*
X148780530Y-164406092D01*
X149519437Y-163096160D01*
X149988591Y-161667244D01*
X150169963Y-160174257D01*
X150143615Y-159825743D01*
X159830037Y-159825743D01*
X159943417Y-161325428D01*
X160347193Y-162774176D01*
X161025847Y-164116314D01*
X161219470Y-164406092D01*
X162098326Y-165222068D01*
X167320395Y-160000000D01*
X167679605Y-160000000D01*
X172901674Y-165222068D01*
X173780530Y-164406092D01*
X174519437Y-163096160D01*
X174988591Y-161667244D01*
X175169963Y-160174257D01*
X175056583Y-158674572D01*
X174652807Y-157225824D01*
X173974153Y-155883686D01*
X173780530Y-155593908D01*
X172901674Y-154777932D01*
X167679605Y-160000000D01*
X167320395Y-160000000D01*
X162098326Y-154777932D01*
X161219470Y-155593908D01*
X160480563Y-156903840D01*
X160011409Y-158332756D01*
X159830037Y-159825743D01*
X150143615Y-159825743D01*
X150056583Y-158674572D01*
X149652807Y-157225824D01*
X148974153Y-155883686D01*
X148780530Y-155593908D01*
X147901674Y-154777932D01*
X142679605Y-160000000D01*
X142320395Y-160000000D01*
X137098326Y-154777932D01*
X136219470Y-155593908D01*
X135480563Y-156903840D01*
X135011409Y-158332756D01*
X134830037Y-159825743D01*
X125143615Y-159825743D01*
X125056583Y-158674572D01*
X124652807Y-157225824D01*
X123974153Y-155883686D01*
X123780530Y-155593908D01*
X122901674Y-154777932D01*
X117679605Y-160000000D01*
X117320395Y-160000000D01*
X112098326Y-154777932D01*
X111219470Y-155593908D01*
X110480563Y-156903840D01*
X110011409Y-158332756D01*
X109830037Y-159825743D01*
X100143615Y-159825743D01*
X100056583Y-158674572D01*
X99652807Y-157225824D01*
X98974153Y-155883686D01*
X98780530Y-155593908D01*
X97901674Y-154777932D01*
X92679605Y-160000000D01*
X92320395Y-160000000D01*
X87098326Y-154777932D01*
X86219470Y-155593908D01*
X85480563Y-156903840D01*
X85011409Y-158332756D01*
X84830037Y-159825743D01*
X80660000Y-159825743D01*
X80660000Y-154598326D01*
X87277932Y-154598326D01*
X92500000Y-159820395D01*
X97722068Y-154598326D01*
X112277932Y-154598326D01*
X117500000Y-159820395D01*
X122722068Y-154598326D01*
X137277932Y-154598326D01*
X142500000Y-159820395D01*
X147722068Y-154598326D01*
X162277932Y-154598326D01*
X167500000Y-159820395D01*
X172722068Y-154598326D01*
X171906092Y-153719470D01*
X170596160Y-152980563D01*
X169167244Y-152511409D01*
X167674257Y-152330037D01*
X166174572Y-152443417D01*
X164725824Y-152847193D01*
X163383686Y-153525847D01*
X163093908Y-153719470D01*
X162277932Y-154598326D01*
X147722068Y-154598326D01*
X146906092Y-153719470D01*
X145596160Y-152980563D01*
X144167244Y-152511409D01*
X142674257Y-152330037D01*
X141174572Y-152443417D01*
X139725824Y-152847193D01*
X138383686Y-153525847D01*
X138093908Y-153719470D01*
X137277932Y-154598326D01*
X122722068Y-154598326D01*
X121906092Y-153719470D01*
X120596160Y-152980563D01*
X119167244Y-152511409D01*
X117674257Y-152330037D01*
X116174572Y-152443417D01*
X114725824Y-152847193D01*
X113383686Y-153525847D01*
X113093908Y-153719470D01*
X112277932Y-154598326D01*
X97722068Y-154598326D01*
X96906092Y-153719470D01*
X95596160Y-152980563D01*
X94167244Y-152511409D01*
X92674257Y-152330037D01*
X91174572Y-152443417D01*
X89725824Y-152847193D01*
X88383686Y-153525847D01*
X88093908Y-153719470D01*
X87277932Y-154598326D01*
X80660000Y-154598326D01*
X80660000Y-140401674D01*
X87277932Y-140401674D01*
X88093908Y-141280530D01*
X89403840Y-142019437D01*
X90832756Y-142488591D01*
X92325743Y-142669963D01*
X93825428Y-142556583D01*
X95274176Y-142152807D01*
X96616314Y-141474153D01*
X96906092Y-141280530D01*
X97722068Y-140401674D01*
X112277932Y-140401674D01*
X113093908Y-141280530D01*
X114403840Y-142019437D01*
X115832756Y-142488591D01*
X117325743Y-142669963D01*
X118825428Y-142556583D01*
X120274176Y-142152807D01*
X121616314Y-141474153D01*
X121906092Y-141280530D01*
X122722068Y-140401674D01*
X137277932Y-140401674D01*
X138093908Y-141280530D01*
X139403840Y-142019437D01*
X140832756Y-142488591D01*
X142325743Y-142669963D01*
X143825428Y-142556583D01*
X145274176Y-142152807D01*
X146616314Y-141474153D01*
X146906092Y-141280530D01*
X147722068Y-140401674D01*
X162277932Y-140401674D01*
X163093908Y-141280530D01*
X164403840Y-142019437D01*
X165832756Y-142488591D01*
X167325743Y-142669963D01*
X168825428Y-142556583D01*
X170274176Y-142152807D01*
X171616314Y-141474153D01*
X171906092Y-141280530D01*
X172722068Y-140401674D01*
X167500000Y-135179605D01*
X162277932Y-140401674D01*
X147722068Y-140401674D01*
X142500000Y-135179605D01*
X137277932Y-140401674D01*
X122722068Y-140401674D01*
X117500000Y-135179605D01*
X112277932Y-140401674D01*
X97722068Y-140401674D01*
X92500000Y-135179605D01*
X87277932Y-140401674D01*
X80660000Y-140401674D01*
X80660000Y-134825743D01*
X84830037Y-134825743D01*
X84943417Y-136325428D01*
X85347193Y-137774176D01*
X86025847Y-139116314D01*
X86219470Y-139406092D01*
X87098326Y-140222068D01*
X92320395Y-135000000D01*
X92679605Y-135000000D01*
X97901674Y-140222068D01*
X98780530Y-139406092D01*
X99519437Y-138096160D01*
X99988591Y-136667244D01*
X100169963Y-135174257D01*
X100143615Y-134825743D01*
X109830037Y-134825743D01*
X109943417Y-136325428D01*
X110347193Y-137774176D01*
X111025847Y-139116314D01*
X111219470Y-139406092D01*
X112098326Y-140222068D01*
X117320395Y-135000000D01*
X117679605Y-135000000D01*
X122901674Y-140222068D01*
X123780530Y-139406092D01*
X124519437Y-138096160D01*
X124988591Y-136667244D01*
X125169963Y-135174257D01*
X125143615Y-134825743D01*
X134830037Y-134825743D01*
X134943417Y-136325428D01*
X135347193Y-137774176D01*
X136025847Y-139116314D01*
X136219470Y-139406092D01*
X137098326Y-140222068D01*
X142320395Y-135000000D01*
X142679605Y-135000000D01*
X147901674Y-140222068D01*
X148780530Y-139406092D01*
X149519437Y-138096160D01*
X149988591Y-136667244D01*
X150169963Y-135174257D01*
X150143615Y-134825743D01*
X159830037Y-134825743D01*
X159943417Y-136325428D01*
X160347193Y-137774176D01*
X161025847Y-139116314D01*
X161219470Y-139406092D01*
X162098326Y-140222068D01*
X167320395Y-135000000D01*
X167679605Y-135000000D01*
X172901674Y-140222068D01*
X173780530Y-139406092D01*
X174519437Y-138096160D01*
X174988591Y-136667244D01*
X175169963Y-135174257D01*
X175056583Y-133674572D01*
X174652807Y-132225824D01*
X173974153Y-130883686D01*
X173780530Y-130593908D01*
X172901674Y-129777932D01*
X167679605Y-135000000D01*
X167320395Y-135000000D01*
X162098326Y-129777932D01*
X161219470Y-130593908D01*
X160480563Y-131903840D01*
X160011409Y-133332756D01*
X159830037Y-134825743D01*
X150143615Y-134825743D01*
X150056583Y-133674572D01*
X149652807Y-132225824D01*
X148974153Y-130883686D01*
X148780530Y-130593908D01*
X147901674Y-129777932D01*
X142679605Y-135000000D01*
X142320395Y-135000000D01*
X137098326Y-129777932D01*
X136219470Y-130593908D01*
X135480563Y-131903840D01*
X135011409Y-133332756D01*
X134830037Y-134825743D01*
X125143615Y-134825743D01*
X125056583Y-133674572D01*
X124652807Y-132225824D01*
X123974153Y-130883686D01*
X123780530Y-130593908D01*
X122901674Y-129777932D01*
X117679605Y-135000000D01*
X117320395Y-135000000D01*
X112098326Y-129777932D01*
X111219470Y-130593908D01*
X110480563Y-131903840D01*
X110011409Y-133332756D01*
X109830037Y-134825743D01*
X100143615Y-134825743D01*
X100056583Y-133674572D01*
X99652807Y-132225824D01*
X98974153Y-130883686D01*
X98780530Y-130593908D01*
X97901674Y-129777932D01*
X92679605Y-135000000D01*
X92320395Y-135000000D01*
X87098326Y-129777932D01*
X86219470Y-130593908D01*
X85480563Y-131903840D01*
X85011409Y-133332756D01*
X84830037Y-134825743D01*
X80660000Y-134825743D01*
X80660000Y-129598326D01*
X87277932Y-129598326D01*
X92500000Y-134820395D01*
X97722068Y-129598326D01*
X112277932Y-129598326D01*
X117500000Y-134820395D01*
X122722068Y-129598326D01*
X137277932Y-129598326D01*
X142500000Y-134820395D01*
X147722068Y-129598326D01*
X162277932Y-129598326D01*
X167500000Y-134820395D01*
X172722068Y-129598326D01*
X171906092Y-128719470D01*
X170596160Y-127980563D01*
X169167244Y-127511409D01*
X167674257Y-127330037D01*
X166174572Y-127443417D01*
X164725824Y-127847193D01*
X163383686Y-128525847D01*
X163093908Y-128719470D01*
X162277932Y-129598326D01*
X147722068Y-129598326D01*
X146906092Y-128719470D01*
X145596160Y-127980563D01*
X144167244Y-127511409D01*
X142674257Y-127330037D01*
X141174572Y-127443417D01*
X139725824Y-127847193D01*
X138383686Y-128525847D01*
X138093908Y-128719470D01*
X137277932Y-129598326D01*
X122722068Y-129598326D01*
X121906092Y-128719470D01*
X120596160Y-127980563D01*
X119167244Y-127511409D01*
X117674257Y-127330037D01*
X116174572Y-127443417D01*
X114725824Y-127847193D01*
X113383686Y-128525847D01*
X113093908Y-128719470D01*
X112277932Y-129598326D01*
X97722068Y-129598326D01*
X96906092Y-128719470D01*
X95596160Y-127980563D01*
X94167244Y-127511409D01*
X92674257Y-127330037D01*
X91174572Y-127443417D01*
X89725824Y-127847193D01*
X88383686Y-128525847D01*
X88093908Y-128719470D01*
X87277932Y-129598326D01*
X80660000Y-129598326D01*
X80660000Y-115401674D01*
X87277932Y-115401674D01*
X88093908Y-116280530D01*
X89403840Y-117019437D01*
X90832756Y-117488591D01*
X92325743Y-117669963D01*
X93825428Y-117556583D01*
X95274176Y-117152807D01*
X96616314Y-116474153D01*
X96906092Y-116280530D01*
X97722068Y-115401674D01*
X112277932Y-115401674D01*
X113093908Y-116280530D01*
X114403840Y-117019437D01*
X115832756Y-117488591D01*
X117325743Y-117669963D01*
X118825428Y-117556583D01*
X120274176Y-117152807D01*
X121616314Y-116474153D01*
X121906092Y-116280530D01*
X122722068Y-115401674D01*
X117500000Y-110179605D01*
X112277932Y-115401674D01*
X97722068Y-115401674D01*
X92500000Y-110179605D01*
X87277932Y-115401674D01*
X80660000Y-115401674D01*
X80660000Y-109825743D01*
X84830037Y-109825743D01*
X84943417Y-111325428D01*
X85347193Y-112774176D01*
X86025847Y-114116314D01*
X86219470Y-114406092D01*
X87098326Y-115222068D01*
X92320395Y-110000000D01*
X92679605Y-110000000D01*
X97901674Y-115222068D01*
X98780530Y-114406092D01*
X99519437Y-113096160D01*
X99988591Y-111667244D01*
X100169963Y-110174257D01*
X100143615Y-109825743D01*
X109830037Y-109825743D01*
X109943417Y-111325428D01*
X110347193Y-112774176D01*
X111025847Y-114116314D01*
X111219470Y-114406092D01*
X112098326Y-115222068D01*
X117320395Y-110000000D01*
X117679605Y-110000000D01*
X122901674Y-115222068D01*
X123780530Y-114406092D01*
X124221145Y-113624971D01*
X151554634Y-113624971D01*
X152070783Y-114247788D01*
X152955768Y-114737630D01*
X153919314Y-115045407D01*
X154924389Y-115159293D01*
X155932370Y-115074910D01*
X156904520Y-114795501D01*
X157803481Y-114331803D01*
X157929217Y-114247788D01*
X158445366Y-113624971D01*
X155000000Y-110179605D01*
X151554634Y-113624971D01*
X124221145Y-113624971D01*
X124519437Y-113096160D01*
X124988591Y-111667244D01*
X125169963Y-110174257D01*
X125151073Y-109924389D01*
X149840707Y-109924389D01*
X149925090Y-110932370D01*
X150204499Y-111904520D01*
X150668197Y-112803481D01*
X150752212Y-112929217D01*
X151375029Y-113445366D01*
X154820395Y-110000000D01*
X155179605Y-110000000D01*
X158624971Y-113445366D01*
X159247788Y-112929217D01*
X159737630Y-112044232D01*
X160045407Y-111080686D01*
X160159293Y-110075611D01*
X160074910Y-109067630D01*
X159795501Y-108095480D01*
X159331803Y-107196519D01*
X159247788Y-107070783D01*
X158624971Y-106554634D01*
X155179605Y-110000000D01*
X154820395Y-110000000D01*
X151375029Y-106554634D01*
X150752212Y-107070783D01*
X150262370Y-107955768D01*
X149954593Y-108919314D01*
X149840707Y-109924389D01*
X125151073Y-109924389D01*
X125056583Y-108674572D01*
X124652807Y-107225824D01*
X124222602Y-106375029D01*
X151554634Y-106375029D01*
X155000000Y-109820395D01*
X158445366Y-106375029D01*
X157929217Y-105752212D01*
X157044232Y-105262370D01*
X156080686Y-104954593D01*
X155075611Y-104840707D01*
X154067630Y-104925090D01*
X153095480Y-105204499D01*
X152196519Y-105668197D01*
X152070783Y-105752212D01*
X151554634Y-106375029D01*
X124222602Y-106375029D01*
X123974153Y-105883686D01*
X123780530Y-105593908D01*
X122901674Y-104777932D01*
X117679605Y-110000000D01*
X117320395Y-110000000D01*
X112098326Y-104777932D01*
X111219470Y-105593908D01*
X110480563Y-106903840D01*
X110011409Y-108332756D01*
X109830037Y-109825743D01*
X100143615Y-109825743D01*
X100056583Y-108674572D01*
X99652807Y-107225824D01*
X98974153Y-105883686D01*
X98780530Y-105593908D01*
X97901674Y-104777932D01*
X92679605Y-110000000D01*
X92320395Y-110000000D01*
X87098326Y-104777932D01*
X86219470Y-105593908D01*
X85480563Y-106903840D01*
X85011409Y-108332756D01*
X84830037Y-109825743D01*
X80660000Y-109825743D01*
X80660000Y-104598326D01*
X87277932Y-104598326D01*
X92500000Y-109820395D01*
X97722068Y-104598326D01*
X112277932Y-104598326D01*
X117500000Y-109820395D01*
X122722068Y-104598326D01*
X121906092Y-103719470D01*
X120596160Y-102980563D01*
X119167244Y-102511409D01*
X117674257Y-102330037D01*
X116174572Y-102443417D01*
X114725824Y-102847193D01*
X113383686Y-103525847D01*
X113093908Y-103719470D01*
X112277932Y-104598326D01*
X97722068Y-104598326D01*
X96906092Y-103719470D01*
X95596160Y-102980563D01*
X94167244Y-102511409D01*
X92674257Y-102330037D01*
X91174572Y-102443417D01*
X89725824Y-102847193D01*
X88383686Y-103525847D01*
X88093908Y-103719470D01*
X87277932Y-104598326D01*
X80660000Y-104598326D01*
X80660000Y-83624971D01*
X151554634Y-83624971D01*
X152070783Y-84247788D01*
X152955768Y-84737630D01*
X153919314Y-85045407D01*
X154924389Y-85159293D01*
X155932370Y-85074910D01*
X156904520Y-84795501D01*
X157803481Y-84331803D01*
X157929217Y-84247788D01*
X158445366Y-83624971D01*
X155000000Y-80179605D01*
X151554634Y-83624971D01*
X80660000Y-83624971D01*
X80660000Y-79924389D01*
X149840707Y-79924389D01*
X149925090Y-80932370D01*
X150204499Y-81904520D01*
X150668197Y-82803481D01*
X150752212Y-82929217D01*
X151375029Y-83445366D01*
X154820395Y-80000000D01*
X155179605Y-80000000D01*
X158624971Y-83445366D01*
X159247788Y-82929217D01*
X159737630Y-82044232D01*
X160045407Y-81080686D01*
X160159293Y-80075611D01*
X160074910Y-79067630D01*
X159795501Y-78095480D01*
X159331803Y-77196519D01*
X159247788Y-77070783D01*
X158624971Y-76554634D01*
X155179605Y-80000000D01*
X154820395Y-80000000D01*
X151375029Y-76554634D01*
X150752212Y-77070783D01*
X150262370Y-77955768D01*
X149954593Y-78919314D01*
X149840707Y-79924389D01*
X80660000Y-79924389D01*
X80660000Y-76375029D01*
X151554634Y-76375029D01*
X155000000Y-79820395D01*
X158445366Y-76375029D01*
X157929217Y-75752212D01*
X157044232Y-75262370D01*
X156080686Y-74954593D01*
X155075611Y-74840707D01*
X154067630Y-74925090D01*
X153095480Y-75204499D01*
X152196519Y-75668197D01*
X152070783Y-75752212D01*
X151554634Y-76375029D01*
X80660000Y-76375029D01*
X80660000Y-64124971D01*
X101554634Y-64124971D01*
X102070783Y-64747788D01*
X102955768Y-65237630D01*
X103919314Y-65545407D01*
X104924389Y-65659293D01*
X105932370Y-65574910D01*
X106904520Y-65295501D01*
X107803481Y-64831803D01*
X107929217Y-64747788D01*
X108445366Y-64124971D01*
X105000000Y-60679605D01*
X101554634Y-64124971D01*
X80660000Y-64124971D01*
X80660000Y-60424389D01*
X99840707Y-60424389D01*
X99925090Y-61432370D01*
X100204499Y-62404520D01*
X100668197Y-63303481D01*
X100752212Y-63429217D01*
X101375029Y-63945366D01*
X104820395Y-60500000D01*
X105179605Y-60500000D01*
X108624971Y-63945366D01*
X109247788Y-63429217D01*
X109737630Y-62544232D01*
X110045407Y-61580686D01*
X110159293Y-60575611D01*
X110074910Y-59567630D01*
X109795501Y-58595480D01*
X109331803Y-57696519D01*
X109247788Y-57570783D01*
X108624971Y-57054634D01*
X105179605Y-60500000D01*
X104820395Y-60500000D01*
X101375029Y-57054634D01*
X100752212Y-57570783D01*
X100262370Y-58455768D01*
X99954593Y-59419314D01*
X99840707Y-60424389D01*
X80660000Y-60424389D01*
X80660000Y-56875029D01*
X101554634Y-56875029D01*
X105000000Y-60320395D01*
X108445366Y-56875029D01*
X107929217Y-56252212D01*
X107044232Y-55762370D01*
X106080686Y-55454593D01*
X105075611Y-55340707D01*
X104067630Y-55425090D01*
X103095480Y-55704499D01*
X102196519Y-56168197D01*
X102070783Y-56252212D01*
X101554634Y-56875029D01*
X80660000Y-56875029D01*
X80660000Y-53624971D01*
X151554634Y-53624971D01*
X152070783Y-54247788D01*
X152955768Y-54737630D01*
X153919314Y-55045407D01*
X154924389Y-55159293D01*
X155932370Y-55074910D01*
X156904520Y-54795501D01*
X157803481Y-54331803D01*
X157929217Y-54247788D01*
X158445366Y-53624971D01*
X155000000Y-50179605D01*
X151554634Y-53624971D01*
X80660000Y-53624971D01*
X80660000Y-49924389D01*
X149840707Y-49924389D01*
X149925090Y-50932370D01*
X150204499Y-51904520D01*
X150668197Y-52803481D01*
X150752212Y-52929217D01*
X151375029Y-53445366D01*
X154820395Y-50000000D01*
X155179605Y-50000000D01*
X158624971Y-53445366D01*
X159247788Y-52929217D01*
X159737630Y-52044232D01*
X160045407Y-51080686D01*
X160159293Y-50075611D01*
X160074910Y-49067630D01*
X159795501Y-48095480D01*
X159331803Y-47196519D01*
X159247788Y-47070783D01*
X158624971Y-46554634D01*
X155179605Y-50000000D01*
X154820395Y-50000000D01*
X151375029Y-46554634D01*
X150752212Y-47070783D01*
X150262370Y-47955768D01*
X149954593Y-48919314D01*
X149840707Y-49924389D01*
X80660000Y-49924389D01*
X80660000Y-46375029D01*
X151554634Y-46375029D01*
X155000000Y-49820395D01*
X158445366Y-46375029D01*
X157929217Y-45752212D01*
X157044232Y-45262370D01*
X156080686Y-44954593D01*
X155075611Y-44840707D01*
X154067630Y-44925090D01*
X153095480Y-45204499D01*
X152196519Y-45668197D01*
X152070783Y-45752212D01*
X151554634Y-46375029D01*
X80660000Y-46375029D01*
X80660000Y-23624971D01*
X101554634Y-23624971D01*
X102070783Y-24247788D01*
X102955768Y-24737630D01*
X103919314Y-25045407D01*
X104924389Y-25159293D01*
X105932370Y-25074910D01*
X106904520Y-24795501D01*
X107803481Y-24331803D01*
X107929217Y-24247788D01*
X108445366Y-23624971D01*
X151554634Y-23624971D01*
X152070783Y-24247788D01*
X152955768Y-24737630D01*
X153919314Y-25045407D01*
X154924389Y-25159293D01*
X155932370Y-25074910D01*
X156904520Y-24795501D01*
X157803481Y-24331803D01*
X157929217Y-24247788D01*
X158445366Y-23624971D01*
X155000000Y-20179605D01*
X151554634Y-23624971D01*
X108445366Y-23624971D01*
X105000000Y-20179605D01*
X101554634Y-23624971D01*
X80660000Y-23624971D01*
X80660000Y-19924389D01*
X99840707Y-19924389D01*
X99925090Y-20932370D01*
X100204499Y-21904520D01*
X100668197Y-22803481D01*
X100752212Y-22929217D01*
X101375029Y-23445366D01*
X104820395Y-20000000D01*
X105179605Y-20000000D01*
X108624971Y-23445366D01*
X109247788Y-22929217D01*
X109737630Y-22044232D01*
X110045407Y-21080686D01*
X110159293Y-20075611D01*
X110146634Y-19924389D01*
X149840707Y-19924389D01*
X149925090Y-20932370D01*
X150204499Y-21904520D01*
X150668197Y-22803481D01*
X150752212Y-22929217D01*
X151375029Y-23445366D01*
X154820395Y-20000000D01*
X155179605Y-20000000D01*
X158624971Y-23445366D01*
X159247788Y-22929217D01*
X159737630Y-22044232D01*
X160045407Y-21080686D01*
X160159293Y-20075611D01*
X160074910Y-19067630D01*
X159795501Y-18095480D01*
X159331803Y-17196519D01*
X159247788Y-17070783D01*
X158624971Y-16554634D01*
X155179605Y-20000000D01*
X154820395Y-20000000D01*
X151375029Y-16554634D01*
X150752212Y-17070783D01*
X150262370Y-17955768D01*
X149954593Y-18919314D01*
X149840707Y-19924389D01*
X110146634Y-19924389D01*
X110074910Y-19067630D01*
X109795501Y-18095480D01*
X109331803Y-17196519D01*
X109247788Y-17070783D01*
X108624971Y-16554634D01*
X105179605Y-20000000D01*
X104820395Y-20000000D01*
X101375029Y-16554634D01*
X100752212Y-17070783D01*
X100262370Y-17955768D01*
X99954593Y-18919314D01*
X99840707Y-19924389D01*
X80660000Y-19924389D01*
X80660000Y-16375029D01*
X101554634Y-16375029D01*
X105000000Y-19820395D01*
X108445366Y-16375029D01*
X151554634Y-16375029D01*
X155000000Y-19820395D01*
X158445366Y-16375029D01*
X157929217Y-15752212D01*
X157044232Y-15262370D01*
X156080686Y-14954593D01*
X155075611Y-14840707D01*
X154067630Y-14925090D01*
X153095480Y-15204499D01*
X152196519Y-15668197D01*
X152070783Y-15752212D01*
X151554634Y-16375029D01*
X108445366Y-16375029D01*
X107929217Y-15752212D01*
X107044232Y-15262370D01*
X106080686Y-14954593D01*
X105075611Y-14840707D01*
X104067630Y-14925090D01*
X103095480Y-15204499D01*
X102196519Y-15668197D01*
X102070783Y-15752212D01*
X101554634Y-16375029D01*
X80660000Y-16375029D01*
X80660000Y10807286D01*
X80738519Y10641669D01*
X81046970Y10226576D01*
X81430475Y9879635D01*
X81874296Y9614178D01*
X82361377Y9440407D01*
X82873000Y9365000D01*
X84273000Y9365000D01*
X84273000Y11873000D01*
X84527000Y11873000D01*
X84527000Y9365000D01*
X85927000Y9365000D01*
X86438623Y9440407D01*
X86925704Y9614178D01*
X87369525Y9879635D01*
X87753030Y10226576D01*
X88061481Y10641669D01*
X88283025Y11108962D01*
X88379667Y11462838D01*
X171620333Y11462838D01*
X171716975Y11108962D01*
X171938519Y10641669D01*
X172246970Y10226576D01*
X172630475Y9879635D01*
X173074296Y9614178D01*
X173561377Y9440407D01*
X174073000Y9365000D01*
X175473000Y9365000D01*
X175473000Y11873000D01*
X171727009Y11873000D01*
X171620333Y11462838D01*
X88379667Y11462838D01*
X88272991Y11873000D01*
X84527000Y11873000D01*
X84273000Y11873000D01*
X84253000Y11873000D01*
X84253000Y12127000D01*
X84273000Y12127000D01*
X84273000Y12147000D01*
X84527000Y12147000D01*
X84527000Y12127000D01*
X88272991Y12127000D01*
X88379667Y12537162D01*
X88283025Y12891038D01*
X88061481Y13358331D01*
X87753030Y13773424D01*
X87369525Y14120365D01*
X87002314Y14340000D01*
X172997686Y14340000D01*
X172630475Y14120365D01*
G37*
%TD.AperFunction*%
%TD*%
M02*
