%TF.GenerationSoftware,KiCad,Pcbnew,5.1.8-db9833491~88~ubuntu20.04.1*%
%TF.CreationDate,2020-12-09T09:22:21-05:00*%
%TF.ProjectId,mfos_vclfo_sync-panel,6d666f73-5f76-4636-9c66-6f5f73796e63,rev?*%
%TF.SameCoordinates,Original*%
%TF.FileFunction,Copper,L1,Top*%
%TF.FilePolarity,Positive*%
%FSLAX46Y46*%
G04 Gerber Fmt 4.6, Leading zero omitted, Abs format (unit mm)*
G04 Created by KiCad (PCBNEW 5.1.8-db9833491~88~ubuntu20.04.1) date 2020-12-09 09:22:21*
%MOMM*%
%LPD*%
G01*
G04 APERTURE LIST*
%TA.AperFunction,ComponentPad*%
%ADD10C,14.000000*%
%TD*%
%TA.AperFunction,ComponentPad*%
%ADD11C,9.000000*%
%TD*%
%TA.AperFunction,ComponentPad*%
%ADD12O,6.800000X4.000000*%
%TD*%
%TA.AperFunction,ComponentPad*%
%ADD13C,5.500000*%
%TD*%
%TA.AperFunction,Conductor*%
%ADD14C,0.254000*%
%TD*%
%TA.AperFunction,Conductor*%
%ADD15C,0.100000*%
%TD*%
G04 APERTURE END LIST*
D10*
%TO.P,H20,1*%
%TO.N,GND*%
X115000000Y-155000000D03*
%TD*%
D11*
%TO.P,H19,1*%
%TO.N,GND*%
X75000000Y-130000000D03*
%TD*%
D10*
%TO.P,H18,1*%
%TO.N,GND*%
X35000000Y-130000000D03*
%TD*%
%TO.P,H17,1*%
%TO.N,GND*%
X75000000Y-155000000D03*
%TD*%
%TO.P,H16,1*%
%TO.N,GND*%
X95000000Y-130000000D03*
%TD*%
%TO.P,H15,1*%
%TO.N,GND*%
X55000000Y-130000000D03*
%TD*%
D11*
%TO.P,H14,1*%
%TO.N,GND*%
X75000000Y-10000000D03*
%TD*%
D12*
%TO.P,H13,1*%
%TO.N,GND*%
X29400000Y17000000D03*
%TD*%
D10*
%TO.P,H12,1*%
%TO.N,GND*%
X55000000Y-155000000D03*
%TD*%
D11*
%TO.P,H11,1*%
%TO.N,GND*%
X100000000Y-50000000D03*
%TD*%
D12*
%TO.P,H10,1*%
%TO.N,GND*%
X120500000Y-177000000D03*
%TD*%
D10*
%TO.P,H9,1*%
%TO.N,GND*%
X35000000Y-155000000D03*
%TD*%
D11*
%TO.P,H8,1*%
%TO.N,GND*%
X50000000Y-90000000D03*
%TD*%
D12*
%TO.P,H7,1*%
%TO.N,GND*%
X120600000Y17000000D03*
%TD*%
D10*
%TO.P,H6,1*%
%TO.N,GND*%
X115000000Y-130000000D03*
%TD*%
D11*
%TO.P,H5,1*%
%TO.N,GND*%
X50000000Y-50000000D03*
%TD*%
D12*
%TO.P,H4,1*%
%TO.N,GND*%
X29400000Y-177000000D03*
%TD*%
D13*
%TO.P,H3,1*%
%TO.N,N/C*%
X100000000Y-10000000D03*
%TD*%
D10*
%TO.P,H2,1*%
%TO.N,GND*%
X95000000Y-155000000D03*
%TD*%
D11*
%TO.P,H1,1*%
%TO.N,GND*%
X100000000Y-90000000D03*
%TD*%
D14*
%TO.N,GND*%
X117630475Y19120365D02*
X117246970Y18773424D01*
X116938519Y18358331D01*
X116716975Y17891038D01*
X116620333Y17537162D01*
X116727009Y17127000D01*
X120473000Y17127000D01*
X120473000Y17147000D01*
X120727000Y17147000D01*
X120727000Y17127000D01*
X120747000Y17127000D01*
X120747000Y16873000D01*
X120727000Y16873000D01*
X120727000Y14365000D01*
X122127000Y14365000D01*
X122638623Y14440407D01*
X123125704Y14614178D01*
X123569525Y14879635D01*
X123953030Y15226576D01*
X124261481Y15641669D01*
X124340000Y15807286D01*
X124340001Y-176018213D01*
X124161481Y-175641669D01*
X123853030Y-175226576D01*
X123469525Y-174879635D01*
X123025704Y-174614178D01*
X122538623Y-174440407D01*
X122027000Y-174365000D01*
X120627000Y-174365000D01*
X120627000Y-176873000D01*
X120647000Y-176873000D01*
X120647000Y-177127000D01*
X120627000Y-177127000D01*
X120627000Y-177147000D01*
X120373000Y-177147000D01*
X120373000Y-177127000D01*
X116627009Y-177127000D01*
X116520333Y-177537162D01*
X116616975Y-177891038D01*
X116838519Y-178358331D01*
X117146970Y-178773424D01*
X117530475Y-179120365D01*
X117897686Y-179340000D01*
X32002314Y-179340000D01*
X32369525Y-179120365D01*
X32753030Y-178773424D01*
X33061481Y-178358331D01*
X33283025Y-177891038D01*
X33379667Y-177537162D01*
X33272991Y-177127000D01*
X29527000Y-177127000D01*
X29527000Y-177147000D01*
X29273000Y-177147000D01*
X29273000Y-177127000D01*
X29253000Y-177127000D01*
X29253000Y-176873000D01*
X29273000Y-176873000D01*
X29273000Y-174365000D01*
X29527000Y-174365000D01*
X29527000Y-176873000D01*
X33272991Y-176873000D01*
X33379667Y-176462838D01*
X116520333Y-176462838D01*
X116627009Y-176873000D01*
X120373000Y-176873000D01*
X120373000Y-174365000D01*
X118973000Y-174365000D01*
X118461377Y-174440407D01*
X117974296Y-174614178D01*
X117530475Y-174879635D01*
X117146970Y-175226576D01*
X116838519Y-175641669D01*
X116616975Y-176108962D01*
X116520333Y-176462838D01*
X33379667Y-176462838D01*
X33283025Y-176108962D01*
X33061481Y-175641669D01*
X32753030Y-175226576D01*
X32369525Y-174879635D01*
X31925704Y-174614178D01*
X31438623Y-174440407D01*
X30927000Y-174365000D01*
X29527000Y-174365000D01*
X29273000Y-174365000D01*
X27873000Y-174365000D01*
X27361377Y-174440407D01*
X26874296Y-174614178D01*
X26430475Y-174879635D01*
X26046970Y-175226576D01*
X25738519Y-175641669D01*
X25660000Y-175807286D01*
X25660000Y-160401674D01*
X29777932Y-160401674D01*
X30593908Y-161280530D01*
X31903840Y-162019437D01*
X33332756Y-162488591D01*
X34825743Y-162669963D01*
X36325428Y-162556583D01*
X37774176Y-162152807D01*
X39116314Y-161474153D01*
X39406092Y-161280530D01*
X40222068Y-160401674D01*
X49777932Y-160401674D01*
X50593908Y-161280530D01*
X51903840Y-162019437D01*
X53332756Y-162488591D01*
X54825743Y-162669963D01*
X56325428Y-162556583D01*
X57774176Y-162152807D01*
X59116314Y-161474153D01*
X59406092Y-161280530D01*
X60222068Y-160401674D01*
X69777932Y-160401674D01*
X70593908Y-161280530D01*
X71903840Y-162019437D01*
X73332756Y-162488591D01*
X74825743Y-162669963D01*
X76325428Y-162556583D01*
X77774176Y-162152807D01*
X79116314Y-161474153D01*
X79406092Y-161280530D01*
X80222068Y-160401674D01*
X89777932Y-160401674D01*
X90593908Y-161280530D01*
X91903840Y-162019437D01*
X93332756Y-162488591D01*
X94825743Y-162669963D01*
X96325428Y-162556583D01*
X97774176Y-162152807D01*
X99116314Y-161474153D01*
X99406092Y-161280530D01*
X100222068Y-160401674D01*
X109777932Y-160401674D01*
X110593908Y-161280530D01*
X111903840Y-162019437D01*
X113332756Y-162488591D01*
X114825743Y-162669963D01*
X116325428Y-162556583D01*
X117774176Y-162152807D01*
X119116314Y-161474153D01*
X119406092Y-161280530D01*
X120222068Y-160401674D01*
X115000000Y-155179605D01*
X109777932Y-160401674D01*
X100222068Y-160401674D01*
X95000000Y-155179605D01*
X89777932Y-160401674D01*
X80222068Y-160401674D01*
X75000000Y-155179605D01*
X69777932Y-160401674D01*
X60222068Y-160401674D01*
X55000000Y-155179605D01*
X49777932Y-160401674D01*
X40222068Y-160401674D01*
X35000000Y-155179605D01*
X29777932Y-160401674D01*
X25660000Y-160401674D01*
X25660000Y-154825743D01*
X27330037Y-154825743D01*
X27443417Y-156325428D01*
X27847193Y-157774176D01*
X28525847Y-159116314D01*
X28719470Y-159406092D01*
X29598326Y-160222068D01*
X34820395Y-155000000D01*
X35179605Y-155000000D01*
X40401674Y-160222068D01*
X41280530Y-159406092D01*
X42019437Y-158096160D01*
X42488591Y-156667244D01*
X42669963Y-155174257D01*
X42643615Y-154825743D01*
X47330037Y-154825743D01*
X47443417Y-156325428D01*
X47847193Y-157774176D01*
X48525847Y-159116314D01*
X48719470Y-159406092D01*
X49598326Y-160222068D01*
X54820395Y-155000000D01*
X55179605Y-155000000D01*
X60401674Y-160222068D01*
X61280530Y-159406092D01*
X62019437Y-158096160D01*
X62488591Y-156667244D01*
X62669963Y-155174257D01*
X62643615Y-154825743D01*
X67330037Y-154825743D01*
X67443417Y-156325428D01*
X67847193Y-157774176D01*
X68525847Y-159116314D01*
X68719470Y-159406092D01*
X69598326Y-160222068D01*
X74820395Y-155000000D01*
X75179605Y-155000000D01*
X80401674Y-160222068D01*
X81280530Y-159406092D01*
X82019437Y-158096160D01*
X82488591Y-156667244D01*
X82669963Y-155174257D01*
X82643615Y-154825743D01*
X87330037Y-154825743D01*
X87443417Y-156325428D01*
X87847193Y-157774176D01*
X88525847Y-159116314D01*
X88719470Y-159406092D01*
X89598326Y-160222068D01*
X94820395Y-155000000D01*
X95179605Y-155000000D01*
X100401674Y-160222068D01*
X101280530Y-159406092D01*
X102019437Y-158096160D01*
X102488591Y-156667244D01*
X102669963Y-155174257D01*
X102643615Y-154825743D01*
X107330037Y-154825743D01*
X107443417Y-156325428D01*
X107847193Y-157774176D01*
X108525847Y-159116314D01*
X108719470Y-159406092D01*
X109598326Y-160222068D01*
X114820395Y-155000000D01*
X115179605Y-155000000D01*
X120401674Y-160222068D01*
X121280530Y-159406092D01*
X122019437Y-158096160D01*
X122488591Y-156667244D01*
X122669963Y-155174257D01*
X122556583Y-153674572D01*
X122152807Y-152225824D01*
X121474153Y-150883686D01*
X121280530Y-150593908D01*
X120401674Y-149777932D01*
X115179605Y-155000000D01*
X114820395Y-155000000D01*
X109598326Y-149777932D01*
X108719470Y-150593908D01*
X107980563Y-151903840D01*
X107511409Y-153332756D01*
X107330037Y-154825743D01*
X102643615Y-154825743D01*
X102556583Y-153674572D01*
X102152807Y-152225824D01*
X101474153Y-150883686D01*
X101280530Y-150593908D01*
X100401674Y-149777932D01*
X95179605Y-155000000D01*
X94820395Y-155000000D01*
X89598326Y-149777932D01*
X88719470Y-150593908D01*
X87980563Y-151903840D01*
X87511409Y-153332756D01*
X87330037Y-154825743D01*
X82643615Y-154825743D01*
X82556583Y-153674572D01*
X82152807Y-152225824D01*
X81474153Y-150883686D01*
X81280530Y-150593908D01*
X80401674Y-149777932D01*
X75179605Y-155000000D01*
X74820395Y-155000000D01*
X69598326Y-149777932D01*
X68719470Y-150593908D01*
X67980563Y-151903840D01*
X67511409Y-153332756D01*
X67330037Y-154825743D01*
X62643615Y-154825743D01*
X62556583Y-153674572D01*
X62152807Y-152225824D01*
X61474153Y-150883686D01*
X61280530Y-150593908D01*
X60401674Y-149777932D01*
X55179605Y-155000000D01*
X54820395Y-155000000D01*
X49598326Y-149777932D01*
X48719470Y-150593908D01*
X47980563Y-151903840D01*
X47511409Y-153332756D01*
X47330037Y-154825743D01*
X42643615Y-154825743D01*
X42556583Y-153674572D01*
X42152807Y-152225824D01*
X41474153Y-150883686D01*
X41280530Y-150593908D01*
X40401674Y-149777932D01*
X35179605Y-155000000D01*
X34820395Y-155000000D01*
X29598326Y-149777932D01*
X28719470Y-150593908D01*
X27980563Y-151903840D01*
X27511409Y-153332756D01*
X27330037Y-154825743D01*
X25660000Y-154825743D01*
X25660000Y-149598326D01*
X29777932Y-149598326D01*
X35000000Y-154820395D01*
X40222068Y-149598326D01*
X49777932Y-149598326D01*
X55000000Y-154820395D01*
X60222068Y-149598326D01*
X69777932Y-149598326D01*
X75000000Y-154820395D01*
X80222068Y-149598326D01*
X89777932Y-149598326D01*
X95000000Y-154820395D01*
X100222068Y-149598326D01*
X109777932Y-149598326D01*
X115000000Y-154820395D01*
X120222068Y-149598326D01*
X119406092Y-148719470D01*
X118096160Y-147980563D01*
X116667244Y-147511409D01*
X115174257Y-147330037D01*
X113674572Y-147443417D01*
X112225824Y-147847193D01*
X110883686Y-148525847D01*
X110593908Y-148719470D01*
X109777932Y-149598326D01*
X100222068Y-149598326D01*
X99406092Y-148719470D01*
X98096160Y-147980563D01*
X96667244Y-147511409D01*
X95174257Y-147330037D01*
X93674572Y-147443417D01*
X92225824Y-147847193D01*
X90883686Y-148525847D01*
X90593908Y-148719470D01*
X89777932Y-149598326D01*
X80222068Y-149598326D01*
X79406092Y-148719470D01*
X78096160Y-147980563D01*
X76667244Y-147511409D01*
X75174257Y-147330037D01*
X73674572Y-147443417D01*
X72225824Y-147847193D01*
X70883686Y-148525847D01*
X70593908Y-148719470D01*
X69777932Y-149598326D01*
X60222068Y-149598326D01*
X59406092Y-148719470D01*
X58096160Y-147980563D01*
X56667244Y-147511409D01*
X55174257Y-147330037D01*
X53674572Y-147443417D01*
X52225824Y-147847193D01*
X50883686Y-148525847D01*
X50593908Y-148719470D01*
X49777932Y-149598326D01*
X40222068Y-149598326D01*
X39406092Y-148719470D01*
X38096160Y-147980563D01*
X36667244Y-147511409D01*
X35174257Y-147330037D01*
X33674572Y-147443417D01*
X32225824Y-147847193D01*
X30883686Y-148525847D01*
X30593908Y-148719470D01*
X29777932Y-149598326D01*
X25660000Y-149598326D01*
X25660000Y-135401674D01*
X29777932Y-135401674D01*
X30593908Y-136280530D01*
X31903840Y-137019437D01*
X33332756Y-137488591D01*
X34825743Y-137669963D01*
X36325428Y-137556583D01*
X37774176Y-137152807D01*
X39116314Y-136474153D01*
X39406092Y-136280530D01*
X40222068Y-135401674D01*
X49777932Y-135401674D01*
X50593908Y-136280530D01*
X51903840Y-137019437D01*
X53332756Y-137488591D01*
X54825743Y-137669963D01*
X56325428Y-137556583D01*
X57774176Y-137152807D01*
X59116314Y-136474153D01*
X59406092Y-136280530D01*
X60222068Y-135401674D01*
X89777932Y-135401674D01*
X90593908Y-136280530D01*
X91903840Y-137019437D01*
X93332756Y-137488591D01*
X94825743Y-137669963D01*
X96325428Y-137556583D01*
X97774176Y-137152807D01*
X99116314Y-136474153D01*
X99406092Y-136280530D01*
X100222068Y-135401674D01*
X109777932Y-135401674D01*
X110593908Y-136280530D01*
X111903840Y-137019437D01*
X113332756Y-137488591D01*
X114825743Y-137669963D01*
X116325428Y-137556583D01*
X117774176Y-137152807D01*
X119116314Y-136474153D01*
X119406092Y-136280530D01*
X120222068Y-135401674D01*
X115000000Y-130179605D01*
X109777932Y-135401674D01*
X100222068Y-135401674D01*
X95000000Y-130179605D01*
X89777932Y-135401674D01*
X60222068Y-135401674D01*
X55000000Y-130179605D01*
X49777932Y-135401674D01*
X40222068Y-135401674D01*
X35000000Y-130179605D01*
X29777932Y-135401674D01*
X25660000Y-135401674D01*
X25660000Y-129825743D01*
X27330037Y-129825743D01*
X27443417Y-131325428D01*
X27847193Y-132774176D01*
X28525847Y-134116314D01*
X28719470Y-134406092D01*
X29598326Y-135222068D01*
X34820395Y-130000000D01*
X35179605Y-130000000D01*
X40401674Y-135222068D01*
X41280530Y-134406092D01*
X42019437Y-133096160D01*
X42488591Y-131667244D01*
X42669963Y-130174257D01*
X42643615Y-129825743D01*
X47330037Y-129825743D01*
X47443417Y-131325428D01*
X47847193Y-132774176D01*
X48525847Y-134116314D01*
X48719470Y-134406092D01*
X49598326Y-135222068D01*
X54820395Y-130000000D01*
X55179605Y-130000000D01*
X60401674Y-135222068D01*
X61280530Y-134406092D01*
X61721145Y-133624971D01*
X71554634Y-133624971D01*
X72070783Y-134247788D01*
X72955768Y-134737630D01*
X73919314Y-135045407D01*
X74924389Y-135159293D01*
X75932370Y-135074910D01*
X76904520Y-134795501D01*
X77803481Y-134331803D01*
X77929217Y-134247788D01*
X78445366Y-133624971D01*
X75000000Y-130179605D01*
X71554634Y-133624971D01*
X61721145Y-133624971D01*
X62019437Y-133096160D01*
X62488591Y-131667244D01*
X62669963Y-130174257D01*
X62651073Y-129924389D01*
X69840707Y-129924389D01*
X69925090Y-130932370D01*
X70204499Y-131904520D01*
X70668197Y-132803481D01*
X70752212Y-132929217D01*
X71375029Y-133445366D01*
X74820395Y-130000000D01*
X75179605Y-130000000D01*
X78624971Y-133445366D01*
X79247788Y-132929217D01*
X79737630Y-132044232D01*
X80045407Y-131080686D01*
X80159293Y-130075611D01*
X80138376Y-129825743D01*
X87330037Y-129825743D01*
X87443417Y-131325428D01*
X87847193Y-132774176D01*
X88525847Y-134116314D01*
X88719470Y-134406092D01*
X89598326Y-135222068D01*
X94820395Y-130000000D01*
X95179605Y-130000000D01*
X100401674Y-135222068D01*
X101280530Y-134406092D01*
X102019437Y-133096160D01*
X102488591Y-131667244D01*
X102669963Y-130174257D01*
X102643615Y-129825743D01*
X107330037Y-129825743D01*
X107443417Y-131325428D01*
X107847193Y-132774176D01*
X108525847Y-134116314D01*
X108719470Y-134406092D01*
X109598326Y-135222068D01*
X114820395Y-130000000D01*
X115179605Y-130000000D01*
X120401674Y-135222068D01*
X121280530Y-134406092D01*
X122019437Y-133096160D01*
X122488591Y-131667244D01*
X122669963Y-130174257D01*
X122556583Y-128674572D01*
X122152807Y-127225824D01*
X121474153Y-125883686D01*
X121280530Y-125593908D01*
X120401674Y-124777932D01*
X115179605Y-130000000D01*
X114820395Y-130000000D01*
X109598326Y-124777932D01*
X108719470Y-125593908D01*
X107980563Y-126903840D01*
X107511409Y-128332756D01*
X107330037Y-129825743D01*
X102643615Y-129825743D01*
X102556583Y-128674572D01*
X102152807Y-127225824D01*
X101474153Y-125883686D01*
X101280530Y-125593908D01*
X100401674Y-124777932D01*
X95179605Y-130000000D01*
X94820395Y-130000000D01*
X89598326Y-124777932D01*
X88719470Y-125593908D01*
X87980563Y-126903840D01*
X87511409Y-128332756D01*
X87330037Y-129825743D01*
X80138376Y-129825743D01*
X80074910Y-129067630D01*
X79795501Y-128095480D01*
X79331803Y-127196519D01*
X79247788Y-127070783D01*
X78624971Y-126554634D01*
X75179605Y-130000000D01*
X74820395Y-130000000D01*
X71375029Y-126554634D01*
X70752212Y-127070783D01*
X70262370Y-127955768D01*
X69954593Y-128919314D01*
X69840707Y-129924389D01*
X62651073Y-129924389D01*
X62556583Y-128674572D01*
X62152807Y-127225824D01*
X61722602Y-126375029D01*
X71554634Y-126375029D01*
X75000000Y-129820395D01*
X78445366Y-126375029D01*
X77929217Y-125752212D01*
X77044232Y-125262370D01*
X76080686Y-124954593D01*
X75075611Y-124840707D01*
X74067630Y-124925090D01*
X73095480Y-125204499D01*
X72196519Y-125668197D01*
X72070783Y-125752212D01*
X71554634Y-126375029D01*
X61722602Y-126375029D01*
X61474153Y-125883686D01*
X61280530Y-125593908D01*
X60401674Y-124777932D01*
X55179605Y-130000000D01*
X54820395Y-130000000D01*
X49598326Y-124777932D01*
X48719470Y-125593908D01*
X47980563Y-126903840D01*
X47511409Y-128332756D01*
X47330037Y-129825743D01*
X42643615Y-129825743D01*
X42556583Y-128674572D01*
X42152807Y-127225824D01*
X41474153Y-125883686D01*
X41280530Y-125593908D01*
X40401674Y-124777932D01*
X35179605Y-130000000D01*
X34820395Y-130000000D01*
X29598326Y-124777932D01*
X28719470Y-125593908D01*
X27980563Y-126903840D01*
X27511409Y-128332756D01*
X27330037Y-129825743D01*
X25660000Y-129825743D01*
X25660000Y-124598326D01*
X29777932Y-124598326D01*
X35000000Y-129820395D01*
X40222068Y-124598326D01*
X49777932Y-124598326D01*
X55000000Y-129820395D01*
X60222068Y-124598326D01*
X89777932Y-124598326D01*
X95000000Y-129820395D01*
X100222068Y-124598326D01*
X109777932Y-124598326D01*
X115000000Y-129820395D01*
X120222068Y-124598326D01*
X119406092Y-123719470D01*
X118096160Y-122980563D01*
X116667244Y-122511409D01*
X115174257Y-122330037D01*
X113674572Y-122443417D01*
X112225824Y-122847193D01*
X110883686Y-123525847D01*
X110593908Y-123719470D01*
X109777932Y-124598326D01*
X100222068Y-124598326D01*
X99406092Y-123719470D01*
X98096160Y-122980563D01*
X96667244Y-122511409D01*
X95174257Y-122330037D01*
X93674572Y-122443417D01*
X92225824Y-122847193D01*
X90883686Y-123525847D01*
X90593908Y-123719470D01*
X89777932Y-124598326D01*
X60222068Y-124598326D01*
X59406092Y-123719470D01*
X58096160Y-122980563D01*
X56667244Y-122511409D01*
X55174257Y-122330037D01*
X53674572Y-122443417D01*
X52225824Y-122847193D01*
X50883686Y-123525847D01*
X50593908Y-123719470D01*
X49777932Y-124598326D01*
X40222068Y-124598326D01*
X39406092Y-123719470D01*
X38096160Y-122980563D01*
X36667244Y-122511409D01*
X35174257Y-122330037D01*
X33674572Y-122443417D01*
X32225824Y-122847193D01*
X30883686Y-123525847D01*
X30593908Y-123719470D01*
X29777932Y-124598326D01*
X25660000Y-124598326D01*
X25660000Y-93624971D01*
X46554634Y-93624971D01*
X47070783Y-94247788D01*
X47955768Y-94737630D01*
X48919314Y-95045407D01*
X49924389Y-95159293D01*
X50932370Y-95074910D01*
X51904520Y-94795501D01*
X52803481Y-94331803D01*
X52929217Y-94247788D01*
X53445366Y-93624971D01*
X96554634Y-93624971D01*
X97070783Y-94247788D01*
X97955768Y-94737630D01*
X98919314Y-95045407D01*
X99924389Y-95159293D01*
X100932370Y-95074910D01*
X101904520Y-94795501D01*
X102803481Y-94331803D01*
X102929217Y-94247788D01*
X103445366Y-93624971D01*
X100000000Y-90179605D01*
X96554634Y-93624971D01*
X53445366Y-93624971D01*
X50000000Y-90179605D01*
X46554634Y-93624971D01*
X25660000Y-93624971D01*
X25660000Y-89924389D01*
X44840707Y-89924389D01*
X44925090Y-90932370D01*
X45204499Y-91904520D01*
X45668197Y-92803481D01*
X45752212Y-92929217D01*
X46375029Y-93445366D01*
X49820395Y-90000000D01*
X50179605Y-90000000D01*
X53624971Y-93445366D01*
X54247788Y-92929217D01*
X54737630Y-92044232D01*
X55045407Y-91080686D01*
X55159293Y-90075611D01*
X55146634Y-89924389D01*
X94840707Y-89924389D01*
X94925090Y-90932370D01*
X95204499Y-91904520D01*
X95668197Y-92803481D01*
X95752212Y-92929217D01*
X96375029Y-93445366D01*
X99820395Y-90000000D01*
X100179605Y-90000000D01*
X103624971Y-93445366D01*
X104247788Y-92929217D01*
X104737630Y-92044232D01*
X105045407Y-91080686D01*
X105159293Y-90075611D01*
X105074910Y-89067630D01*
X104795501Y-88095480D01*
X104331803Y-87196519D01*
X104247788Y-87070783D01*
X103624971Y-86554634D01*
X100179605Y-90000000D01*
X99820395Y-90000000D01*
X96375029Y-86554634D01*
X95752212Y-87070783D01*
X95262370Y-87955768D01*
X94954593Y-88919314D01*
X94840707Y-89924389D01*
X55146634Y-89924389D01*
X55074910Y-89067630D01*
X54795501Y-88095480D01*
X54331803Y-87196519D01*
X54247788Y-87070783D01*
X53624971Y-86554634D01*
X50179605Y-90000000D01*
X49820395Y-90000000D01*
X46375029Y-86554634D01*
X45752212Y-87070783D01*
X45262370Y-87955768D01*
X44954593Y-88919314D01*
X44840707Y-89924389D01*
X25660000Y-89924389D01*
X25660000Y-86375029D01*
X46554634Y-86375029D01*
X50000000Y-89820395D01*
X53445366Y-86375029D01*
X96554634Y-86375029D01*
X100000000Y-89820395D01*
X103445366Y-86375029D01*
X102929217Y-85752212D01*
X102044232Y-85262370D01*
X101080686Y-84954593D01*
X100075611Y-84840707D01*
X99067630Y-84925090D01*
X98095480Y-85204499D01*
X97196519Y-85668197D01*
X97070783Y-85752212D01*
X96554634Y-86375029D01*
X53445366Y-86375029D01*
X52929217Y-85752212D01*
X52044232Y-85262370D01*
X51080686Y-84954593D01*
X50075611Y-84840707D01*
X49067630Y-84925090D01*
X48095480Y-85204499D01*
X47196519Y-85668197D01*
X47070783Y-85752212D01*
X46554634Y-86375029D01*
X25660000Y-86375029D01*
X25660000Y-53624971D01*
X46554634Y-53624971D01*
X47070783Y-54247788D01*
X47955768Y-54737630D01*
X48919314Y-55045407D01*
X49924389Y-55159293D01*
X50932370Y-55074910D01*
X51904520Y-54795501D01*
X52803481Y-54331803D01*
X52929217Y-54247788D01*
X53445366Y-53624971D01*
X96554634Y-53624971D01*
X97070783Y-54247788D01*
X97955768Y-54737630D01*
X98919314Y-55045407D01*
X99924389Y-55159293D01*
X100932370Y-55074910D01*
X101904520Y-54795501D01*
X102803481Y-54331803D01*
X102929217Y-54247788D01*
X103445366Y-53624971D01*
X100000000Y-50179605D01*
X96554634Y-53624971D01*
X53445366Y-53624971D01*
X50000000Y-50179605D01*
X46554634Y-53624971D01*
X25660000Y-53624971D01*
X25660000Y-49924389D01*
X44840707Y-49924389D01*
X44925090Y-50932370D01*
X45204499Y-51904520D01*
X45668197Y-52803481D01*
X45752212Y-52929217D01*
X46375029Y-53445366D01*
X49820395Y-50000000D01*
X50179605Y-50000000D01*
X53624971Y-53445366D01*
X54247788Y-52929217D01*
X54737630Y-52044232D01*
X55045407Y-51080686D01*
X55159293Y-50075611D01*
X55146634Y-49924389D01*
X94840707Y-49924389D01*
X94925090Y-50932370D01*
X95204499Y-51904520D01*
X95668197Y-52803481D01*
X95752212Y-52929217D01*
X96375029Y-53445366D01*
X99820395Y-50000000D01*
X100179605Y-50000000D01*
X103624971Y-53445366D01*
X104247788Y-52929217D01*
X104737630Y-52044232D01*
X105045407Y-51080686D01*
X105159293Y-50075611D01*
X105074910Y-49067630D01*
X104795501Y-48095480D01*
X104331803Y-47196519D01*
X104247788Y-47070783D01*
X103624971Y-46554634D01*
X100179605Y-50000000D01*
X99820395Y-50000000D01*
X96375029Y-46554634D01*
X95752212Y-47070783D01*
X95262370Y-47955768D01*
X94954593Y-48919314D01*
X94840707Y-49924389D01*
X55146634Y-49924389D01*
X55074910Y-49067630D01*
X54795501Y-48095480D01*
X54331803Y-47196519D01*
X54247788Y-47070783D01*
X53624971Y-46554634D01*
X50179605Y-50000000D01*
X49820395Y-50000000D01*
X46375029Y-46554634D01*
X45752212Y-47070783D01*
X45262370Y-47955768D01*
X44954593Y-48919314D01*
X44840707Y-49924389D01*
X25660000Y-49924389D01*
X25660000Y-46375029D01*
X46554634Y-46375029D01*
X50000000Y-49820395D01*
X53445366Y-46375029D01*
X96554634Y-46375029D01*
X100000000Y-49820395D01*
X103445366Y-46375029D01*
X102929217Y-45752212D01*
X102044232Y-45262370D01*
X101080686Y-44954593D01*
X100075611Y-44840707D01*
X99067630Y-44925090D01*
X98095480Y-45204499D01*
X97196519Y-45668197D01*
X97070783Y-45752212D01*
X96554634Y-46375029D01*
X53445366Y-46375029D01*
X52929217Y-45752212D01*
X52044232Y-45262370D01*
X51080686Y-44954593D01*
X50075611Y-44840707D01*
X49067630Y-44925090D01*
X48095480Y-45204499D01*
X47196519Y-45668197D01*
X47070783Y-45752212D01*
X46554634Y-46375029D01*
X25660000Y-46375029D01*
X25660000Y-13624971D01*
X71554634Y-13624971D01*
X72070783Y-14247788D01*
X72955768Y-14737630D01*
X73919314Y-15045407D01*
X74924389Y-15159293D01*
X75932370Y-15074910D01*
X76904520Y-14795501D01*
X77803481Y-14331803D01*
X77929217Y-14247788D01*
X78445366Y-13624971D01*
X75000000Y-10179605D01*
X71554634Y-13624971D01*
X25660000Y-13624971D01*
X25660000Y-9924389D01*
X69840707Y-9924389D01*
X69925090Y-10932370D01*
X70204499Y-11904520D01*
X70668197Y-12803481D01*
X70752212Y-12929217D01*
X71375029Y-13445366D01*
X74820395Y-10000000D01*
X75179605Y-10000000D01*
X78624971Y-13445366D01*
X79247788Y-12929217D01*
X79737630Y-12044232D01*
X80045407Y-11080686D01*
X80159293Y-10075611D01*
X80125054Y-9666607D01*
X96615000Y-9666607D01*
X96615000Y-10333393D01*
X96745083Y-10987368D01*
X97000252Y-11603399D01*
X97370698Y-12157812D01*
X97842188Y-12629302D01*
X98396601Y-12999748D01*
X99012632Y-13254917D01*
X99666607Y-13385000D01*
X100333393Y-13385000D01*
X100987368Y-13254917D01*
X101603399Y-12999748D01*
X102157812Y-12629302D01*
X102629302Y-12157812D01*
X102999748Y-11603399D01*
X103254917Y-10987368D01*
X103385000Y-10333393D01*
X103385000Y-9666607D01*
X103254917Y-9012632D01*
X102999748Y-8396601D01*
X102629302Y-7842188D01*
X102157812Y-7370698D01*
X101603399Y-7000252D01*
X100987368Y-6745083D01*
X100333393Y-6615000D01*
X99666607Y-6615000D01*
X99012632Y-6745083D01*
X98396601Y-7000252D01*
X97842188Y-7370698D01*
X97370698Y-7842188D01*
X97000252Y-8396601D01*
X96745083Y-9012632D01*
X96615000Y-9666607D01*
X80125054Y-9666607D01*
X80074910Y-9067630D01*
X79795501Y-8095480D01*
X79331803Y-7196519D01*
X79247788Y-7070783D01*
X78624971Y-6554634D01*
X75179605Y-10000000D01*
X74820395Y-10000000D01*
X71375029Y-6554634D01*
X70752212Y-7070783D01*
X70262370Y-7955768D01*
X69954593Y-8919314D01*
X69840707Y-9924389D01*
X25660000Y-9924389D01*
X25660000Y-6375029D01*
X71554634Y-6375029D01*
X75000000Y-9820395D01*
X78445366Y-6375029D01*
X77929217Y-5752212D01*
X77044232Y-5262370D01*
X76080686Y-4954593D01*
X75075611Y-4840707D01*
X74067630Y-4925090D01*
X73095480Y-5204499D01*
X72196519Y-5668197D01*
X72070783Y-5752212D01*
X71554634Y-6375029D01*
X25660000Y-6375029D01*
X25660000Y15807286D01*
X25738519Y15641669D01*
X26046970Y15226576D01*
X26430475Y14879635D01*
X26874296Y14614178D01*
X27361377Y14440407D01*
X27873000Y14365000D01*
X29273000Y14365000D01*
X29273000Y16873000D01*
X29527000Y16873000D01*
X29527000Y14365000D01*
X30927000Y14365000D01*
X31438623Y14440407D01*
X31925704Y14614178D01*
X32369525Y14879635D01*
X32753030Y15226576D01*
X33061481Y15641669D01*
X33283025Y16108962D01*
X33379667Y16462838D01*
X116620333Y16462838D01*
X116716975Y16108962D01*
X116938519Y15641669D01*
X117246970Y15226576D01*
X117630475Y14879635D01*
X118074296Y14614178D01*
X118561377Y14440407D01*
X119073000Y14365000D01*
X120473000Y14365000D01*
X120473000Y16873000D01*
X116727009Y16873000D01*
X116620333Y16462838D01*
X33379667Y16462838D01*
X33272991Y16873000D01*
X29527000Y16873000D01*
X29273000Y16873000D01*
X29253000Y16873000D01*
X29253000Y17127000D01*
X29273000Y17127000D01*
X29273000Y17147000D01*
X29527000Y17147000D01*
X29527000Y17127000D01*
X33272991Y17127000D01*
X33379667Y17537162D01*
X33283025Y17891038D01*
X33061481Y18358331D01*
X32753030Y18773424D01*
X32369525Y19120365D01*
X32002314Y19340000D01*
X117997686Y19340000D01*
X117630475Y19120365D01*
%TA.AperFunction,Conductor*%
D15*
G36*
X117630475Y19120365D02*
G01*
X117246970Y18773424D01*
X116938519Y18358331D01*
X116716975Y17891038D01*
X116620333Y17537162D01*
X116727009Y17127000D01*
X120473000Y17127000D01*
X120473000Y17147000D01*
X120727000Y17147000D01*
X120727000Y17127000D01*
X120747000Y17127000D01*
X120747000Y16873000D01*
X120727000Y16873000D01*
X120727000Y14365000D01*
X122127000Y14365000D01*
X122638623Y14440407D01*
X123125704Y14614178D01*
X123569525Y14879635D01*
X123953030Y15226576D01*
X124261481Y15641669D01*
X124340000Y15807286D01*
X124340001Y-176018213D01*
X124161481Y-175641669D01*
X123853030Y-175226576D01*
X123469525Y-174879635D01*
X123025704Y-174614178D01*
X122538623Y-174440407D01*
X122027000Y-174365000D01*
X120627000Y-174365000D01*
X120627000Y-176873000D01*
X120647000Y-176873000D01*
X120647000Y-177127000D01*
X120627000Y-177127000D01*
X120627000Y-177147000D01*
X120373000Y-177147000D01*
X120373000Y-177127000D01*
X116627009Y-177127000D01*
X116520333Y-177537162D01*
X116616975Y-177891038D01*
X116838519Y-178358331D01*
X117146970Y-178773424D01*
X117530475Y-179120365D01*
X117897686Y-179340000D01*
X32002314Y-179340000D01*
X32369525Y-179120365D01*
X32753030Y-178773424D01*
X33061481Y-178358331D01*
X33283025Y-177891038D01*
X33379667Y-177537162D01*
X33272991Y-177127000D01*
X29527000Y-177127000D01*
X29527000Y-177147000D01*
X29273000Y-177147000D01*
X29273000Y-177127000D01*
X29253000Y-177127000D01*
X29253000Y-176873000D01*
X29273000Y-176873000D01*
X29273000Y-174365000D01*
X29527000Y-174365000D01*
X29527000Y-176873000D01*
X33272991Y-176873000D01*
X33379667Y-176462838D01*
X116520333Y-176462838D01*
X116627009Y-176873000D01*
X120373000Y-176873000D01*
X120373000Y-174365000D01*
X118973000Y-174365000D01*
X118461377Y-174440407D01*
X117974296Y-174614178D01*
X117530475Y-174879635D01*
X117146970Y-175226576D01*
X116838519Y-175641669D01*
X116616975Y-176108962D01*
X116520333Y-176462838D01*
X33379667Y-176462838D01*
X33283025Y-176108962D01*
X33061481Y-175641669D01*
X32753030Y-175226576D01*
X32369525Y-174879635D01*
X31925704Y-174614178D01*
X31438623Y-174440407D01*
X30927000Y-174365000D01*
X29527000Y-174365000D01*
X29273000Y-174365000D01*
X27873000Y-174365000D01*
X27361377Y-174440407D01*
X26874296Y-174614178D01*
X26430475Y-174879635D01*
X26046970Y-175226576D01*
X25738519Y-175641669D01*
X25660000Y-175807286D01*
X25660000Y-160401674D01*
X29777932Y-160401674D01*
X30593908Y-161280530D01*
X31903840Y-162019437D01*
X33332756Y-162488591D01*
X34825743Y-162669963D01*
X36325428Y-162556583D01*
X37774176Y-162152807D01*
X39116314Y-161474153D01*
X39406092Y-161280530D01*
X40222068Y-160401674D01*
X49777932Y-160401674D01*
X50593908Y-161280530D01*
X51903840Y-162019437D01*
X53332756Y-162488591D01*
X54825743Y-162669963D01*
X56325428Y-162556583D01*
X57774176Y-162152807D01*
X59116314Y-161474153D01*
X59406092Y-161280530D01*
X60222068Y-160401674D01*
X69777932Y-160401674D01*
X70593908Y-161280530D01*
X71903840Y-162019437D01*
X73332756Y-162488591D01*
X74825743Y-162669963D01*
X76325428Y-162556583D01*
X77774176Y-162152807D01*
X79116314Y-161474153D01*
X79406092Y-161280530D01*
X80222068Y-160401674D01*
X89777932Y-160401674D01*
X90593908Y-161280530D01*
X91903840Y-162019437D01*
X93332756Y-162488591D01*
X94825743Y-162669963D01*
X96325428Y-162556583D01*
X97774176Y-162152807D01*
X99116314Y-161474153D01*
X99406092Y-161280530D01*
X100222068Y-160401674D01*
X109777932Y-160401674D01*
X110593908Y-161280530D01*
X111903840Y-162019437D01*
X113332756Y-162488591D01*
X114825743Y-162669963D01*
X116325428Y-162556583D01*
X117774176Y-162152807D01*
X119116314Y-161474153D01*
X119406092Y-161280530D01*
X120222068Y-160401674D01*
X115000000Y-155179605D01*
X109777932Y-160401674D01*
X100222068Y-160401674D01*
X95000000Y-155179605D01*
X89777932Y-160401674D01*
X80222068Y-160401674D01*
X75000000Y-155179605D01*
X69777932Y-160401674D01*
X60222068Y-160401674D01*
X55000000Y-155179605D01*
X49777932Y-160401674D01*
X40222068Y-160401674D01*
X35000000Y-155179605D01*
X29777932Y-160401674D01*
X25660000Y-160401674D01*
X25660000Y-154825743D01*
X27330037Y-154825743D01*
X27443417Y-156325428D01*
X27847193Y-157774176D01*
X28525847Y-159116314D01*
X28719470Y-159406092D01*
X29598326Y-160222068D01*
X34820395Y-155000000D01*
X35179605Y-155000000D01*
X40401674Y-160222068D01*
X41280530Y-159406092D01*
X42019437Y-158096160D01*
X42488591Y-156667244D01*
X42669963Y-155174257D01*
X42643615Y-154825743D01*
X47330037Y-154825743D01*
X47443417Y-156325428D01*
X47847193Y-157774176D01*
X48525847Y-159116314D01*
X48719470Y-159406092D01*
X49598326Y-160222068D01*
X54820395Y-155000000D01*
X55179605Y-155000000D01*
X60401674Y-160222068D01*
X61280530Y-159406092D01*
X62019437Y-158096160D01*
X62488591Y-156667244D01*
X62669963Y-155174257D01*
X62643615Y-154825743D01*
X67330037Y-154825743D01*
X67443417Y-156325428D01*
X67847193Y-157774176D01*
X68525847Y-159116314D01*
X68719470Y-159406092D01*
X69598326Y-160222068D01*
X74820395Y-155000000D01*
X75179605Y-155000000D01*
X80401674Y-160222068D01*
X81280530Y-159406092D01*
X82019437Y-158096160D01*
X82488591Y-156667244D01*
X82669963Y-155174257D01*
X82643615Y-154825743D01*
X87330037Y-154825743D01*
X87443417Y-156325428D01*
X87847193Y-157774176D01*
X88525847Y-159116314D01*
X88719470Y-159406092D01*
X89598326Y-160222068D01*
X94820395Y-155000000D01*
X95179605Y-155000000D01*
X100401674Y-160222068D01*
X101280530Y-159406092D01*
X102019437Y-158096160D01*
X102488591Y-156667244D01*
X102669963Y-155174257D01*
X102643615Y-154825743D01*
X107330037Y-154825743D01*
X107443417Y-156325428D01*
X107847193Y-157774176D01*
X108525847Y-159116314D01*
X108719470Y-159406092D01*
X109598326Y-160222068D01*
X114820395Y-155000000D01*
X115179605Y-155000000D01*
X120401674Y-160222068D01*
X121280530Y-159406092D01*
X122019437Y-158096160D01*
X122488591Y-156667244D01*
X122669963Y-155174257D01*
X122556583Y-153674572D01*
X122152807Y-152225824D01*
X121474153Y-150883686D01*
X121280530Y-150593908D01*
X120401674Y-149777932D01*
X115179605Y-155000000D01*
X114820395Y-155000000D01*
X109598326Y-149777932D01*
X108719470Y-150593908D01*
X107980563Y-151903840D01*
X107511409Y-153332756D01*
X107330037Y-154825743D01*
X102643615Y-154825743D01*
X102556583Y-153674572D01*
X102152807Y-152225824D01*
X101474153Y-150883686D01*
X101280530Y-150593908D01*
X100401674Y-149777932D01*
X95179605Y-155000000D01*
X94820395Y-155000000D01*
X89598326Y-149777932D01*
X88719470Y-150593908D01*
X87980563Y-151903840D01*
X87511409Y-153332756D01*
X87330037Y-154825743D01*
X82643615Y-154825743D01*
X82556583Y-153674572D01*
X82152807Y-152225824D01*
X81474153Y-150883686D01*
X81280530Y-150593908D01*
X80401674Y-149777932D01*
X75179605Y-155000000D01*
X74820395Y-155000000D01*
X69598326Y-149777932D01*
X68719470Y-150593908D01*
X67980563Y-151903840D01*
X67511409Y-153332756D01*
X67330037Y-154825743D01*
X62643615Y-154825743D01*
X62556583Y-153674572D01*
X62152807Y-152225824D01*
X61474153Y-150883686D01*
X61280530Y-150593908D01*
X60401674Y-149777932D01*
X55179605Y-155000000D01*
X54820395Y-155000000D01*
X49598326Y-149777932D01*
X48719470Y-150593908D01*
X47980563Y-151903840D01*
X47511409Y-153332756D01*
X47330037Y-154825743D01*
X42643615Y-154825743D01*
X42556583Y-153674572D01*
X42152807Y-152225824D01*
X41474153Y-150883686D01*
X41280530Y-150593908D01*
X40401674Y-149777932D01*
X35179605Y-155000000D01*
X34820395Y-155000000D01*
X29598326Y-149777932D01*
X28719470Y-150593908D01*
X27980563Y-151903840D01*
X27511409Y-153332756D01*
X27330037Y-154825743D01*
X25660000Y-154825743D01*
X25660000Y-149598326D01*
X29777932Y-149598326D01*
X35000000Y-154820395D01*
X40222068Y-149598326D01*
X49777932Y-149598326D01*
X55000000Y-154820395D01*
X60222068Y-149598326D01*
X69777932Y-149598326D01*
X75000000Y-154820395D01*
X80222068Y-149598326D01*
X89777932Y-149598326D01*
X95000000Y-154820395D01*
X100222068Y-149598326D01*
X109777932Y-149598326D01*
X115000000Y-154820395D01*
X120222068Y-149598326D01*
X119406092Y-148719470D01*
X118096160Y-147980563D01*
X116667244Y-147511409D01*
X115174257Y-147330037D01*
X113674572Y-147443417D01*
X112225824Y-147847193D01*
X110883686Y-148525847D01*
X110593908Y-148719470D01*
X109777932Y-149598326D01*
X100222068Y-149598326D01*
X99406092Y-148719470D01*
X98096160Y-147980563D01*
X96667244Y-147511409D01*
X95174257Y-147330037D01*
X93674572Y-147443417D01*
X92225824Y-147847193D01*
X90883686Y-148525847D01*
X90593908Y-148719470D01*
X89777932Y-149598326D01*
X80222068Y-149598326D01*
X79406092Y-148719470D01*
X78096160Y-147980563D01*
X76667244Y-147511409D01*
X75174257Y-147330037D01*
X73674572Y-147443417D01*
X72225824Y-147847193D01*
X70883686Y-148525847D01*
X70593908Y-148719470D01*
X69777932Y-149598326D01*
X60222068Y-149598326D01*
X59406092Y-148719470D01*
X58096160Y-147980563D01*
X56667244Y-147511409D01*
X55174257Y-147330037D01*
X53674572Y-147443417D01*
X52225824Y-147847193D01*
X50883686Y-148525847D01*
X50593908Y-148719470D01*
X49777932Y-149598326D01*
X40222068Y-149598326D01*
X39406092Y-148719470D01*
X38096160Y-147980563D01*
X36667244Y-147511409D01*
X35174257Y-147330037D01*
X33674572Y-147443417D01*
X32225824Y-147847193D01*
X30883686Y-148525847D01*
X30593908Y-148719470D01*
X29777932Y-149598326D01*
X25660000Y-149598326D01*
X25660000Y-135401674D01*
X29777932Y-135401674D01*
X30593908Y-136280530D01*
X31903840Y-137019437D01*
X33332756Y-137488591D01*
X34825743Y-137669963D01*
X36325428Y-137556583D01*
X37774176Y-137152807D01*
X39116314Y-136474153D01*
X39406092Y-136280530D01*
X40222068Y-135401674D01*
X49777932Y-135401674D01*
X50593908Y-136280530D01*
X51903840Y-137019437D01*
X53332756Y-137488591D01*
X54825743Y-137669963D01*
X56325428Y-137556583D01*
X57774176Y-137152807D01*
X59116314Y-136474153D01*
X59406092Y-136280530D01*
X60222068Y-135401674D01*
X89777932Y-135401674D01*
X90593908Y-136280530D01*
X91903840Y-137019437D01*
X93332756Y-137488591D01*
X94825743Y-137669963D01*
X96325428Y-137556583D01*
X97774176Y-137152807D01*
X99116314Y-136474153D01*
X99406092Y-136280530D01*
X100222068Y-135401674D01*
X109777932Y-135401674D01*
X110593908Y-136280530D01*
X111903840Y-137019437D01*
X113332756Y-137488591D01*
X114825743Y-137669963D01*
X116325428Y-137556583D01*
X117774176Y-137152807D01*
X119116314Y-136474153D01*
X119406092Y-136280530D01*
X120222068Y-135401674D01*
X115000000Y-130179605D01*
X109777932Y-135401674D01*
X100222068Y-135401674D01*
X95000000Y-130179605D01*
X89777932Y-135401674D01*
X60222068Y-135401674D01*
X55000000Y-130179605D01*
X49777932Y-135401674D01*
X40222068Y-135401674D01*
X35000000Y-130179605D01*
X29777932Y-135401674D01*
X25660000Y-135401674D01*
X25660000Y-129825743D01*
X27330037Y-129825743D01*
X27443417Y-131325428D01*
X27847193Y-132774176D01*
X28525847Y-134116314D01*
X28719470Y-134406092D01*
X29598326Y-135222068D01*
X34820395Y-130000000D01*
X35179605Y-130000000D01*
X40401674Y-135222068D01*
X41280530Y-134406092D01*
X42019437Y-133096160D01*
X42488591Y-131667244D01*
X42669963Y-130174257D01*
X42643615Y-129825743D01*
X47330037Y-129825743D01*
X47443417Y-131325428D01*
X47847193Y-132774176D01*
X48525847Y-134116314D01*
X48719470Y-134406092D01*
X49598326Y-135222068D01*
X54820395Y-130000000D01*
X55179605Y-130000000D01*
X60401674Y-135222068D01*
X61280530Y-134406092D01*
X61721145Y-133624971D01*
X71554634Y-133624971D01*
X72070783Y-134247788D01*
X72955768Y-134737630D01*
X73919314Y-135045407D01*
X74924389Y-135159293D01*
X75932370Y-135074910D01*
X76904520Y-134795501D01*
X77803481Y-134331803D01*
X77929217Y-134247788D01*
X78445366Y-133624971D01*
X75000000Y-130179605D01*
X71554634Y-133624971D01*
X61721145Y-133624971D01*
X62019437Y-133096160D01*
X62488591Y-131667244D01*
X62669963Y-130174257D01*
X62651073Y-129924389D01*
X69840707Y-129924389D01*
X69925090Y-130932370D01*
X70204499Y-131904520D01*
X70668197Y-132803481D01*
X70752212Y-132929217D01*
X71375029Y-133445366D01*
X74820395Y-130000000D01*
X75179605Y-130000000D01*
X78624971Y-133445366D01*
X79247788Y-132929217D01*
X79737630Y-132044232D01*
X80045407Y-131080686D01*
X80159293Y-130075611D01*
X80138376Y-129825743D01*
X87330037Y-129825743D01*
X87443417Y-131325428D01*
X87847193Y-132774176D01*
X88525847Y-134116314D01*
X88719470Y-134406092D01*
X89598326Y-135222068D01*
X94820395Y-130000000D01*
X95179605Y-130000000D01*
X100401674Y-135222068D01*
X101280530Y-134406092D01*
X102019437Y-133096160D01*
X102488591Y-131667244D01*
X102669963Y-130174257D01*
X102643615Y-129825743D01*
X107330037Y-129825743D01*
X107443417Y-131325428D01*
X107847193Y-132774176D01*
X108525847Y-134116314D01*
X108719470Y-134406092D01*
X109598326Y-135222068D01*
X114820395Y-130000000D01*
X115179605Y-130000000D01*
X120401674Y-135222068D01*
X121280530Y-134406092D01*
X122019437Y-133096160D01*
X122488591Y-131667244D01*
X122669963Y-130174257D01*
X122556583Y-128674572D01*
X122152807Y-127225824D01*
X121474153Y-125883686D01*
X121280530Y-125593908D01*
X120401674Y-124777932D01*
X115179605Y-130000000D01*
X114820395Y-130000000D01*
X109598326Y-124777932D01*
X108719470Y-125593908D01*
X107980563Y-126903840D01*
X107511409Y-128332756D01*
X107330037Y-129825743D01*
X102643615Y-129825743D01*
X102556583Y-128674572D01*
X102152807Y-127225824D01*
X101474153Y-125883686D01*
X101280530Y-125593908D01*
X100401674Y-124777932D01*
X95179605Y-130000000D01*
X94820395Y-130000000D01*
X89598326Y-124777932D01*
X88719470Y-125593908D01*
X87980563Y-126903840D01*
X87511409Y-128332756D01*
X87330037Y-129825743D01*
X80138376Y-129825743D01*
X80074910Y-129067630D01*
X79795501Y-128095480D01*
X79331803Y-127196519D01*
X79247788Y-127070783D01*
X78624971Y-126554634D01*
X75179605Y-130000000D01*
X74820395Y-130000000D01*
X71375029Y-126554634D01*
X70752212Y-127070783D01*
X70262370Y-127955768D01*
X69954593Y-128919314D01*
X69840707Y-129924389D01*
X62651073Y-129924389D01*
X62556583Y-128674572D01*
X62152807Y-127225824D01*
X61722602Y-126375029D01*
X71554634Y-126375029D01*
X75000000Y-129820395D01*
X78445366Y-126375029D01*
X77929217Y-125752212D01*
X77044232Y-125262370D01*
X76080686Y-124954593D01*
X75075611Y-124840707D01*
X74067630Y-124925090D01*
X73095480Y-125204499D01*
X72196519Y-125668197D01*
X72070783Y-125752212D01*
X71554634Y-126375029D01*
X61722602Y-126375029D01*
X61474153Y-125883686D01*
X61280530Y-125593908D01*
X60401674Y-124777932D01*
X55179605Y-130000000D01*
X54820395Y-130000000D01*
X49598326Y-124777932D01*
X48719470Y-125593908D01*
X47980563Y-126903840D01*
X47511409Y-128332756D01*
X47330037Y-129825743D01*
X42643615Y-129825743D01*
X42556583Y-128674572D01*
X42152807Y-127225824D01*
X41474153Y-125883686D01*
X41280530Y-125593908D01*
X40401674Y-124777932D01*
X35179605Y-130000000D01*
X34820395Y-130000000D01*
X29598326Y-124777932D01*
X28719470Y-125593908D01*
X27980563Y-126903840D01*
X27511409Y-128332756D01*
X27330037Y-129825743D01*
X25660000Y-129825743D01*
X25660000Y-124598326D01*
X29777932Y-124598326D01*
X35000000Y-129820395D01*
X40222068Y-124598326D01*
X49777932Y-124598326D01*
X55000000Y-129820395D01*
X60222068Y-124598326D01*
X89777932Y-124598326D01*
X95000000Y-129820395D01*
X100222068Y-124598326D01*
X109777932Y-124598326D01*
X115000000Y-129820395D01*
X120222068Y-124598326D01*
X119406092Y-123719470D01*
X118096160Y-122980563D01*
X116667244Y-122511409D01*
X115174257Y-122330037D01*
X113674572Y-122443417D01*
X112225824Y-122847193D01*
X110883686Y-123525847D01*
X110593908Y-123719470D01*
X109777932Y-124598326D01*
X100222068Y-124598326D01*
X99406092Y-123719470D01*
X98096160Y-122980563D01*
X96667244Y-122511409D01*
X95174257Y-122330037D01*
X93674572Y-122443417D01*
X92225824Y-122847193D01*
X90883686Y-123525847D01*
X90593908Y-123719470D01*
X89777932Y-124598326D01*
X60222068Y-124598326D01*
X59406092Y-123719470D01*
X58096160Y-122980563D01*
X56667244Y-122511409D01*
X55174257Y-122330037D01*
X53674572Y-122443417D01*
X52225824Y-122847193D01*
X50883686Y-123525847D01*
X50593908Y-123719470D01*
X49777932Y-124598326D01*
X40222068Y-124598326D01*
X39406092Y-123719470D01*
X38096160Y-122980563D01*
X36667244Y-122511409D01*
X35174257Y-122330037D01*
X33674572Y-122443417D01*
X32225824Y-122847193D01*
X30883686Y-123525847D01*
X30593908Y-123719470D01*
X29777932Y-124598326D01*
X25660000Y-124598326D01*
X25660000Y-93624971D01*
X46554634Y-93624971D01*
X47070783Y-94247788D01*
X47955768Y-94737630D01*
X48919314Y-95045407D01*
X49924389Y-95159293D01*
X50932370Y-95074910D01*
X51904520Y-94795501D01*
X52803481Y-94331803D01*
X52929217Y-94247788D01*
X53445366Y-93624971D01*
X96554634Y-93624971D01*
X97070783Y-94247788D01*
X97955768Y-94737630D01*
X98919314Y-95045407D01*
X99924389Y-95159293D01*
X100932370Y-95074910D01*
X101904520Y-94795501D01*
X102803481Y-94331803D01*
X102929217Y-94247788D01*
X103445366Y-93624971D01*
X100000000Y-90179605D01*
X96554634Y-93624971D01*
X53445366Y-93624971D01*
X50000000Y-90179605D01*
X46554634Y-93624971D01*
X25660000Y-93624971D01*
X25660000Y-89924389D01*
X44840707Y-89924389D01*
X44925090Y-90932370D01*
X45204499Y-91904520D01*
X45668197Y-92803481D01*
X45752212Y-92929217D01*
X46375029Y-93445366D01*
X49820395Y-90000000D01*
X50179605Y-90000000D01*
X53624971Y-93445366D01*
X54247788Y-92929217D01*
X54737630Y-92044232D01*
X55045407Y-91080686D01*
X55159293Y-90075611D01*
X55146634Y-89924389D01*
X94840707Y-89924389D01*
X94925090Y-90932370D01*
X95204499Y-91904520D01*
X95668197Y-92803481D01*
X95752212Y-92929217D01*
X96375029Y-93445366D01*
X99820395Y-90000000D01*
X100179605Y-90000000D01*
X103624971Y-93445366D01*
X104247788Y-92929217D01*
X104737630Y-92044232D01*
X105045407Y-91080686D01*
X105159293Y-90075611D01*
X105074910Y-89067630D01*
X104795501Y-88095480D01*
X104331803Y-87196519D01*
X104247788Y-87070783D01*
X103624971Y-86554634D01*
X100179605Y-90000000D01*
X99820395Y-90000000D01*
X96375029Y-86554634D01*
X95752212Y-87070783D01*
X95262370Y-87955768D01*
X94954593Y-88919314D01*
X94840707Y-89924389D01*
X55146634Y-89924389D01*
X55074910Y-89067630D01*
X54795501Y-88095480D01*
X54331803Y-87196519D01*
X54247788Y-87070783D01*
X53624971Y-86554634D01*
X50179605Y-90000000D01*
X49820395Y-90000000D01*
X46375029Y-86554634D01*
X45752212Y-87070783D01*
X45262370Y-87955768D01*
X44954593Y-88919314D01*
X44840707Y-89924389D01*
X25660000Y-89924389D01*
X25660000Y-86375029D01*
X46554634Y-86375029D01*
X50000000Y-89820395D01*
X53445366Y-86375029D01*
X96554634Y-86375029D01*
X100000000Y-89820395D01*
X103445366Y-86375029D01*
X102929217Y-85752212D01*
X102044232Y-85262370D01*
X101080686Y-84954593D01*
X100075611Y-84840707D01*
X99067630Y-84925090D01*
X98095480Y-85204499D01*
X97196519Y-85668197D01*
X97070783Y-85752212D01*
X96554634Y-86375029D01*
X53445366Y-86375029D01*
X52929217Y-85752212D01*
X52044232Y-85262370D01*
X51080686Y-84954593D01*
X50075611Y-84840707D01*
X49067630Y-84925090D01*
X48095480Y-85204499D01*
X47196519Y-85668197D01*
X47070783Y-85752212D01*
X46554634Y-86375029D01*
X25660000Y-86375029D01*
X25660000Y-53624971D01*
X46554634Y-53624971D01*
X47070783Y-54247788D01*
X47955768Y-54737630D01*
X48919314Y-55045407D01*
X49924389Y-55159293D01*
X50932370Y-55074910D01*
X51904520Y-54795501D01*
X52803481Y-54331803D01*
X52929217Y-54247788D01*
X53445366Y-53624971D01*
X96554634Y-53624971D01*
X97070783Y-54247788D01*
X97955768Y-54737630D01*
X98919314Y-55045407D01*
X99924389Y-55159293D01*
X100932370Y-55074910D01*
X101904520Y-54795501D01*
X102803481Y-54331803D01*
X102929217Y-54247788D01*
X103445366Y-53624971D01*
X100000000Y-50179605D01*
X96554634Y-53624971D01*
X53445366Y-53624971D01*
X50000000Y-50179605D01*
X46554634Y-53624971D01*
X25660000Y-53624971D01*
X25660000Y-49924389D01*
X44840707Y-49924389D01*
X44925090Y-50932370D01*
X45204499Y-51904520D01*
X45668197Y-52803481D01*
X45752212Y-52929217D01*
X46375029Y-53445366D01*
X49820395Y-50000000D01*
X50179605Y-50000000D01*
X53624971Y-53445366D01*
X54247788Y-52929217D01*
X54737630Y-52044232D01*
X55045407Y-51080686D01*
X55159293Y-50075611D01*
X55146634Y-49924389D01*
X94840707Y-49924389D01*
X94925090Y-50932370D01*
X95204499Y-51904520D01*
X95668197Y-52803481D01*
X95752212Y-52929217D01*
X96375029Y-53445366D01*
X99820395Y-50000000D01*
X100179605Y-50000000D01*
X103624971Y-53445366D01*
X104247788Y-52929217D01*
X104737630Y-52044232D01*
X105045407Y-51080686D01*
X105159293Y-50075611D01*
X105074910Y-49067630D01*
X104795501Y-48095480D01*
X104331803Y-47196519D01*
X104247788Y-47070783D01*
X103624971Y-46554634D01*
X100179605Y-50000000D01*
X99820395Y-50000000D01*
X96375029Y-46554634D01*
X95752212Y-47070783D01*
X95262370Y-47955768D01*
X94954593Y-48919314D01*
X94840707Y-49924389D01*
X55146634Y-49924389D01*
X55074910Y-49067630D01*
X54795501Y-48095480D01*
X54331803Y-47196519D01*
X54247788Y-47070783D01*
X53624971Y-46554634D01*
X50179605Y-50000000D01*
X49820395Y-50000000D01*
X46375029Y-46554634D01*
X45752212Y-47070783D01*
X45262370Y-47955768D01*
X44954593Y-48919314D01*
X44840707Y-49924389D01*
X25660000Y-49924389D01*
X25660000Y-46375029D01*
X46554634Y-46375029D01*
X50000000Y-49820395D01*
X53445366Y-46375029D01*
X96554634Y-46375029D01*
X100000000Y-49820395D01*
X103445366Y-46375029D01*
X102929217Y-45752212D01*
X102044232Y-45262370D01*
X101080686Y-44954593D01*
X100075611Y-44840707D01*
X99067630Y-44925090D01*
X98095480Y-45204499D01*
X97196519Y-45668197D01*
X97070783Y-45752212D01*
X96554634Y-46375029D01*
X53445366Y-46375029D01*
X52929217Y-45752212D01*
X52044232Y-45262370D01*
X51080686Y-44954593D01*
X50075611Y-44840707D01*
X49067630Y-44925090D01*
X48095480Y-45204499D01*
X47196519Y-45668197D01*
X47070783Y-45752212D01*
X46554634Y-46375029D01*
X25660000Y-46375029D01*
X25660000Y-13624971D01*
X71554634Y-13624971D01*
X72070783Y-14247788D01*
X72955768Y-14737630D01*
X73919314Y-15045407D01*
X74924389Y-15159293D01*
X75932370Y-15074910D01*
X76904520Y-14795501D01*
X77803481Y-14331803D01*
X77929217Y-14247788D01*
X78445366Y-13624971D01*
X75000000Y-10179605D01*
X71554634Y-13624971D01*
X25660000Y-13624971D01*
X25660000Y-9924389D01*
X69840707Y-9924389D01*
X69925090Y-10932370D01*
X70204499Y-11904520D01*
X70668197Y-12803481D01*
X70752212Y-12929217D01*
X71375029Y-13445366D01*
X74820395Y-10000000D01*
X75179605Y-10000000D01*
X78624971Y-13445366D01*
X79247788Y-12929217D01*
X79737630Y-12044232D01*
X80045407Y-11080686D01*
X80159293Y-10075611D01*
X80125054Y-9666607D01*
X96615000Y-9666607D01*
X96615000Y-10333393D01*
X96745083Y-10987368D01*
X97000252Y-11603399D01*
X97370698Y-12157812D01*
X97842188Y-12629302D01*
X98396601Y-12999748D01*
X99012632Y-13254917D01*
X99666607Y-13385000D01*
X100333393Y-13385000D01*
X100987368Y-13254917D01*
X101603399Y-12999748D01*
X102157812Y-12629302D01*
X102629302Y-12157812D01*
X102999748Y-11603399D01*
X103254917Y-10987368D01*
X103385000Y-10333393D01*
X103385000Y-9666607D01*
X103254917Y-9012632D01*
X102999748Y-8396601D01*
X102629302Y-7842188D01*
X102157812Y-7370698D01*
X101603399Y-7000252D01*
X100987368Y-6745083D01*
X100333393Y-6615000D01*
X99666607Y-6615000D01*
X99012632Y-6745083D01*
X98396601Y-7000252D01*
X97842188Y-7370698D01*
X97370698Y-7842188D01*
X97000252Y-8396601D01*
X96745083Y-9012632D01*
X96615000Y-9666607D01*
X80125054Y-9666607D01*
X80074910Y-9067630D01*
X79795501Y-8095480D01*
X79331803Y-7196519D01*
X79247788Y-7070783D01*
X78624971Y-6554634D01*
X75179605Y-10000000D01*
X74820395Y-10000000D01*
X71375029Y-6554634D01*
X70752212Y-7070783D01*
X70262370Y-7955768D01*
X69954593Y-8919314D01*
X69840707Y-9924389D01*
X25660000Y-9924389D01*
X25660000Y-6375029D01*
X71554634Y-6375029D01*
X75000000Y-9820395D01*
X78445366Y-6375029D01*
X77929217Y-5752212D01*
X77044232Y-5262370D01*
X76080686Y-4954593D01*
X75075611Y-4840707D01*
X74067630Y-4925090D01*
X73095480Y-5204499D01*
X72196519Y-5668197D01*
X72070783Y-5752212D01*
X71554634Y-6375029D01*
X25660000Y-6375029D01*
X25660000Y15807286D01*
X25738519Y15641669D01*
X26046970Y15226576D01*
X26430475Y14879635D01*
X26874296Y14614178D01*
X27361377Y14440407D01*
X27873000Y14365000D01*
X29273000Y14365000D01*
X29273000Y16873000D01*
X29527000Y16873000D01*
X29527000Y14365000D01*
X30927000Y14365000D01*
X31438623Y14440407D01*
X31925704Y14614178D01*
X32369525Y14879635D01*
X32753030Y15226576D01*
X33061481Y15641669D01*
X33283025Y16108962D01*
X33379667Y16462838D01*
X116620333Y16462838D01*
X116716975Y16108962D01*
X116938519Y15641669D01*
X117246970Y15226576D01*
X117630475Y14879635D01*
X118074296Y14614178D01*
X118561377Y14440407D01*
X119073000Y14365000D01*
X120473000Y14365000D01*
X120473000Y16873000D01*
X116727009Y16873000D01*
X116620333Y16462838D01*
X33379667Y16462838D01*
X33272991Y16873000D01*
X29527000Y16873000D01*
X29273000Y16873000D01*
X29253000Y16873000D01*
X29253000Y17127000D01*
X29273000Y17127000D01*
X29273000Y17147000D01*
X29527000Y17147000D01*
X29527000Y17127000D01*
X33272991Y17127000D01*
X33379667Y17537162D01*
X33283025Y17891038D01*
X33061481Y18358331D01*
X32753030Y18773424D01*
X32369525Y19120365D01*
X32002314Y19340000D01*
X117997686Y19340000D01*
X117630475Y19120365D01*
G37*
%TD.AperFunction*%
%TD*%
M02*
