M48
; DRILL file {KiCad 5.1.8-db9833491~88~ubuntu20.04.1} date Wed Dec  9 09:22:24 2020
; FORMAT={-:-/ absolute / inch / decimal}
; #@! TF.CreationDate,2020-12-09T09:22:24-05:00
; #@! TF.GenerationSoftware,Kicad,Pcbnew,5.1.8-db9833491~88~ubuntu20.04.1
; #@! TF.FileFunction,Plated,1,2,PTH
FMAT,2
INCH
T1C0.1260
T2C0.1969
T3C0.2756
T4C0.3937
%
G90
G05
T2
X3.937Y-0.3937
T3
X2.9528Y-0.3937
X3.937Y-1.9685
X3.937Y-3.5433
X1.9685Y-1.9685
X2.9528Y-5.1181
X1.9685Y-3.5433
T4
X2.1654Y-6.1024
X2.1654Y-5.1181
X1.378Y-6.1024
X3.7402Y-5.1181
X2.9528Y-6.1024
X3.7402Y-6.1024
X4.5276Y-5.1181
X1.378Y-5.1181
X4.5276Y-6.1024
T1
G00X1.1024Y0.6693
M15
G01X1.2126Y0.6693
M16
G05
G00X4.7992Y-6.9685
M15
G01X4.689Y-6.9685
M16
G05
G00X4.8031Y0.6693
M15
G01X4.6929Y0.6693
M16
G05
G00X1.1024Y-6.9685
M15
G01X1.2126Y-6.9685
M16
G05
T0
M30
