%TF.GenerationSoftware,KiCad,Pcbnew,5.1.6-c6e7f7d~87~ubuntu20.04.1*%
%TF.CreationDate,2020-10-18T19:42:46-04:00*%
%TF.ProjectId,skvcf_panel,736b7663-665f-4706-916e-656c2e6b6963,rev?*%
%TF.SameCoordinates,Original*%
%TF.FileFunction,Copper,L2,Bot*%
%TF.FilePolarity,Positive*%
%FSLAX46Y46*%
G04 Gerber Fmt 4.6, Leading zero omitted, Abs format (unit mm)*
G04 Created by KiCad (PCBNEW 5.1.6-c6e7f7d~87~ubuntu20.04.1) date 2020-10-18 19:42:46*
%MOMM*%
%LPD*%
G01*
G04 APERTURE LIST*
%TA.AperFunction,ComponentPad*%
%ADD10O,6.800000X4.000000*%
%TD*%
%TA.AperFunction,ComponentPad*%
%ADD11C,14.000000*%
%TD*%
%TA.AperFunction,ComponentPad*%
%ADD12C,9.000000*%
%TD*%
%TA.AperFunction,Conductor*%
%ADD13C,0.254000*%
%TD*%
G04 APERTURE END LIST*
D10*
%TO.P,H11,1*%
%TO.N,GND*%
X-20600000Y53000000D03*
%TD*%
%TO.P,H10,1*%
%TO.N,GND*%
X20600000Y247000000D03*
%TD*%
%TO.P,H9,1*%
%TO.N,GND*%
X-20600000Y247000000D03*
%TD*%
%TO.P,H8,1*%
%TO.N,GND*%
X20600000Y53000000D03*
%TD*%
D11*
%TO.P,H7,1*%
%TO.N,GND*%
X12500000Y75000000D03*
%TD*%
%TO.P,H6,1*%
%TO.N,GND*%
X-12500000Y75000000D03*
%TD*%
%TO.P,H5,1*%
%TO.N,GND*%
X12500000Y100000000D03*
%TD*%
%TO.P,H4,1*%
%TO.N,GND*%
X-12500000Y100000000D03*
%TD*%
D12*
%TO.P,H3,1*%
%TO.N,GND*%
X0Y125000000D03*
%TD*%
%TO.P,H2,1*%
%TO.N,GND*%
X0Y220000000D03*
%TD*%
%TO.P,H1,1*%
%TO.N,GND*%
X0Y169246800D03*
%TD*%
D13*
%TO.N,GND*%
G36*
X17630475Y249120365D02*
G01*
X17246970Y248773424D01*
X16938519Y248358331D01*
X16716975Y247891038D01*
X16620333Y247537162D01*
X16727009Y247127000D01*
X20473000Y247127000D01*
X20473000Y247147000D01*
X20727000Y247147000D01*
X20727000Y247127000D01*
X20747000Y247127000D01*
X20747000Y246873000D01*
X20727000Y246873000D01*
X20727000Y244365000D01*
X22127000Y244365000D01*
X22638623Y244440407D01*
X23125704Y244614178D01*
X23569525Y244879635D01*
X23953030Y245226576D01*
X24261481Y245641669D01*
X24340000Y245807286D01*
X24340001Y54192712D01*
X24261481Y54358331D01*
X23953030Y54773424D01*
X23569525Y55120365D01*
X23125704Y55385822D01*
X22638623Y55559593D01*
X22127000Y55635000D01*
X20727000Y55635000D01*
X20727000Y53127000D01*
X20747000Y53127000D01*
X20747000Y52873000D01*
X20727000Y52873000D01*
X20727000Y52853000D01*
X20473000Y52853000D01*
X20473000Y52873000D01*
X16727009Y52873000D01*
X16620333Y52462838D01*
X16716975Y52108962D01*
X16938519Y51641669D01*
X17246970Y51226576D01*
X17630475Y50879635D01*
X17997686Y50660000D01*
X-17997686Y50660000D01*
X-17630475Y50879635D01*
X-17246970Y51226576D01*
X-16938519Y51641669D01*
X-16716975Y52108962D01*
X-16620333Y52462838D01*
X-16727009Y52873000D01*
X-20473000Y52873000D01*
X-20473000Y52853000D01*
X-20727000Y52853000D01*
X-20727000Y52873000D01*
X-20747000Y52873000D01*
X-20747000Y53127000D01*
X-20727000Y53127000D01*
X-20727000Y55635000D01*
X-20473000Y55635000D01*
X-20473000Y53127000D01*
X-16727009Y53127000D01*
X-16620333Y53537162D01*
X16620333Y53537162D01*
X16727009Y53127000D01*
X20473000Y53127000D01*
X20473000Y55635000D01*
X19073000Y55635000D01*
X18561377Y55559593D01*
X18074296Y55385822D01*
X17630475Y55120365D01*
X17246970Y54773424D01*
X16938519Y54358331D01*
X16716975Y53891038D01*
X16620333Y53537162D01*
X-16620333Y53537162D01*
X-16716975Y53891038D01*
X-16938519Y54358331D01*
X-17246970Y54773424D01*
X-17630475Y55120365D01*
X-18074296Y55385822D01*
X-18561377Y55559593D01*
X-19073000Y55635000D01*
X-20473000Y55635000D01*
X-20727000Y55635000D01*
X-22127000Y55635000D01*
X-22638623Y55559593D01*
X-23125704Y55385822D01*
X-23569525Y55120365D01*
X-23953030Y54773424D01*
X-24261481Y54358331D01*
X-24340000Y54192714D01*
X-24340000Y69598326D01*
X-17722068Y69598326D01*
X-16906092Y68719470D01*
X-15596160Y67980563D01*
X-14167244Y67511409D01*
X-12674257Y67330037D01*
X-11174572Y67443417D01*
X-9725824Y67847193D01*
X-8383686Y68525847D01*
X-8093908Y68719470D01*
X-7277932Y69598326D01*
X7277932Y69598326D01*
X8093908Y68719470D01*
X9403840Y67980563D01*
X10832756Y67511409D01*
X12325743Y67330037D01*
X13825428Y67443417D01*
X15274176Y67847193D01*
X16616314Y68525847D01*
X16906092Y68719470D01*
X17722068Y69598326D01*
X12500000Y74820395D01*
X7277932Y69598326D01*
X-7277932Y69598326D01*
X-12500000Y74820395D01*
X-17722068Y69598326D01*
X-24340000Y69598326D01*
X-24340000Y75174257D01*
X-20169963Y75174257D01*
X-20056583Y73674572D01*
X-19652807Y72225824D01*
X-18974153Y70883686D01*
X-18780530Y70593908D01*
X-17901674Y69777932D01*
X-12679605Y75000000D01*
X-12320395Y75000000D01*
X-7098326Y69777932D01*
X-6219470Y70593908D01*
X-5480563Y71903840D01*
X-5011409Y73332756D01*
X-4830037Y74825743D01*
X-4856385Y75174257D01*
X4830037Y75174257D01*
X4943417Y73674572D01*
X5347193Y72225824D01*
X6025847Y70883686D01*
X6219470Y70593908D01*
X7098326Y69777932D01*
X12320395Y75000000D01*
X12679605Y75000000D01*
X17901674Y69777932D01*
X18780530Y70593908D01*
X19519437Y71903840D01*
X19988591Y73332756D01*
X20169963Y74825743D01*
X20056583Y76325428D01*
X19652807Y77774176D01*
X18974153Y79116314D01*
X18780530Y79406092D01*
X17901674Y80222068D01*
X12679605Y75000000D01*
X12320395Y75000000D01*
X7098326Y80222068D01*
X6219470Y79406092D01*
X5480563Y78096160D01*
X5011409Y76667244D01*
X4830037Y75174257D01*
X-4856385Y75174257D01*
X-4943417Y76325428D01*
X-5347193Y77774176D01*
X-6025847Y79116314D01*
X-6219470Y79406092D01*
X-7098326Y80222068D01*
X-12320395Y75000000D01*
X-12679605Y75000000D01*
X-17901674Y80222068D01*
X-18780530Y79406092D01*
X-19519437Y78096160D01*
X-19988591Y76667244D01*
X-20169963Y75174257D01*
X-24340000Y75174257D01*
X-24340000Y80401674D01*
X-17722068Y80401674D01*
X-12500000Y75179605D01*
X-7277932Y80401674D01*
X7277932Y80401674D01*
X12500000Y75179605D01*
X17722068Y80401674D01*
X16906092Y81280530D01*
X15596160Y82019437D01*
X14167244Y82488591D01*
X12674257Y82669963D01*
X11174572Y82556583D01*
X9725824Y82152807D01*
X8383686Y81474153D01*
X8093908Y81280530D01*
X7277932Y80401674D01*
X-7277932Y80401674D01*
X-8093908Y81280530D01*
X-9403840Y82019437D01*
X-10832756Y82488591D01*
X-12325743Y82669963D01*
X-13825428Y82556583D01*
X-15274176Y82152807D01*
X-16616314Y81474153D01*
X-16906092Y81280530D01*
X-17722068Y80401674D01*
X-24340000Y80401674D01*
X-24340000Y94598326D01*
X-17722068Y94598326D01*
X-16906092Y93719470D01*
X-15596160Y92980563D01*
X-14167244Y92511409D01*
X-12674257Y92330037D01*
X-11174572Y92443417D01*
X-9725824Y92847193D01*
X-8383686Y93525847D01*
X-8093908Y93719470D01*
X-7277932Y94598326D01*
X7277932Y94598326D01*
X8093908Y93719470D01*
X9403840Y92980563D01*
X10832756Y92511409D01*
X12325743Y92330037D01*
X13825428Y92443417D01*
X15274176Y92847193D01*
X16616314Y93525847D01*
X16906092Y93719470D01*
X17722068Y94598326D01*
X12500000Y99820395D01*
X7277932Y94598326D01*
X-7277932Y94598326D01*
X-12500000Y99820395D01*
X-17722068Y94598326D01*
X-24340000Y94598326D01*
X-24340000Y100174257D01*
X-20169963Y100174257D01*
X-20056583Y98674572D01*
X-19652807Y97225824D01*
X-18974153Y95883686D01*
X-18780530Y95593908D01*
X-17901674Y94777932D01*
X-12679605Y100000000D01*
X-12320395Y100000000D01*
X-7098326Y94777932D01*
X-6219470Y95593908D01*
X-5480563Y96903840D01*
X-5011409Y98332756D01*
X-4830037Y99825743D01*
X-4856385Y100174257D01*
X4830037Y100174257D01*
X4943417Y98674572D01*
X5347193Y97225824D01*
X6025847Y95883686D01*
X6219470Y95593908D01*
X7098326Y94777932D01*
X12320395Y100000000D01*
X12679605Y100000000D01*
X17901674Y94777932D01*
X18780530Y95593908D01*
X19519437Y96903840D01*
X19988591Y98332756D01*
X20169963Y99825743D01*
X20056583Y101325428D01*
X19652807Y102774176D01*
X18974153Y104116314D01*
X18780530Y104406092D01*
X17901674Y105222068D01*
X12679605Y100000000D01*
X12320395Y100000000D01*
X7098326Y105222068D01*
X6219470Y104406092D01*
X5480563Y103096160D01*
X5011409Y101667244D01*
X4830037Y100174257D01*
X-4856385Y100174257D01*
X-4943417Y101325428D01*
X-5347193Y102774176D01*
X-6025847Y104116314D01*
X-6219470Y104406092D01*
X-7098326Y105222068D01*
X-12320395Y100000000D01*
X-12679605Y100000000D01*
X-17901674Y105222068D01*
X-18780530Y104406092D01*
X-19519437Y103096160D01*
X-19988591Y101667244D01*
X-20169963Y100174257D01*
X-24340000Y100174257D01*
X-24340000Y105401674D01*
X-17722068Y105401674D01*
X-12500000Y100179605D01*
X-7277932Y105401674D01*
X7277932Y105401674D01*
X12500000Y100179605D01*
X17722068Y105401674D01*
X16906092Y106280530D01*
X15596160Y107019437D01*
X14167244Y107488591D01*
X12674257Y107669963D01*
X11174572Y107556583D01*
X9725824Y107152807D01*
X8383686Y106474153D01*
X8093908Y106280530D01*
X7277932Y105401674D01*
X-7277932Y105401674D01*
X-8093908Y106280530D01*
X-9403840Y107019437D01*
X-10832756Y107488591D01*
X-12325743Y107669963D01*
X-13825428Y107556583D01*
X-15274176Y107152807D01*
X-16616314Y106474153D01*
X-16906092Y106280530D01*
X-17722068Y105401674D01*
X-24340000Y105401674D01*
X-24340000Y121375029D01*
X-3445366Y121375029D01*
X-2929217Y120752212D01*
X-2044232Y120262370D01*
X-1080686Y119954593D01*
X-75611Y119840707D01*
X932370Y119925090D01*
X1904520Y120204499D01*
X2803481Y120668197D01*
X2929217Y120752212D01*
X3445366Y121375029D01*
X0Y124820395D01*
X-3445366Y121375029D01*
X-24340000Y121375029D01*
X-24340000Y125075611D01*
X-5159293Y125075611D01*
X-5074910Y124067630D01*
X-4795501Y123095480D01*
X-4331803Y122196519D01*
X-4247788Y122070783D01*
X-3624971Y121554634D01*
X-179605Y125000000D01*
X179605Y125000000D01*
X3624971Y121554634D01*
X4247788Y122070783D01*
X4737630Y122955768D01*
X5045407Y123919314D01*
X5159293Y124924389D01*
X5074910Y125932370D01*
X4795501Y126904520D01*
X4331803Y127803481D01*
X4247788Y127929217D01*
X3624971Y128445366D01*
X179605Y125000000D01*
X-179605Y125000000D01*
X-3624971Y128445366D01*
X-4247788Y127929217D01*
X-4737630Y127044232D01*
X-5045407Y126080686D01*
X-5159293Y125075611D01*
X-24340000Y125075611D01*
X-24340000Y128624971D01*
X-3445366Y128624971D01*
X0Y125179605D01*
X3445366Y128624971D01*
X2929217Y129247788D01*
X2044232Y129737630D01*
X1080686Y130045407D01*
X75611Y130159293D01*
X-932370Y130074910D01*
X-1904520Y129795501D01*
X-2803481Y129331803D01*
X-2929217Y129247788D01*
X-3445366Y128624971D01*
X-24340000Y128624971D01*
X-24340000Y165621829D01*
X-3445366Y165621829D01*
X-2929217Y164999012D01*
X-2044232Y164509170D01*
X-1080686Y164201393D01*
X-75611Y164087507D01*
X932370Y164171890D01*
X1904520Y164451299D01*
X2803481Y164914997D01*
X2929217Y164999012D01*
X3445366Y165621829D01*
X0Y169067195D01*
X-3445366Y165621829D01*
X-24340000Y165621829D01*
X-24340000Y169322411D01*
X-5159293Y169322411D01*
X-5074910Y168314430D01*
X-4795501Y167342280D01*
X-4331803Y166443319D01*
X-4247788Y166317583D01*
X-3624971Y165801434D01*
X-179605Y169246800D01*
X179605Y169246800D01*
X3624971Y165801434D01*
X4247788Y166317583D01*
X4737630Y167202568D01*
X5045407Y168166114D01*
X5159293Y169171189D01*
X5074910Y170179170D01*
X4795501Y171151320D01*
X4331803Y172050281D01*
X4247788Y172176017D01*
X3624971Y172692166D01*
X179605Y169246800D01*
X-179605Y169246800D01*
X-3624971Y172692166D01*
X-4247788Y172176017D01*
X-4737630Y171291032D01*
X-5045407Y170327486D01*
X-5159293Y169322411D01*
X-24340000Y169322411D01*
X-24340000Y172871771D01*
X-3445366Y172871771D01*
X0Y169426405D01*
X3445366Y172871771D01*
X2929217Y173494588D01*
X2044232Y173984430D01*
X1080686Y174292207D01*
X75611Y174406093D01*
X-932370Y174321710D01*
X-1904520Y174042301D01*
X-2803481Y173578603D01*
X-2929217Y173494588D01*
X-3445366Y172871771D01*
X-24340000Y172871771D01*
X-24340000Y216375029D01*
X-3445366Y216375029D01*
X-2929217Y215752212D01*
X-2044232Y215262370D01*
X-1080686Y214954593D01*
X-75611Y214840707D01*
X932370Y214925090D01*
X1904520Y215204499D01*
X2803481Y215668197D01*
X2929217Y215752212D01*
X3445366Y216375029D01*
X0Y219820395D01*
X-3445366Y216375029D01*
X-24340000Y216375029D01*
X-24340000Y220075611D01*
X-5159293Y220075611D01*
X-5074910Y219067630D01*
X-4795501Y218095480D01*
X-4331803Y217196519D01*
X-4247788Y217070783D01*
X-3624971Y216554634D01*
X-179605Y220000000D01*
X179605Y220000000D01*
X3624971Y216554634D01*
X4247788Y217070783D01*
X4737630Y217955768D01*
X5045407Y218919314D01*
X5159293Y219924389D01*
X5074910Y220932370D01*
X4795501Y221904520D01*
X4331803Y222803481D01*
X4247788Y222929217D01*
X3624971Y223445366D01*
X179605Y220000000D01*
X-179605Y220000000D01*
X-3624971Y223445366D01*
X-4247788Y222929217D01*
X-4737630Y222044232D01*
X-5045407Y221080686D01*
X-5159293Y220075611D01*
X-24340000Y220075611D01*
X-24340000Y223624971D01*
X-3445366Y223624971D01*
X0Y220179605D01*
X3445366Y223624971D01*
X2929217Y224247788D01*
X2044232Y224737630D01*
X1080686Y225045407D01*
X75611Y225159293D01*
X-932370Y225074910D01*
X-1904520Y224795501D01*
X-2803481Y224331803D01*
X-2929217Y224247788D01*
X-3445366Y223624971D01*
X-24340000Y223624971D01*
X-24340000Y245807286D01*
X-24261481Y245641669D01*
X-23953030Y245226576D01*
X-23569525Y244879635D01*
X-23125704Y244614178D01*
X-22638623Y244440407D01*
X-22127000Y244365000D01*
X-20727000Y244365000D01*
X-20727000Y246873000D01*
X-20473000Y246873000D01*
X-20473000Y244365000D01*
X-19073000Y244365000D01*
X-18561377Y244440407D01*
X-18074296Y244614178D01*
X-17630475Y244879635D01*
X-17246970Y245226576D01*
X-16938519Y245641669D01*
X-16716975Y246108962D01*
X-16620333Y246462838D01*
X16620333Y246462838D01*
X16716975Y246108962D01*
X16938519Y245641669D01*
X17246970Y245226576D01*
X17630475Y244879635D01*
X18074296Y244614178D01*
X18561377Y244440407D01*
X19073000Y244365000D01*
X20473000Y244365000D01*
X20473000Y246873000D01*
X16727009Y246873000D01*
X16620333Y246462838D01*
X-16620333Y246462838D01*
X-16727009Y246873000D01*
X-20473000Y246873000D01*
X-20727000Y246873000D01*
X-20747000Y246873000D01*
X-20747000Y247127000D01*
X-20727000Y247127000D01*
X-20727000Y247147000D01*
X-20473000Y247147000D01*
X-20473000Y247127000D01*
X-16727009Y247127000D01*
X-16620333Y247537162D01*
X-16716975Y247891038D01*
X-16938519Y248358331D01*
X-17246970Y248773424D01*
X-17630475Y249120365D01*
X-17997686Y249340000D01*
X17997686Y249340000D01*
X17630475Y249120365D01*
G37*
X17630475Y249120365D02*
X17246970Y248773424D01*
X16938519Y248358331D01*
X16716975Y247891038D01*
X16620333Y247537162D01*
X16727009Y247127000D01*
X20473000Y247127000D01*
X20473000Y247147000D01*
X20727000Y247147000D01*
X20727000Y247127000D01*
X20747000Y247127000D01*
X20747000Y246873000D01*
X20727000Y246873000D01*
X20727000Y244365000D01*
X22127000Y244365000D01*
X22638623Y244440407D01*
X23125704Y244614178D01*
X23569525Y244879635D01*
X23953030Y245226576D01*
X24261481Y245641669D01*
X24340000Y245807286D01*
X24340001Y54192712D01*
X24261481Y54358331D01*
X23953030Y54773424D01*
X23569525Y55120365D01*
X23125704Y55385822D01*
X22638623Y55559593D01*
X22127000Y55635000D01*
X20727000Y55635000D01*
X20727000Y53127000D01*
X20747000Y53127000D01*
X20747000Y52873000D01*
X20727000Y52873000D01*
X20727000Y52853000D01*
X20473000Y52853000D01*
X20473000Y52873000D01*
X16727009Y52873000D01*
X16620333Y52462838D01*
X16716975Y52108962D01*
X16938519Y51641669D01*
X17246970Y51226576D01*
X17630475Y50879635D01*
X17997686Y50660000D01*
X-17997686Y50660000D01*
X-17630475Y50879635D01*
X-17246970Y51226576D01*
X-16938519Y51641669D01*
X-16716975Y52108962D01*
X-16620333Y52462838D01*
X-16727009Y52873000D01*
X-20473000Y52873000D01*
X-20473000Y52853000D01*
X-20727000Y52853000D01*
X-20727000Y52873000D01*
X-20747000Y52873000D01*
X-20747000Y53127000D01*
X-20727000Y53127000D01*
X-20727000Y55635000D01*
X-20473000Y55635000D01*
X-20473000Y53127000D01*
X-16727009Y53127000D01*
X-16620333Y53537162D01*
X16620333Y53537162D01*
X16727009Y53127000D01*
X20473000Y53127000D01*
X20473000Y55635000D01*
X19073000Y55635000D01*
X18561377Y55559593D01*
X18074296Y55385822D01*
X17630475Y55120365D01*
X17246970Y54773424D01*
X16938519Y54358331D01*
X16716975Y53891038D01*
X16620333Y53537162D01*
X-16620333Y53537162D01*
X-16716975Y53891038D01*
X-16938519Y54358331D01*
X-17246970Y54773424D01*
X-17630475Y55120365D01*
X-18074296Y55385822D01*
X-18561377Y55559593D01*
X-19073000Y55635000D01*
X-20473000Y55635000D01*
X-20727000Y55635000D01*
X-22127000Y55635000D01*
X-22638623Y55559593D01*
X-23125704Y55385822D01*
X-23569525Y55120365D01*
X-23953030Y54773424D01*
X-24261481Y54358331D01*
X-24340000Y54192714D01*
X-24340000Y69598326D01*
X-17722068Y69598326D01*
X-16906092Y68719470D01*
X-15596160Y67980563D01*
X-14167244Y67511409D01*
X-12674257Y67330037D01*
X-11174572Y67443417D01*
X-9725824Y67847193D01*
X-8383686Y68525847D01*
X-8093908Y68719470D01*
X-7277932Y69598326D01*
X7277932Y69598326D01*
X8093908Y68719470D01*
X9403840Y67980563D01*
X10832756Y67511409D01*
X12325743Y67330037D01*
X13825428Y67443417D01*
X15274176Y67847193D01*
X16616314Y68525847D01*
X16906092Y68719470D01*
X17722068Y69598326D01*
X12500000Y74820395D01*
X7277932Y69598326D01*
X-7277932Y69598326D01*
X-12500000Y74820395D01*
X-17722068Y69598326D01*
X-24340000Y69598326D01*
X-24340000Y75174257D01*
X-20169963Y75174257D01*
X-20056583Y73674572D01*
X-19652807Y72225824D01*
X-18974153Y70883686D01*
X-18780530Y70593908D01*
X-17901674Y69777932D01*
X-12679605Y75000000D01*
X-12320395Y75000000D01*
X-7098326Y69777932D01*
X-6219470Y70593908D01*
X-5480563Y71903840D01*
X-5011409Y73332756D01*
X-4830037Y74825743D01*
X-4856385Y75174257D01*
X4830037Y75174257D01*
X4943417Y73674572D01*
X5347193Y72225824D01*
X6025847Y70883686D01*
X6219470Y70593908D01*
X7098326Y69777932D01*
X12320395Y75000000D01*
X12679605Y75000000D01*
X17901674Y69777932D01*
X18780530Y70593908D01*
X19519437Y71903840D01*
X19988591Y73332756D01*
X20169963Y74825743D01*
X20056583Y76325428D01*
X19652807Y77774176D01*
X18974153Y79116314D01*
X18780530Y79406092D01*
X17901674Y80222068D01*
X12679605Y75000000D01*
X12320395Y75000000D01*
X7098326Y80222068D01*
X6219470Y79406092D01*
X5480563Y78096160D01*
X5011409Y76667244D01*
X4830037Y75174257D01*
X-4856385Y75174257D01*
X-4943417Y76325428D01*
X-5347193Y77774176D01*
X-6025847Y79116314D01*
X-6219470Y79406092D01*
X-7098326Y80222068D01*
X-12320395Y75000000D01*
X-12679605Y75000000D01*
X-17901674Y80222068D01*
X-18780530Y79406092D01*
X-19519437Y78096160D01*
X-19988591Y76667244D01*
X-20169963Y75174257D01*
X-24340000Y75174257D01*
X-24340000Y80401674D01*
X-17722068Y80401674D01*
X-12500000Y75179605D01*
X-7277932Y80401674D01*
X7277932Y80401674D01*
X12500000Y75179605D01*
X17722068Y80401674D01*
X16906092Y81280530D01*
X15596160Y82019437D01*
X14167244Y82488591D01*
X12674257Y82669963D01*
X11174572Y82556583D01*
X9725824Y82152807D01*
X8383686Y81474153D01*
X8093908Y81280530D01*
X7277932Y80401674D01*
X-7277932Y80401674D01*
X-8093908Y81280530D01*
X-9403840Y82019437D01*
X-10832756Y82488591D01*
X-12325743Y82669963D01*
X-13825428Y82556583D01*
X-15274176Y82152807D01*
X-16616314Y81474153D01*
X-16906092Y81280530D01*
X-17722068Y80401674D01*
X-24340000Y80401674D01*
X-24340000Y94598326D01*
X-17722068Y94598326D01*
X-16906092Y93719470D01*
X-15596160Y92980563D01*
X-14167244Y92511409D01*
X-12674257Y92330037D01*
X-11174572Y92443417D01*
X-9725824Y92847193D01*
X-8383686Y93525847D01*
X-8093908Y93719470D01*
X-7277932Y94598326D01*
X7277932Y94598326D01*
X8093908Y93719470D01*
X9403840Y92980563D01*
X10832756Y92511409D01*
X12325743Y92330037D01*
X13825428Y92443417D01*
X15274176Y92847193D01*
X16616314Y93525847D01*
X16906092Y93719470D01*
X17722068Y94598326D01*
X12500000Y99820395D01*
X7277932Y94598326D01*
X-7277932Y94598326D01*
X-12500000Y99820395D01*
X-17722068Y94598326D01*
X-24340000Y94598326D01*
X-24340000Y100174257D01*
X-20169963Y100174257D01*
X-20056583Y98674572D01*
X-19652807Y97225824D01*
X-18974153Y95883686D01*
X-18780530Y95593908D01*
X-17901674Y94777932D01*
X-12679605Y100000000D01*
X-12320395Y100000000D01*
X-7098326Y94777932D01*
X-6219470Y95593908D01*
X-5480563Y96903840D01*
X-5011409Y98332756D01*
X-4830037Y99825743D01*
X-4856385Y100174257D01*
X4830037Y100174257D01*
X4943417Y98674572D01*
X5347193Y97225824D01*
X6025847Y95883686D01*
X6219470Y95593908D01*
X7098326Y94777932D01*
X12320395Y100000000D01*
X12679605Y100000000D01*
X17901674Y94777932D01*
X18780530Y95593908D01*
X19519437Y96903840D01*
X19988591Y98332756D01*
X20169963Y99825743D01*
X20056583Y101325428D01*
X19652807Y102774176D01*
X18974153Y104116314D01*
X18780530Y104406092D01*
X17901674Y105222068D01*
X12679605Y100000000D01*
X12320395Y100000000D01*
X7098326Y105222068D01*
X6219470Y104406092D01*
X5480563Y103096160D01*
X5011409Y101667244D01*
X4830037Y100174257D01*
X-4856385Y100174257D01*
X-4943417Y101325428D01*
X-5347193Y102774176D01*
X-6025847Y104116314D01*
X-6219470Y104406092D01*
X-7098326Y105222068D01*
X-12320395Y100000000D01*
X-12679605Y100000000D01*
X-17901674Y105222068D01*
X-18780530Y104406092D01*
X-19519437Y103096160D01*
X-19988591Y101667244D01*
X-20169963Y100174257D01*
X-24340000Y100174257D01*
X-24340000Y105401674D01*
X-17722068Y105401674D01*
X-12500000Y100179605D01*
X-7277932Y105401674D01*
X7277932Y105401674D01*
X12500000Y100179605D01*
X17722068Y105401674D01*
X16906092Y106280530D01*
X15596160Y107019437D01*
X14167244Y107488591D01*
X12674257Y107669963D01*
X11174572Y107556583D01*
X9725824Y107152807D01*
X8383686Y106474153D01*
X8093908Y106280530D01*
X7277932Y105401674D01*
X-7277932Y105401674D01*
X-8093908Y106280530D01*
X-9403840Y107019437D01*
X-10832756Y107488591D01*
X-12325743Y107669963D01*
X-13825428Y107556583D01*
X-15274176Y107152807D01*
X-16616314Y106474153D01*
X-16906092Y106280530D01*
X-17722068Y105401674D01*
X-24340000Y105401674D01*
X-24340000Y121375029D01*
X-3445366Y121375029D01*
X-2929217Y120752212D01*
X-2044232Y120262370D01*
X-1080686Y119954593D01*
X-75611Y119840707D01*
X932370Y119925090D01*
X1904520Y120204499D01*
X2803481Y120668197D01*
X2929217Y120752212D01*
X3445366Y121375029D01*
X0Y124820395D01*
X-3445366Y121375029D01*
X-24340000Y121375029D01*
X-24340000Y125075611D01*
X-5159293Y125075611D01*
X-5074910Y124067630D01*
X-4795501Y123095480D01*
X-4331803Y122196519D01*
X-4247788Y122070783D01*
X-3624971Y121554634D01*
X-179605Y125000000D01*
X179605Y125000000D01*
X3624971Y121554634D01*
X4247788Y122070783D01*
X4737630Y122955768D01*
X5045407Y123919314D01*
X5159293Y124924389D01*
X5074910Y125932370D01*
X4795501Y126904520D01*
X4331803Y127803481D01*
X4247788Y127929217D01*
X3624971Y128445366D01*
X179605Y125000000D01*
X-179605Y125000000D01*
X-3624971Y128445366D01*
X-4247788Y127929217D01*
X-4737630Y127044232D01*
X-5045407Y126080686D01*
X-5159293Y125075611D01*
X-24340000Y125075611D01*
X-24340000Y128624971D01*
X-3445366Y128624971D01*
X0Y125179605D01*
X3445366Y128624971D01*
X2929217Y129247788D01*
X2044232Y129737630D01*
X1080686Y130045407D01*
X75611Y130159293D01*
X-932370Y130074910D01*
X-1904520Y129795501D01*
X-2803481Y129331803D01*
X-2929217Y129247788D01*
X-3445366Y128624971D01*
X-24340000Y128624971D01*
X-24340000Y165621829D01*
X-3445366Y165621829D01*
X-2929217Y164999012D01*
X-2044232Y164509170D01*
X-1080686Y164201393D01*
X-75611Y164087507D01*
X932370Y164171890D01*
X1904520Y164451299D01*
X2803481Y164914997D01*
X2929217Y164999012D01*
X3445366Y165621829D01*
X0Y169067195D01*
X-3445366Y165621829D01*
X-24340000Y165621829D01*
X-24340000Y169322411D01*
X-5159293Y169322411D01*
X-5074910Y168314430D01*
X-4795501Y167342280D01*
X-4331803Y166443319D01*
X-4247788Y166317583D01*
X-3624971Y165801434D01*
X-179605Y169246800D01*
X179605Y169246800D01*
X3624971Y165801434D01*
X4247788Y166317583D01*
X4737630Y167202568D01*
X5045407Y168166114D01*
X5159293Y169171189D01*
X5074910Y170179170D01*
X4795501Y171151320D01*
X4331803Y172050281D01*
X4247788Y172176017D01*
X3624971Y172692166D01*
X179605Y169246800D01*
X-179605Y169246800D01*
X-3624971Y172692166D01*
X-4247788Y172176017D01*
X-4737630Y171291032D01*
X-5045407Y170327486D01*
X-5159293Y169322411D01*
X-24340000Y169322411D01*
X-24340000Y172871771D01*
X-3445366Y172871771D01*
X0Y169426405D01*
X3445366Y172871771D01*
X2929217Y173494588D01*
X2044232Y173984430D01*
X1080686Y174292207D01*
X75611Y174406093D01*
X-932370Y174321710D01*
X-1904520Y174042301D01*
X-2803481Y173578603D01*
X-2929217Y173494588D01*
X-3445366Y172871771D01*
X-24340000Y172871771D01*
X-24340000Y216375029D01*
X-3445366Y216375029D01*
X-2929217Y215752212D01*
X-2044232Y215262370D01*
X-1080686Y214954593D01*
X-75611Y214840707D01*
X932370Y214925090D01*
X1904520Y215204499D01*
X2803481Y215668197D01*
X2929217Y215752212D01*
X3445366Y216375029D01*
X0Y219820395D01*
X-3445366Y216375029D01*
X-24340000Y216375029D01*
X-24340000Y220075611D01*
X-5159293Y220075611D01*
X-5074910Y219067630D01*
X-4795501Y218095480D01*
X-4331803Y217196519D01*
X-4247788Y217070783D01*
X-3624971Y216554634D01*
X-179605Y220000000D01*
X179605Y220000000D01*
X3624971Y216554634D01*
X4247788Y217070783D01*
X4737630Y217955768D01*
X5045407Y218919314D01*
X5159293Y219924389D01*
X5074910Y220932370D01*
X4795501Y221904520D01*
X4331803Y222803481D01*
X4247788Y222929217D01*
X3624971Y223445366D01*
X179605Y220000000D01*
X-179605Y220000000D01*
X-3624971Y223445366D01*
X-4247788Y222929217D01*
X-4737630Y222044232D01*
X-5045407Y221080686D01*
X-5159293Y220075611D01*
X-24340000Y220075611D01*
X-24340000Y223624971D01*
X-3445366Y223624971D01*
X0Y220179605D01*
X3445366Y223624971D01*
X2929217Y224247788D01*
X2044232Y224737630D01*
X1080686Y225045407D01*
X75611Y225159293D01*
X-932370Y225074910D01*
X-1904520Y224795501D01*
X-2803481Y224331803D01*
X-2929217Y224247788D01*
X-3445366Y223624971D01*
X-24340000Y223624971D01*
X-24340000Y245807286D01*
X-24261481Y245641669D01*
X-23953030Y245226576D01*
X-23569525Y244879635D01*
X-23125704Y244614178D01*
X-22638623Y244440407D01*
X-22127000Y244365000D01*
X-20727000Y244365000D01*
X-20727000Y246873000D01*
X-20473000Y246873000D01*
X-20473000Y244365000D01*
X-19073000Y244365000D01*
X-18561377Y244440407D01*
X-18074296Y244614178D01*
X-17630475Y244879635D01*
X-17246970Y245226576D01*
X-16938519Y245641669D01*
X-16716975Y246108962D01*
X-16620333Y246462838D01*
X16620333Y246462838D01*
X16716975Y246108962D01*
X16938519Y245641669D01*
X17246970Y245226576D01*
X17630475Y244879635D01*
X18074296Y244614178D01*
X18561377Y244440407D01*
X19073000Y244365000D01*
X20473000Y244365000D01*
X20473000Y246873000D01*
X16727009Y246873000D01*
X16620333Y246462838D01*
X-16620333Y246462838D01*
X-16727009Y246873000D01*
X-20473000Y246873000D01*
X-20727000Y246873000D01*
X-20747000Y246873000D01*
X-20747000Y247127000D01*
X-20727000Y247127000D01*
X-20727000Y247147000D01*
X-20473000Y247147000D01*
X-20473000Y247127000D01*
X-16727009Y247127000D01*
X-16620333Y247537162D01*
X-16716975Y247891038D01*
X-16938519Y248358331D01*
X-17246970Y248773424D01*
X-17630475Y249120365D01*
X-17997686Y249340000D01*
X17997686Y249340000D01*
X17630475Y249120365D01*
%TD*%
M02*
