M48
; DRILL file {KiCad 5.1.8-db9833491~87~ubuntu20.04.1} date Mon Nov 16 19:43:03 2020
; FORMAT={-:-/ absolute / inch / decimal}
; #@! TF.CreationDate,2020-11-16T19:43:03-05:00
; #@! TF.GenerationSoftware,Kicad,Pcbnew,5.1.8-db9833491~87~ubuntu20.04.1
; #@! TF.FileFunction,Plated,1,2,PTH
FMAT,2
INCH
T1C0.1260
T2C0.2756
T3C0.3937
%
G90
G05
T2
X1.2205Y-1.5748
X1.2205Y-4.9213
X2.7165Y-1.5748
X2.7165Y-3.3071
X1.2205Y-3.3071
X2.7165Y-4.9213
T3
X3.0709Y-5.9055
X1.5748Y-6.8898
X0.8661Y-5.9055
X2.3622Y-6.8898
X3.0709Y-6.8898
X2.3622Y-5.9055
X0.8661Y-6.8898
X1.5748Y-5.9055
T1
G00X0.6102Y-0.1181
M15
G01X0.7205Y-0.1181
M16
G05
G00X3.3268Y-0.1181
M15
G01X3.2165Y-0.1181
M16
G05
G00X0.6102Y-7.7559
M15
G01X0.7205Y-7.7559
M16
G05
G00X3.3268Y-7.7559
M15
G01X3.2165Y-7.7559
M16
G05
T0
M30
