%TF.GenerationSoftware,KiCad,Pcbnew,5.1.8-db9833491~87~ubuntu20.04.1*%
%TF.CreationDate,2020-11-16T19:43:01-05:00*%
%TF.ProjectId,mfos_vca-panel,6d666f73-5f76-4636-912d-70616e656c2e,rev?*%
%TF.SameCoordinates,Original*%
%TF.FileFunction,Copper,L2,Bot*%
%TF.FilePolarity,Positive*%
%FSLAX46Y46*%
G04 Gerber Fmt 4.6, Leading zero omitted, Abs format (unit mm)*
G04 Created by KiCad (PCBNEW 5.1.8-db9833491~87~ubuntu20.04.1) date 2020-11-16 19:43:01*
%MOMM*%
%LPD*%
G01*
G04 APERTURE LIST*
%TA.AperFunction,ComponentPad*%
%ADD10C,14.000000*%
%TD*%
%TA.AperFunction,ComponentPad*%
%ADD11O,6.800000X4.000000*%
%TD*%
%TA.AperFunction,ComponentPad*%
%ADD12C,9.000000*%
%TD*%
%TA.AperFunction,Conductor*%
%ADD13C,0.254000*%
%TD*%
%TA.AperFunction,Conductor*%
%ADD14C,0.100000*%
%TD*%
G04 APERTURE END LIST*
D10*
%TO.P,H18,1*%
%TO.N,GND*%
X22000000Y-150000000D03*
%TD*%
%TO.P,H17,1*%
%TO.N,GND*%
X40000000Y-150000000D03*
%TD*%
%TO.P,H16,1*%
%TO.N,GND*%
X60000000Y-150000000D03*
%TD*%
%TO.P,H15,1*%
%TO.N,GND*%
X22000000Y-175000000D03*
%TD*%
D11*
%TO.P,H14,1*%
%TO.N,GND*%
X83100000Y-3000000D03*
%TD*%
D10*
%TO.P,H13,1*%
%TO.N,GND*%
X40000000Y-175000000D03*
%TD*%
D12*
%TO.P,H12,1*%
%TO.N,GND*%
X31000000Y-84000000D03*
%TD*%
D11*
%TO.P,H11,1*%
%TO.N,GND*%
X83100000Y-197000000D03*
%TD*%
D10*
%TO.P,H10,1*%
%TO.N,GND*%
X78000000Y-150000000D03*
%TD*%
D12*
%TO.P,H9,1*%
%TO.N,GND*%
X69000000Y-40000000D03*
%TD*%
D11*
%TO.P,H8,1*%
%TO.N,GND*%
X16900000Y-3000000D03*
%TD*%
D10*
%TO.P,H7,1*%
%TO.N,GND*%
X60000000Y-175000000D03*
%TD*%
D12*
%TO.P,H6,1*%
%TO.N,GND*%
X69000000Y-125000000D03*
%TD*%
%TO.P,H5,1*%
%TO.N,GND*%
X31000000Y-40000000D03*
%TD*%
D11*
%TO.P,H4,1*%
%TO.N,GND*%
X16900000Y-197000000D03*
%TD*%
D10*
%TO.P,H3,1*%
%TO.N,GND*%
X78000000Y-175000000D03*
%TD*%
D12*
%TO.P,H2,1*%
%TO.N,GND*%
X31000000Y-125000000D03*
%TD*%
%TO.P,H1,1*%
%TO.N,GND*%
X69000000Y-84000000D03*
%TD*%
D13*
%TO.N,GND*%
X80130475Y-879635D02*
X79746970Y-1226576D01*
X79438519Y-1641669D01*
X79216975Y-2108962D01*
X79120333Y-2462838D01*
X79227009Y-2873000D01*
X82973000Y-2873000D01*
X82973000Y-2853000D01*
X83227000Y-2853000D01*
X83227000Y-2873000D01*
X83247000Y-2873000D01*
X83247000Y-3127000D01*
X83227000Y-3127000D01*
X83227000Y-5635000D01*
X84627000Y-5635000D01*
X85138623Y-5559593D01*
X85625704Y-5385822D01*
X86069525Y-5120365D01*
X86453030Y-4773424D01*
X86761481Y-4358331D01*
X86840000Y-4192714D01*
X86840001Y-195807288D01*
X86761481Y-195641669D01*
X86453030Y-195226576D01*
X86069525Y-194879635D01*
X85625704Y-194614178D01*
X85138623Y-194440407D01*
X84627000Y-194365000D01*
X83227000Y-194365000D01*
X83227000Y-196873000D01*
X83247000Y-196873000D01*
X83247000Y-197127000D01*
X83227000Y-197127000D01*
X83227000Y-197147000D01*
X82973000Y-197147000D01*
X82973000Y-197127000D01*
X79227009Y-197127000D01*
X79120333Y-197537162D01*
X79216975Y-197891038D01*
X79438519Y-198358331D01*
X79746970Y-198773424D01*
X80130475Y-199120365D01*
X80497686Y-199340000D01*
X19502314Y-199340000D01*
X19869525Y-199120365D01*
X20253030Y-198773424D01*
X20561481Y-198358331D01*
X20783025Y-197891038D01*
X20879667Y-197537162D01*
X20772991Y-197127000D01*
X17027000Y-197127000D01*
X17027000Y-197147000D01*
X16773000Y-197147000D01*
X16773000Y-197127000D01*
X16753000Y-197127000D01*
X16753000Y-196873000D01*
X16773000Y-196873000D01*
X16773000Y-194365000D01*
X17027000Y-194365000D01*
X17027000Y-196873000D01*
X20772991Y-196873000D01*
X20879667Y-196462838D01*
X79120333Y-196462838D01*
X79227009Y-196873000D01*
X82973000Y-196873000D01*
X82973000Y-194365000D01*
X81573000Y-194365000D01*
X81061377Y-194440407D01*
X80574296Y-194614178D01*
X80130475Y-194879635D01*
X79746970Y-195226576D01*
X79438519Y-195641669D01*
X79216975Y-196108962D01*
X79120333Y-196462838D01*
X20879667Y-196462838D01*
X20783025Y-196108962D01*
X20561481Y-195641669D01*
X20253030Y-195226576D01*
X19869525Y-194879635D01*
X19425704Y-194614178D01*
X18938623Y-194440407D01*
X18427000Y-194365000D01*
X17027000Y-194365000D01*
X16773000Y-194365000D01*
X15373000Y-194365000D01*
X14861377Y-194440407D01*
X14374296Y-194614178D01*
X13930475Y-194879635D01*
X13546970Y-195226576D01*
X13238519Y-195641669D01*
X13160000Y-195807286D01*
X13160000Y-180401674D01*
X16777932Y-180401674D01*
X17593908Y-181280530D01*
X18903840Y-182019437D01*
X20332756Y-182488591D01*
X21825743Y-182669963D01*
X23325428Y-182556583D01*
X24774176Y-182152807D01*
X26116314Y-181474153D01*
X26406092Y-181280530D01*
X27222068Y-180401674D01*
X34777932Y-180401674D01*
X35593908Y-181280530D01*
X36903840Y-182019437D01*
X38332756Y-182488591D01*
X39825743Y-182669963D01*
X41325428Y-182556583D01*
X42774176Y-182152807D01*
X44116314Y-181474153D01*
X44406092Y-181280530D01*
X45222068Y-180401674D01*
X54777932Y-180401674D01*
X55593908Y-181280530D01*
X56903840Y-182019437D01*
X58332756Y-182488591D01*
X59825743Y-182669963D01*
X61325428Y-182556583D01*
X62774176Y-182152807D01*
X64116314Y-181474153D01*
X64406092Y-181280530D01*
X65222068Y-180401674D01*
X72777932Y-180401674D01*
X73593908Y-181280530D01*
X74903840Y-182019437D01*
X76332756Y-182488591D01*
X77825743Y-182669963D01*
X79325428Y-182556583D01*
X80774176Y-182152807D01*
X82116314Y-181474153D01*
X82406092Y-181280530D01*
X83222068Y-180401674D01*
X78000000Y-175179605D01*
X72777932Y-180401674D01*
X65222068Y-180401674D01*
X60000000Y-175179605D01*
X54777932Y-180401674D01*
X45222068Y-180401674D01*
X40000000Y-175179605D01*
X34777932Y-180401674D01*
X27222068Y-180401674D01*
X22000000Y-175179605D01*
X16777932Y-180401674D01*
X13160000Y-180401674D01*
X13160000Y-174825743D01*
X14330037Y-174825743D01*
X14443417Y-176325428D01*
X14847193Y-177774176D01*
X15525847Y-179116314D01*
X15719470Y-179406092D01*
X16598326Y-180222068D01*
X21820395Y-175000000D01*
X22179605Y-175000000D01*
X27401674Y-180222068D01*
X28280530Y-179406092D01*
X29019437Y-178096160D01*
X29488591Y-176667244D01*
X29669963Y-175174257D01*
X29643615Y-174825743D01*
X32330037Y-174825743D01*
X32443417Y-176325428D01*
X32847193Y-177774176D01*
X33525847Y-179116314D01*
X33719470Y-179406092D01*
X34598326Y-180222068D01*
X39820395Y-175000000D01*
X40179605Y-175000000D01*
X45401674Y-180222068D01*
X46280530Y-179406092D01*
X47019437Y-178096160D01*
X47488591Y-176667244D01*
X47669963Y-175174257D01*
X47643615Y-174825743D01*
X52330037Y-174825743D01*
X52443417Y-176325428D01*
X52847193Y-177774176D01*
X53525847Y-179116314D01*
X53719470Y-179406092D01*
X54598326Y-180222068D01*
X59820395Y-175000000D01*
X60179605Y-175000000D01*
X65401674Y-180222068D01*
X66280530Y-179406092D01*
X67019437Y-178096160D01*
X67488591Y-176667244D01*
X67669963Y-175174257D01*
X67643615Y-174825743D01*
X70330037Y-174825743D01*
X70443417Y-176325428D01*
X70847193Y-177774176D01*
X71525847Y-179116314D01*
X71719470Y-179406092D01*
X72598326Y-180222068D01*
X77820395Y-175000000D01*
X78179605Y-175000000D01*
X83401674Y-180222068D01*
X84280530Y-179406092D01*
X85019437Y-178096160D01*
X85488591Y-176667244D01*
X85669963Y-175174257D01*
X85556583Y-173674572D01*
X85152807Y-172225824D01*
X84474153Y-170883686D01*
X84280530Y-170593908D01*
X83401674Y-169777932D01*
X78179605Y-175000000D01*
X77820395Y-175000000D01*
X72598326Y-169777932D01*
X71719470Y-170593908D01*
X70980563Y-171903840D01*
X70511409Y-173332756D01*
X70330037Y-174825743D01*
X67643615Y-174825743D01*
X67556583Y-173674572D01*
X67152807Y-172225824D01*
X66474153Y-170883686D01*
X66280530Y-170593908D01*
X65401674Y-169777932D01*
X60179605Y-175000000D01*
X59820395Y-175000000D01*
X54598326Y-169777932D01*
X53719470Y-170593908D01*
X52980563Y-171903840D01*
X52511409Y-173332756D01*
X52330037Y-174825743D01*
X47643615Y-174825743D01*
X47556583Y-173674572D01*
X47152807Y-172225824D01*
X46474153Y-170883686D01*
X46280530Y-170593908D01*
X45401674Y-169777932D01*
X40179605Y-175000000D01*
X39820395Y-175000000D01*
X34598326Y-169777932D01*
X33719470Y-170593908D01*
X32980563Y-171903840D01*
X32511409Y-173332756D01*
X32330037Y-174825743D01*
X29643615Y-174825743D01*
X29556583Y-173674572D01*
X29152807Y-172225824D01*
X28474153Y-170883686D01*
X28280530Y-170593908D01*
X27401674Y-169777932D01*
X22179605Y-175000000D01*
X21820395Y-175000000D01*
X16598326Y-169777932D01*
X15719470Y-170593908D01*
X14980563Y-171903840D01*
X14511409Y-173332756D01*
X14330037Y-174825743D01*
X13160000Y-174825743D01*
X13160000Y-169598326D01*
X16777932Y-169598326D01*
X22000000Y-174820395D01*
X27222068Y-169598326D01*
X34777932Y-169598326D01*
X40000000Y-174820395D01*
X45222068Y-169598326D01*
X54777932Y-169598326D01*
X60000000Y-174820395D01*
X65222068Y-169598326D01*
X72777932Y-169598326D01*
X78000000Y-174820395D01*
X83222068Y-169598326D01*
X82406092Y-168719470D01*
X81096160Y-167980563D01*
X79667244Y-167511409D01*
X78174257Y-167330037D01*
X76674572Y-167443417D01*
X75225824Y-167847193D01*
X73883686Y-168525847D01*
X73593908Y-168719470D01*
X72777932Y-169598326D01*
X65222068Y-169598326D01*
X64406092Y-168719470D01*
X63096160Y-167980563D01*
X61667244Y-167511409D01*
X60174257Y-167330037D01*
X58674572Y-167443417D01*
X57225824Y-167847193D01*
X55883686Y-168525847D01*
X55593908Y-168719470D01*
X54777932Y-169598326D01*
X45222068Y-169598326D01*
X44406092Y-168719470D01*
X43096160Y-167980563D01*
X41667244Y-167511409D01*
X40174257Y-167330037D01*
X38674572Y-167443417D01*
X37225824Y-167847193D01*
X35883686Y-168525847D01*
X35593908Y-168719470D01*
X34777932Y-169598326D01*
X27222068Y-169598326D01*
X26406092Y-168719470D01*
X25096160Y-167980563D01*
X23667244Y-167511409D01*
X22174257Y-167330037D01*
X20674572Y-167443417D01*
X19225824Y-167847193D01*
X17883686Y-168525847D01*
X17593908Y-168719470D01*
X16777932Y-169598326D01*
X13160000Y-169598326D01*
X13160000Y-155401674D01*
X16777932Y-155401674D01*
X17593908Y-156280530D01*
X18903840Y-157019437D01*
X20332756Y-157488591D01*
X21825743Y-157669963D01*
X23325428Y-157556583D01*
X24774176Y-157152807D01*
X26116314Y-156474153D01*
X26406092Y-156280530D01*
X27222068Y-155401674D01*
X34777932Y-155401674D01*
X35593908Y-156280530D01*
X36903840Y-157019437D01*
X38332756Y-157488591D01*
X39825743Y-157669963D01*
X41325428Y-157556583D01*
X42774176Y-157152807D01*
X44116314Y-156474153D01*
X44406092Y-156280530D01*
X45222068Y-155401674D01*
X54777932Y-155401674D01*
X55593908Y-156280530D01*
X56903840Y-157019437D01*
X58332756Y-157488591D01*
X59825743Y-157669963D01*
X61325428Y-157556583D01*
X62774176Y-157152807D01*
X64116314Y-156474153D01*
X64406092Y-156280530D01*
X65222068Y-155401674D01*
X72777932Y-155401674D01*
X73593908Y-156280530D01*
X74903840Y-157019437D01*
X76332756Y-157488591D01*
X77825743Y-157669963D01*
X79325428Y-157556583D01*
X80774176Y-157152807D01*
X82116314Y-156474153D01*
X82406092Y-156280530D01*
X83222068Y-155401674D01*
X78000000Y-150179605D01*
X72777932Y-155401674D01*
X65222068Y-155401674D01*
X60000000Y-150179605D01*
X54777932Y-155401674D01*
X45222068Y-155401674D01*
X40000000Y-150179605D01*
X34777932Y-155401674D01*
X27222068Y-155401674D01*
X22000000Y-150179605D01*
X16777932Y-155401674D01*
X13160000Y-155401674D01*
X13160000Y-149825743D01*
X14330037Y-149825743D01*
X14443417Y-151325428D01*
X14847193Y-152774176D01*
X15525847Y-154116314D01*
X15719470Y-154406092D01*
X16598326Y-155222068D01*
X21820395Y-150000000D01*
X22179605Y-150000000D01*
X27401674Y-155222068D01*
X28280530Y-154406092D01*
X29019437Y-153096160D01*
X29488591Y-151667244D01*
X29669963Y-150174257D01*
X29643615Y-149825743D01*
X32330037Y-149825743D01*
X32443417Y-151325428D01*
X32847193Y-152774176D01*
X33525847Y-154116314D01*
X33719470Y-154406092D01*
X34598326Y-155222068D01*
X39820395Y-150000000D01*
X40179605Y-150000000D01*
X45401674Y-155222068D01*
X46280530Y-154406092D01*
X47019437Y-153096160D01*
X47488591Y-151667244D01*
X47669963Y-150174257D01*
X47643615Y-149825743D01*
X52330037Y-149825743D01*
X52443417Y-151325428D01*
X52847193Y-152774176D01*
X53525847Y-154116314D01*
X53719470Y-154406092D01*
X54598326Y-155222068D01*
X59820395Y-150000000D01*
X60179605Y-150000000D01*
X65401674Y-155222068D01*
X66280530Y-154406092D01*
X67019437Y-153096160D01*
X67488591Y-151667244D01*
X67669963Y-150174257D01*
X67643615Y-149825743D01*
X70330037Y-149825743D01*
X70443417Y-151325428D01*
X70847193Y-152774176D01*
X71525847Y-154116314D01*
X71719470Y-154406092D01*
X72598326Y-155222068D01*
X77820395Y-150000000D01*
X78179605Y-150000000D01*
X83401674Y-155222068D01*
X84280530Y-154406092D01*
X85019437Y-153096160D01*
X85488591Y-151667244D01*
X85669963Y-150174257D01*
X85556583Y-148674572D01*
X85152807Y-147225824D01*
X84474153Y-145883686D01*
X84280530Y-145593908D01*
X83401674Y-144777932D01*
X78179605Y-150000000D01*
X77820395Y-150000000D01*
X72598326Y-144777932D01*
X71719470Y-145593908D01*
X70980563Y-146903840D01*
X70511409Y-148332756D01*
X70330037Y-149825743D01*
X67643615Y-149825743D01*
X67556583Y-148674572D01*
X67152807Y-147225824D01*
X66474153Y-145883686D01*
X66280530Y-145593908D01*
X65401674Y-144777932D01*
X60179605Y-150000000D01*
X59820395Y-150000000D01*
X54598326Y-144777932D01*
X53719470Y-145593908D01*
X52980563Y-146903840D01*
X52511409Y-148332756D01*
X52330037Y-149825743D01*
X47643615Y-149825743D01*
X47556583Y-148674572D01*
X47152807Y-147225824D01*
X46474153Y-145883686D01*
X46280530Y-145593908D01*
X45401674Y-144777932D01*
X40179605Y-150000000D01*
X39820395Y-150000000D01*
X34598326Y-144777932D01*
X33719470Y-145593908D01*
X32980563Y-146903840D01*
X32511409Y-148332756D01*
X32330037Y-149825743D01*
X29643615Y-149825743D01*
X29556583Y-148674572D01*
X29152807Y-147225824D01*
X28474153Y-145883686D01*
X28280530Y-145593908D01*
X27401674Y-144777932D01*
X22179605Y-150000000D01*
X21820395Y-150000000D01*
X16598326Y-144777932D01*
X15719470Y-145593908D01*
X14980563Y-146903840D01*
X14511409Y-148332756D01*
X14330037Y-149825743D01*
X13160000Y-149825743D01*
X13160000Y-144598326D01*
X16777932Y-144598326D01*
X22000000Y-149820395D01*
X27222068Y-144598326D01*
X34777932Y-144598326D01*
X40000000Y-149820395D01*
X45222068Y-144598326D01*
X54777932Y-144598326D01*
X60000000Y-149820395D01*
X65222068Y-144598326D01*
X72777932Y-144598326D01*
X78000000Y-149820395D01*
X83222068Y-144598326D01*
X82406092Y-143719470D01*
X81096160Y-142980563D01*
X79667244Y-142511409D01*
X78174257Y-142330037D01*
X76674572Y-142443417D01*
X75225824Y-142847193D01*
X73883686Y-143525847D01*
X73593908Y-143719470D01*
X72777932Y-144598326D01*
X65222068Y-144598326D01*
X64406092Y-143719470D01*
X63096160Y-142980563D01*
X61667244Y-142511409D01*
X60174257Y-142330037D01*
X58674572Y-142443417D01*
X57225824Y-142847193D01*
X55883686Y-143525847D01*
X55593908Y-143719470D01*
X54777932Y-144598326D01*
X45222068Y-144598326D01*
X44406092Y-143719470D01*
X43096160Y-142980563D01*
X41667244Y-142511409D01*
X40174257Y-142330037D01*
X38674572Y-142443417D01*
X37225824Y-142847193D01*
X35883686Y-143525847D01*
X35593908Y-143719470D01*
X34777932Y-144598326D01*
X27222068Y-144598326D01*
X26406092Y-143719470D01*
X25096160Y-142980563D01*
X23667244Y-142511409D01*
X22174257Y-142330037D01*
X20674572Y-142443417D01*
X19225824Y-142847193D01*
X17883686Y-143525847D01*
X17593908Y-143719470D01*
X16777932Y-144598326D01*
X13160000Y-144598326D01*
X13160000Y-128624971D01*
X27554634Y-128624971D01*
X28070783Y-129247788D01*
X28955768Y-129737630D01*
X29919314Y-130045407D01*
X30924389Y-130159293D01*
X31932370Y-130074910D01*
X32904520Y-129795501D01*
X33803481Y-129331803D01*
X33929217Y-129247788D01*
X34445366Y-128624971D01*
X65554634Y-128624971D01*
X66070783Y-129247788D01*
X66955768Y-129737630D01*
X67919314Y-130045407D01*
X68924389Y-130159293D01*
X69932370Y-130074910D01*
X70904520Y-129795501D01*
X71803481Y-129331803D01*
X71929217Y-129247788D01*
X72445366Y-128624971D01*
X69000000Y-125179605D01*
X65554634Y-128624971D01*
X34445366Y-128624971D01*
X31000000Y-125179605D01*
X27554634Y-128624971D01*
X13160000Y-128624971D01*
X13160000Y-124924389D01*
X25840707Y-124924389D01*
X25925090Y-125932370D01*
X26204499Y-126904520D01*
X26668197Y-127803481D01*
X26752212Y-127929217D01*
X27375029Y-128445366D01*
X30820395Y-125000000D01*
X31179605Y-125000000D01*
X34624971Y-128445366D01*
X35247788Y-127929217D01*
X35737630Y-127044232D01*
X36045407Y-126080686D01*
X36159293Y-125075611D01*
X36146634Y-124924389D01*
X63840707Y-124924389D01*
X63925090Y-125932370D01*
X64204499Y-126904520D01*
X64668197Y-127803481D01*
X64752212Y-127929217D01*
X65375029Y-128445366D01*
X68820395Y-125000000D01*
X69179605Y-125000000D01*
X72624971Y-128445366D01*
X73247788Y-127929217D01*
X73737630Y-127044232D01*
X74045407Y-126080686D01*
X74159293Y-125075611D01*
X74074910Y-124067630D01*
X73795501Y-123095480D01*
X73331803Y-122196519D01*
X73247788Y-122070783D01*
X72624971Y-121554634D01*
X69179605Y-125000000D01*
X68820395Y-125000000D01*
X65375029Y-121554634D01*
X64752212Y-122070783D01*
X64262370Y-122955768D01*
X63954593Y-123919314D01*
X63840707Y-124924389D01*
X36146634Y-124924389D01*
X36074910Y-124067630D01*
X35795501Y-123095480D01*
X35331803Y-122196519D01*
X35247788Y-122070783D01*
X34624971Y-121554634D01*
X31179605Y-125000000D01*
X30820395Y-125000000D01*
X27375029Y-121554634D01*
X26752212Y-122070783D01*
X26262370Y-122955768D01*
X25954593Y-123919314D01*
X25840707Y-124924389D01*
X13160000Y-124924389D01*
X13160000Y-121375029D01*
X27554634Y-121375029D01*
X31000000Y-124820395D01*
X34445366Y-121375029D01*
X65554634Y-121375029D01*
X69000000Y-124820395D01*
X72445366Y-121375029D01*
X71929217Y-120752212D01*
X71044232Y-120262370D01*
X70080686Y-119954593D01*
X69075611Y-119840707D01*
X68067630Y-119925090D01*
X67095480Y-120204499D01*
X66196519Y-120668197D01*
X66070783Y-120752212D01*
X65554634Y-121375029D01*
X34445366Y-121375029D01*
X33929217Y-120752212D01*
X33044232Y-120262370D01*
X32080686Y-119954593D01*
X31075611Y-119840707D01*
X30067630Y-119925090D01*
X29095480Y-120204499D01*
X28196519Y-120668197D01*
X28070783Y-120752212D01*
X27554634Y-121375029D01*
X13160000Y-121375029D01*
X13160000Y-87624971D01*
X27554634Y-87624971D01*
X28070783Y-88247788D01*
X28955768Y-88737630D01*
X29919314Y-89045407D01*
X30924389Y-89159293D01*
X31932370Y-89074910D01*
X32904520Y-88795501D01*
X33803481Y-88331803D01*
X33929217Y-88247788D01*
X34445366Y-87624971D01*
X65554634Y-87624971D01*
X66070783Y-88247788D01*
X66955768Y-88737630D01*
X67919314Y-89045407D01*
X68924389Y-89159293D01*
X69932370Y-89074910D01*
X70904520Y-88795501D01*
X71803481Y-88331803D01*
X71929217Y-88247788D01*
X72445366Y-87624971D01*
X69000000Y-84179605D01*
X65554634Y-87624971D01*
X34445366Y-87624971D01*
X31000000Y-84179605D01*
X27554634Y-87624971D01*
X13160000Y-87624971D01*
X13160000Y-83924389D01*
X25840707Y-83924389D01*
X25925090Y-84932370D01*
X26204499Y-85904520D01*
X26668197Y-86803481D01*
X26752212Y-86929217D01*
X27375029Y-87445366D01*
X30820395Y-84000000D01*
X31179605Y-84000000D01*
X34624971Y-87445366D01*
X35247788Y-86929217D01*
X35737630Y-86044232D01*
X36045407Y-85080686D01*
X36159293Y-84075611D01*
X36146634Y-83924389D01*
X63840707Y-83924389D01*
X63925090Y-84932370D01*
X64204499Y-85904520D01*
X64668197Y-86803481D01*
X64752212Y-86929217D01*
X65375029Y-87445366D01*
X68820395Y-84000000D01*
X69179605Y-84000000D01*
X72624971Y-87445366D01*
X73247788Y-86929217D01*
X73737630Y-86044232D01*
X74045407Y-85080686D01*
X74159293Y-84075611D01*
X74074910Y-83067630D01*
X73795501Y-82095480D01*
X73331803Y-81196519D01*
X73247788Y-81070783D01*
X72624971Y-80554634D01*
X69179605Y-84000000D01*
X68820395Y-84000000D01*
X65375029Y-80554634D01*
X64752212Y-81070783D01*
X64262370Y-81955768D01*
X63954593Y-82919314D01*
X63840707Y-83924389D01*
X36146634Y-83924389D01*
X36074910Y-83067630D01*
X35795501Y-82095480D01*
X35331803Y-81196519D01*
X35247788Y-81070783D01*
X34624971Y-80554634D01*
X31179605Y-84000000D01*
X30820395Y-84000000D01*
X27375029Y-80554634D01*
X26752212Y-81070783D01*
X26262370Y-81955768D01*
X25954593Y-82919314D01*
X25840707Y-83924389D01*
X13160000Y-83924389D01*
X13160000Y-80375029D01*
X27554634Y-80375029D01*
X31000000Y-83820395D01*
X34445366Y-80375029D01*
X65554634Y-80375029D01*
X69000000Y-83820395D01*
X72445366Y-80375029D01*
X71929217Y-79752212D01*
X71044232Y-79262370D01*
X70080686Y-78954593D01*
X69075611Y-78840707D01*
X68067630Y-78925090D01*
X67095480Y-79204499D01*
X66196519Y-79668197D01*
X66070783Y-79752212D01*
X65554634Y-80375029D01*
X34445366Y-80375029D01*
X33929217Y-79752212D01*
X33044232Y-79262370D01*
X32080686Y-78954593D01*
X31075611Y-78840707D01*
X30067630Y-78925090D01*
X29095480Y-79204499D01*
X28196519Y-79668197D01*
X28070783Y-79752212D01*
X27554634Y-80375029D01*
X13160000Y-80375029D01*
X13160000Y-43624971D01*
X27554634Y-43624971D01*
X28070783Y-44247788D01*
X28955768Y-44737630D01*
X29919314Y-45045407D01*
X30924389Y-45159293D01*
X31932370Y-45074910D01*
X32904520Y-44795501D01*
X33803481Y-44331803D01*
X33929217Y-44247788D01*
X34445366Y-43624971D01*
X65554634Y-43624971D01*
X66070783Y-44247788D01*
X66955768Y-44737630D01*
X67919314Y-45045407D01*
X68924389Y-45159293D01*
X69932370Y-45074910D01*
X70904520Y-44795501D01*
X71803481Y-44331803D01*
X71929217Y-44247788D01*
X72445366Y-43624971D01*
X69000000Y-40179605D01*
X65554634Y-43624971D01*
X34445366Y-43624971D01*
X31000000Y-40179605D01*
X27554634Y-43624971D01*
X13160000Y-43624971D01*
X13160000Y-39924389D01*
X25840707Y-39924389D01*
X25925090Y-40932370D01*
X26204499Y-41904520D01*
X26668197Y-42803481D01*
X26752212Y-42929217D01*
X27375029Y-43445366D01*
X30820395Y-40000000D01*
X31179605Y-40000000D01*
X34624971Y-43445366D01*
X35247788Y-42929217D01*
X35737630Y-42044232D01*
X36045407Y-41080686D01*
X36159293Y-40075611D01*
X36146634Y-39924389D01*
X63840707Y-39924389D01*
X63925090Y-40932370D01*
X64204499Y-41904520D01*
X64668197Y-42803481D01*
X64752212Y-42929217D01*
X65375029Y-43445366D01*
X68820395Y-40000000D01*
X69179605Y-40000000D01*
X72624971Y-43445366D01*
X73247788Y-42929217D01*
X73737630Y-42044232D01*
X74045407Y-41080686D01*
X74159293Y-40075611D01*
X74074910Y-39067630D01*
X73795501Y-38095480D01*
X73331803Y-37196519D01*
X73247788Y-37070783D01*
X72624971Y-36554634D01*
X69179605Y-40000000D01*
X68820395Y-40000000D01*
X65375029Y-36554634D01*
X64752212Y-37070783D01*
X64262370Y-37955768D01*
X63954593Y-38919314D01*
X63840707Y-39924389D01*
X36146634Y-39924389D01*
X36074910Y-39067630D01*
X35795501Y-38095480D01*
X35331803Y-37196519D01*
X35247788Y-37070783D01*
X34624971Y-36554634D01*
X31179605Y-40000000D01*
X30820395Y-40000000D01*
X27375029Y-36554634D01*
X26752212Y-37070783D01*
X26262370Y-37955768D01*
X25954593Y-38919314D01*
X25840707Y-39924389D01*
X13160000Y-39924389D01*
X13160000Y-36375029D01*
X27554634Y-36375029D01*
X31000000Y-39820395D01*
X34445366Y-36375029D01*
X65554634Y-36375029D01*
X69000000Y-39820395D01*
X72445366Y-36375029D01*
X71929217Y-35752212D01*
X71044232Y-35262370D01*
X70080686Y-34954593D01*
X69075611Y-34840707D01*
X68067630Y-34925090D01*
X67095480Y-35204499D01*
X66196519Y-35668197D01*
X66070783Y-35752212D01*
X65554634Y-36375029D01*
X34445366Y-36375029D01*
X33929217Y-35752212D01*
X33044232Y-35262370D01*
X32080686Y-34954593D01*
X31075611Y-34840707D01*
X30067630Y-34925090D01*
X29095480Y-35204499D01*
X28196519Y-35668197D01*
X28070783Y-35752212D01*
X27554634Y-36375029D01*
X13160000Y-36375029D01*
X13160000Y-4192714D01*
X13238519Y-4358331D01*
X13546970Y-4773424D01*
X13930475Y-5120365D01*
X14374296Y-5385822D01*
X14861377Y-5559593D01*
X15373000Y-5635000D01*
X16773000Y-5635000D01*
X16773000Y-3127000D01*
X17027000Y-3127000D01*
X17027000Y-5635000D01*
X18427000Y-5635000D01*
X18938623Y-5559593D01*
X19425704Y-5385822D01*
X19869525Y-5120365D01*
X20253030Y-4773424D01*
X20561481Y-4358331D01*
X20783025Y-3891038D01*
X20879667Y-3537162D01*
X79120333Y-3537162D01*
X79216975Y-3891038D01*
X79438519Y-4358331D01*
X79746970Y-4773424D01*
X80130475Y-5120365D01*
X80574296Y-5385822D01*
X81061377Y-5559593D01*
X81573000Y-5635000D01*
X82973000Y-5635000D01*
X82973000Y-3127000D01*
X79227009Y-3127000D01*
X79120333Y-3537162D01*
X20879667Y-3537162D01*
X20772991Y-3127000D01*
X17027000Y-3127000D01*
X16773000Y-3127000D01*
X16753000Y-3127000D01*
X16753000Y-2873000D01*
X16773000Y-2873000D01*
X16773000Y-2853000D01*
X17027000Y-2853000D01*
X17027000Y-2873000D01*
X20772991Y-2873000D01*
X20879667Y-2462838D01*
X20783025Y-2108962D01*
X20561481Y-1641669D01*
X20253030Y-1226576D01*
X19869525Y-879635D01*
X19502314Y-660000D01*
X80497686Y-660000D01*
X80130475Y-879635D01*
%TA.AperFunction,Conductor*%
D14*
G36*
X80130475Y-879635D02*
G01*
X79746970Y-1226576D01*
X79438519Y-1641669D01*
X79216975Y-2108962D01*
X79120333Y-2462838D01*
X79227009Y-2873000D01*
X82973000Y-2873000D01*
X82973000Y-2853000D01*
X83227000Y-2853000D01*
X83227000Y-2873000D01*
X83247000Y-2873000D01*
X83247000Y-3127000D01*
X83227000Y-3127000D01*
X83227000Y-5635000D01*
X84627000Y-5635000D01*
X85138623Y-5559593D01*
X85625704Y-5385822D01*
X86069525Y-5120365D01*
X86453030Y-4773424D01*
X86761481Y-4358331D01*
X86840000Y-4192714D01*
X86840001Y-195807288D01*
X86761481Y-195641669D01*
X86453030Y-195226576D01*
X86069525Y-194879635D01*
X85625704Y-194614178D01*
X85138623Y-194440407D01*
X84627000Y-194365000D01*
X83227000Y-194365000D01*
X83227000Y-196873000D01*
X83247000Y-196873000D01*
X83247000Y-197127000D01*
X83227000Y-197127000D01*
X83227000Y-197147000D01*
X82973000Y-197147000D01*
X82973000Y-197127000D01*
X79227009Y-197127000D01*
X79120333Y-197537162D01*
X79216975Y-197891038D01*
X79438519Y-198358331D01*
X79746970Y-198773424D01*
X80130475Y-199120365D01*
X80497686Y-199340000D01*
X19502314Y-199340000D01*
X19869525Y-199120365D01*
X20253030Y-198773424D01*
X20561481Y-198358331D01*
X20783025Y-197891038D01*
X20879667Y-197537162D01*
X20772991Y-197127000D01*
X17027000Y-197127000D01*
X17027000Y-197147000D01*
X16773000Y-197147000D01*
X16773000Y-197127000D01*
X16753000Y-197127000D01*
X16753000Y-196873000D01*
X16773000Y-196873000D01*
X16773000Y-194365000D01*
X17027000Y-194365000D01*
X17027000Y-196873000D01*
X20772991Y-196873000D01*
X20879667Y-196462838D01*
X79120333Y-196462838D01*
X79227009Y-196873000D01*
X82973000Y-196873000D01*
X82973000Y-194365000D01*
X81573000Y-194365000D01*
X81061377Y-194440407D01*
X80574296Y-194614178D01*
X80130475Y-194879635D01*
X79746970Y-195226576D01*
X79438519Y-195641669D01*
X79216975Y-196108962D01*
X79120333Y-196462838D01*
X20879667Y-196462838D01*
X20783025Y-196108962D01*
X20561481Y-195641669D01*
X20253030Y-195226576D01*
X19869525Y-194879635D01*
X19425704Y-194614178D01*
X18938623Y-194440407D01*
X18427000Y-194365000D01*
X17027000Y-194365000D01*
X16773000Y-194365000D01*
X15373000Y-194365000D01*
X14861377Y-194440407D01*
X14374296Y-194614178D01*
X13930475Y-194879635D01*
X13546970Y-195226576D01*
X13238519Y-195641669D01*
X13160000Y-195807286D01*
X13160000Y-180401674D01*
X16777932Y-180401674D01*
X17593908Y-181280530D01*
X18903840Y-182019437D01*
X20332756Y-182488591D01*
X21825743Y-182669963D01*
X23325428Y-182556583D01*
X24774176Y-182152807D01*
X26116314Y-181474153D01*
X26406092Y-181280530D01*
X27222068Y-180401674D01*
X34777932Y-180401674D01*
X35593908Y-181280530D01*
X36903840Y-182019437D01*
X38332756Y-182488591D01*
X39825743Y-182669963D01*
X41325428Y-182556583D01*
X42774176Y-182152807D01*
X44116314Y-181474153D01*
X44406092Y-181280530D01*
X45222068Y-180401674D01*
X54777932Y-180401674D01*
X55593908Y-181280530D01*
X56903840Y-182019437D01*
X58332756Y-182488591D01*
X59825743Y-182669963D01*
X61325428Y-182556583D01*
X62774176Y-182152807D01*
X64116314Y-181474153D01*
X64406092Y-181280530D01*
X65222068Y-180401674D01*
X72777932Y-180401674D01*
X73593908Y-181280530D01*
X74903840Y-182019437D01*
X76332756Y-182488591D01*
X77825743Y-182669963D01*
X79325428Y-182556583D01*
X80774176Y-182152807D01*
X82116314Y-181474153D01*
X82406092Y-181280530D01*
X83222068Y-180401674D01*
X78000000Y-175179605D01*
X72777932Y-180401674D01*
X65222068Y-180401674D01*
X60000000Y-175179605D01*
X54777932Y-180401674D01*
X45222068Y-180401674D01*
X40000000Y-175179605D01*
X34777932Y-180401674D01*
X27222068Y-180401674D01*
X22000000Y-175179605D01*
X16777932Y-180401674D01*
X13160000Y-180401674D01*
X13160000Y-174825743D01*
X14330037Y-174825743D01*
X14443417Y-176325428D01*
X14847193Y-177774176D01*
X15525847Y-179116314D01*
X15719470Y-179406092D01*
X16598326Y-180222068D01*
X21820395Y-175000000D01*
X22179605Y-175000000D01*
X27401674Y-180222068D01*
X28280530Y-179406092D01*
X29019437Y-178096160D01*
X29488591Y-176667244D01*
X29669963Y-175174257D01*
X29643615Y-174825743D01*
X32330037Y-174825743D01*
X32443417Y-176325428D01*
X32847193Y-177774176D01*
X33525847Y-179116314D01*
X33719470Y-179406092D01*
X34598326Y-180222068D01*
X39820395Y-175000000D01*
X40179605Y-175000000D01*
X45401674Y-180222068D01*
X46280530Y-179406092D01*
X47019437Y-178096160D01*
X47488591Y-176667244D01*
X47669963Y-175174257D01*
X47643615Y-174825743D01*
X52330037Y-174825743D01*
X52443417Y-176325428D01*
X52847193Y-177774176D01*
X53525847Y-179116314D01*
X53719470Y-179406092D01*
X54598326Y-180222068D01*
X59820395Y-175000000D01*
X60179605Y-175000000D01*
X65401674Y-180222068D01*
X66280530Y-179406092D01*
X67019437Y-178096160D01*
X67488591Y-176667244D01*
X67669963Y-175174257D01*
X67643615Y-174825743D01*
X70330037Y-174825743D01*
X70443417Y-176325428D01*
X70847193Y-177774176D01*
X71525847Y-179116314D01*
X71719470Y-179406092D01*
X72598326Y-180222068D01*
X77820395Y-175000000D01*
X78179605Y-175000000D01*
X83401674Y-180222068D01*
X84280530Y-179406092D01*
X85019437Y-178096160D01*
X85488591Y-176667244D01*
X85669963Y-175174257D01*
X85556583Y-173674572D01*
X85152807Y-172225824D01*
X84474153Y-170883686D01*
X84280530Y-170593908D01*
X83401674Y-169777932D01*
X78179605Y-175000000D01*
X77820395Y-175000000D01*
X72598326Y-169777932D01*
X71719470Y-170593908D01*
X70980563Y-171903840D01*
X70511409Y-173332756D01*
X70330037Y-174825743D01*
X67643615Y-174825743D01*
X67556583Y-173674572D01*
X67152807Y-172225824D01*
X66474153Y-170883686D01*
X66280530Y-170593908D01*
X65401674Y-169777932D01*
X60179605Y-175000000D01*
X59820395Y-175000000D01*
X54598326Y-169777932D01*
X53719470Y-170593908D01*
X52980563Y-171903840D01*
X52511409Y-173332756D01*
X52330037Y-174825743D01*
X47643615Y-174825743D01*
X47556583Y-173674572D01*
X47152807Y-172225824D01*
X46474153Y-170883686D01*
X46280530Y-170593908D01*
X45401674Y-169777932D01*
X40179605Y-175000000D01*
X39820395Y-175000000D01*
X34598326Y-169777932D01*
X33719470Y-170593908D01*
X32980563Y-171903840D01*
X32511409Y-173332756D01*
X32330037Y-174825743D01*
X29643615Y-174825743D01*
X29556583Y-173674572D01*
X29152807Y-172225824D01*
X28474153Y-170883686D01*
X28280530Y-170593908D01*
X27401674Y-169777932D01*
X22179605Y-175000000D01*
X21820395Y-175000000D01*
X16598326Y-169777932D01*
X15719470Y-170593908D01*
X14980563Y-171903840D01*
X14511409Y-173332756D01*
X14330037Y-174825743D01*
X13160000Y-174825743D01*
X13160000Y-169598326D01*
X16777932Y-169598326D01*
X22000000Y-174820395D01*
X27222068Y-169598326D01*
X34777932Y-169598326D01*
X40000000Y-174820395D01*
X45222068Y-169598326D01*
X54777932Y-169598326D01*
X60000000Y-174820395D01*
X65222068Y-169598326D01*
X72777932Y-169598326D01*
X78000000Y-174820395D01*
X83222068Y-169598326D01*
X82406092Y-168719470D01*
X81096160Y-167980563D01*
X79667244Y-167511409D01*
X78174257Y-167330037D01*
X76674572Y-167443417D01*
X75225824Y-167847193D01*
X73883686Y-168525847D01*
X73593908Y-168719470D01*
X72777932Y-169598326D01*
X65222068Y-169598326D01*
X64406092Y-168719470D01*
X63096160Y-167980563D01*
X61667244Y-167511409D01*
X60174257Y-167330037D01*
X58674572Y-167443417D01*
X57225824Y-167847193D01*
X55883686Y-168525847D01*
X55593908Y-168719470D01*
X54777932Y-169598326D01*
X45222068Y-169598326D01*
X44406092Y-168719470D01*
X43096160Y-167980563D01*
X41667244Y-167511409D01*
X40174257Y-167330037D01*
X38674572Y-167443417D01*
X37225824Y-167847193D01*
X35883686Y-168525847D01*
X35593908Y-168719470D01*
X34777932Y-169598326D01*
X27222068Y-169598326D01*
X26406092Y-168719470D01*
X25096160Y-167980563D01*
X23667244Y-167511409D01*
X22174257Y-167330037D01*
X20674572Y-167443417D01*
X19225824Y-167847193D01*
X17883686Y-168525847D01*
X17593908Y-168719470D01*
X16777932Y-169598326D01*
X13160000Y-169598326D01*
X13160000Y-155401674D01*
X16777932Y-155401674D01*
X17593908Y-156280530D01*
X18903840Y-157019437D01*
X20332756Y-157488591D01*
X21825743Y-157669963D01*
X23325428Y-157556583D01*
X24774176Y-157152807D01*
X26116314Y-156474153D01*
X26406092Y-156280530D01*
X27222068Y-155401674D01*
X34777932Y-155401674D01*
X35593908Y-156280530D01*
X36903840Y-157019437D01*
X38332756Y-157488591D01*
X39825743Y-157669963D01*
X41325428Y-157556583D01*
X42774176Y-157152807D01*
X44116314Y-156474153D01*
X44406092Y-156280530D01*
X45222068Y-155401674D01*
X54777932Y-155401674D01*
X55593908Y-156280530D01*
X56903840Y-157019437D01*
X58332756Y-157488591D01*
X59825743Y-157669963D01*
X61325428Y-157556583D01*
X62774176Y-157152807D01*
X64116314Y-156474153D01*
X64406092Y-156280530D01*
X65222068Y-155401674D01*
X72777932Y-155401674D01*
X73593908Y-156280530D01*
X74903840Y-157019437D01*
X76332756Y-157488591D01*
X77825743Y-157669963D01*
X79325428Y-157556583D01*
X80774176Y-157152807D01*
X82116314Y-156474153D01*
X82406092Y-156280530D01*
X83222068Y-155401674D01*
X78000000Y-150179605D01*
X72777932Y-155401674D01*
X65222068Y-155401674D01*
X60000000Y-150179605D01*
X54777932Y-155401674D01*
X45222068Y-155401674D01*
X40000000Y-150179605D01*
X34777932Y-155401674D01*
X27222068Y-155401674D01*
X22000000Y-150179605D01*
X16777932Y-155401674D01*
X13160000Y-155401674D01*
X13160000Y-149825743D01*
X14330037Y-149825743D01*
X14443417Y-151325428D01*
X14847193Y-152774176D01*
X15525847Y-154116314D01*
X15719470Y-154406092D01*
X16598326Y-155222068D01*
X21820395Y-150000000D01*
X22179605Y-150000000D01*
X27401674Y-155222068D01*
X28280530Y-154406092D01*
X29019437Y-153096160D01*
X29488591Y-151667244D01*
X29669963Y-150174257D01*
X29643615Y-149825743D01*
X32330037Y-149825743D01*
X32443417Y-151325428D01*
X32847193Y-152774176D01*
X33525847Y-154116314D01*
X33719470Y-154406092D01*
X34598326Y-155222068D01*
X39820395Y-150000000D01*
X40179605Y-150000000D01*
X45401674Y-155222068D01*
X46280530Y-154406092D01*
X47019437Y-153096160D01*
X47488591Y-151667244D01*
X47669963Y-150174257D01*
X47643615Y-149825743D01*
X52330037Y-149825743D01*
X52443417Y-151325428D01*
X52847193Y-152774176D01*
X53525847Y-154116314D01*
X53719470Y-154406092D01*
X54598326Y-155222068D01*
X59820395Y-150000000D01*
X60179605Y-150000000D01*
X65401674Y-155222068D01*
X66280530Y-154406092D01*
X67019437Y-153096160D01*
X67488591Y-151667244D01*
X67669963Y-150174257D01*
X67643615Y-149825743D01*
X70330037Y-149825743D01*
X70443417Y-151325428D01*
X70847193Y-152774176D01*
X71525847Y-154116314D01*
X71719470Y-154406092D01*
X72598326Y-155222068D01*
X77820395Y-150000000D01*
X78179605Y-150000000D01*
X83401674Y-155222068D01*
X84280530Y-154406092D01*
X85019437Y-153096160D01*
X85488591Y-151667244D01*
X85669963Y-150174257D01*
X85556583Y-148674572D01*
X85152807Y-147225824D01*
X84474153Y-145883686D01*
X84280530Y-145593908D01*
X83401674Y-144777932D01*
X78179605Y-150000000D01*
X77820395Y-150000000D01*
X72598326Y-144777932D01*
X71719470Y-145593908D01*
X70980563Y-146903840D01*
X70511409Y-148332756D01*
X70330037Y-149825743D01*
X67643615Y-149825743D01*
X67556583Y-148674572D01*
X67152807Y-147225824D01*
X66474153Y-145883686D01*
X66280530Y-145593908D01*
X65401674Y-144777932D01*
X60179605Y-150000000D01*
X59820395Y-150000000D01*
X54598326Y-144777932D01*
X53719470Y-145593908D01*
X52980563Y-146903840D01*
X52511409Y-148332756D01*
X52330037Y-149825743D01*
X47643615Y-149825743D01*
X47556583Y-148674572D01*
X47152807Y-147225824D01*
X46474153Y-145883686D01*
X46280530Y-145593908D01*
X45401674Y-144777932D01*
X40179605Y-150000000D01*
X39820395Y-150000000D01*
X34598326Y-144777932D01*
X33719470Y-145593908D01*
X32980563Y-146903840D01*
X32511409Y-148332756D01*
X32330037Y-149825743D01*
X29643615Y-149825743D01*
X29556583Y-148674572D01*
X29152807Y-147225824D01*
X28474153Y-145883686D01*
X28280530Y-145593908D01*
X27401674Y-144777932D01*
X22179605Y-150000000D01*
X21820395Y-150000000D01*
X16598326Y-144777932D01*
X15719470Y-145593908D01*
X14980563Y-146903840D01*
X14511409Y-148332756D01*
X14330037Y-149825743D01*
X13160000Y-149825743D01*
X13160000Y-144598326D01*
X16777932Y-144598326D01*
X22000000Y-149820395D01*
X27222068Y-144598326D01*
X34777932Y-144598326D01*
X40000000Y-149820395D01*
X45222068Y-144598326D01*
X54777932Y-144598326D01*
X60000000Y-149820395D01*
X65222068Y-144598326D01*
X72777932Y-144598326D01*
X78000000Y-149820395D01*
X83222068Y-144598326D01*
X82406092Y-143719470D01*
X81096160Y-142980563D01*
X79667244Y-142511409D01*
X78174257Y-142330037D01*
X76674572Y-142443417D01*
X75225824Y-142847193D01*
X73883686Y-143525847D01*
X73593908Y-143719470D01*
X72777932Y-144598326D01*
X65222068Y-144598326D01*
X64406092Y-143719470D01*
X63096160Y-142980563D01*
X61667244Y-142511409D01*
X60174257Y-142330037D01*
X58674572Y-142443417D01*
X57225824Y-142847193D01*
X55883686Y-143525847D01*
X55593908Y-143719470D01*
X54777932Y-144598326D01*
X45222068Y-144598326D01*
X44406092Y-143719470D01*
X43096160Y-142980563D01*
X41667244Y-142511409D01*
X40174257Y-142330037D01*
X38674572Y-142443417D01*
X37225824Y-142847193D01*
X35883686Y-143525847D01*
X35593908Y-143719470D01*
X34777932Y-144598326D01*
X27222068Y-144598326D01*
X26406092Y-143719470D01*
X25096160Y-142980563D01*
X23667244Y-142511409D01*
X22174257Y-142330037D01*
X20674572Y-142443417D01*
X19225824Y-142847193D01*
X17883686Y-143525847D01*
X17593908Y-143719470D01*
X16777932Y-144598326D01*
X13160000Y-144598326D01*
X13160000Y-128624971D01*
X27554634Y-128624971D01*
X28070783Y-129247788D01*
X28955768Y-129737630D01*
X29919314Y-130045407D01*
X30924389Y-130159293D01*
X31932370Y-130074910D01*
X32904520Y-129795501D01*
X33803481Y-129331803D01*
X33929217Y-129247788D01*
X34445366Y-128624971D01*
X65554634Y-128624971D01*
X66070783Y-129247788D01*
X66955768Y-129737630D01*
X67919314Y-130045407D01*
X68924389Y-130159293D01*
X69932370Y-130074910D01*
X70904520Y-129795501D01*
X71803481Y-129331803D01*
X71929217Y-129247788D01*
X72445366Y-128624971D01*
X69000000Y-125179605D01*
X65554634Y-128624971D01*
X34445366Y-128624971D01*
X31000000Y-125179605D01*
X27554634Y-128624971D01*
X13160000Y-128624971D01*
X13160000Y-124924389D01*
X25840707Y-124924389D01*
X25925090Y-125932370D01*
X26204499Y-126904520D01*
X26668197Y-127803481D01*
X26752212Y-127929217D01*
X27375029Y-128445366D01*
X30820395Y-125000000D01*
X31179605Y-125000000D01*
X34624971Y-128445366D01*
X35247788Y-127929217D01*
X35737630Y-127044232D01*
X36045407Y-126080686D01*
X36159293Y-125075611D01*
X36146634Y-124924389D01*
X63840707Y-124924389D01*
X63925090Y-125932370D01*
X64204499Y-126904520D01*
X64668197Y-127803481D01*
X64752212Y-127929217D01*
X65375029Y-128445366D01*
X68820395Y-125000000D01*
X69179605Y-125000000D01*
X72624971Y-128445366D01*
X73247788Y-127929217D01*
X73737630Y-127044232D01*
X74045407Y-126080686D01*
X74159293Y-125075611D01*
X74074910Y-124067630D01*
X73795501Y-123095480D01*
X73331803Y-122196519D01*
X73247788Y-122070783D01*
X72624971Y-121554634D01*
X69179605Y-125000000D01*
X68820395Y-125000000D01*
X65375029Y-121554634D01*
X64752212Y-122070783D01*
X64262370Y-122955768D01*
X63954593Y-123919314D01*
X63840707Y-124924389D01*
X36146634Y-124924389D01*
X36074910Y-124067630D01*
X35795501Y-123095480D01*
X35331803Y-122196519D01*
X35247788Y-122070783D01*
X34624971Y-121554634D01*
X31179605Y-125000000D01*
X30820395Y-125000000D01*
X27375029Y-121554634D01*
X26752212Y-122070783D01*
X26262370Y-122955768D01*
X25954593Y-123919314D01*
X25840707Y-124924389D01*
X13160000Y-124924389D01*
X13160000Y-121375029D01*
X27554634Y-121375029D01*
X31000000Y-124820395D01*
X34445366Y-121375029D01*
X65554634Y-121375029D01*
X69000000Y-124820395D01*
X72445366Y-121375029D01*
X71929217Y-120752212D01*
X71044232Y-120262370D01*
X70080686Y-119954593D01*
X69075611Y-119840707D01*
X68067630Y-119925090D01*
X67095480Y-120204499D01*
X66196519Y-120668197D01*
X66070783Y-120752212D01*
X65554634Y-121375029D01*
X34445366Y-121375029D01*
X33929217Y-120752212D01*
X33044232Y-120262370D01*
X32080686Y-119954593D01*
X31075611Y-119840707D01*
X30067630Y-119925090D01*
X29095480Y-120204499D01*
X28196519Y-120668197D01*
X28070783Y-120752212D01*
X27554634Y-121375029D01*
X13160000Y-121375029D01*
X13160000Y-87624971D01*
X27554634Y-87624971D01*
X28070783Y-88247788D01*
X28955768Y-88737630D01*
X29919314Y-89045407D01*
X30924389Y-89159293D01*
X31932370Y-89074910D01*
X32904520Y-88795501D01*
X33803481Y-88331803D01*
X33929217Y-88247788D01*
X34445366Y-87624971D01*
X65554634Y-87624971D01*
X66070783Y-88247788D01*
X66955768Y-88737630D01*
X67919314Y-89045407D01*
X68924389Y-89159293D01*
X69932370Y-89074910D01*
X70904520Y-88795501D01*
X71803481Y-88331803D01*
X71929217Y-88247788D01*
X72445366Y-87624971D01*
X69000000Y-84179605D01*
X65554634Y-87624971D01*
X34445366Y-87624971D01*
X31000000Y-84179605D01*
X27554634Y-87624971D01*
X13160000Y-87624971D01*
X13160000Y-83924389D01*
X25840707Y-83924389D01*
X25925090Y-84932370D01*
X26204499Y-85904520D01*
X26668197Y-86803481D01*
X26752212Y-86929217D01*
X27375029Y-87445366D01*
X30820395Y-84000000D01*
X31179605Y-84000000D01*
X34624971Y-87445366D01*
X35247788Y-86929217D01*
X35737630Y-86044232D01*
X36045407Y-85080686D01*
X36159293Y-84075611D01*
X36146634Y-83924389D01*
X63840707Y-83924389D01*
X63925090Y-84932370D01*
X64204499Y-85904520D01*
X64668197Y-86803481D01*
X64752212Y-86929217D01*
X65375029Y-87445366D01*
X68820395Y-84000000D01*
X69179605Y-84000000D01*
X72624971Y-87445366D01*
X73247788Y-86929217D01*
X73737630Y-86044232D01*
X74045407Y-85080686D01*
X74159293Y-84075611D01*
X74074910Y-83067630D01*
X73795501Y-82095480D01*
X73331803Y-81196519D01*
X73247788Y-81070783D01*
X72624971Y-80554634D01*
X69179605Y-84000000D01*
X68820395Y-84000000D01*
X65375029Y-80554634D01*
X64752212Y-81070783D01*
X64262370Y-81955768D01*
X63954593Y-82919314D01*
X63840707Y-83924389D01*
X36146634Y-83924389D01*
X36074910Y-83067630D01*
X35795501Y-82095480D01*
X35331803Y-81196519D01*
X35247788Y-81070783D01*
X34624971Y-80554634D01*
X31179605Y-84000000D01*
X30820395Y-84000000D01*
X27375029Y-80554634D01*
X26752212Y-81070783D01*
X26262370Y-81955768D01*
X25954593Y-82919314D01*
X25840707Y-83924389D01*
X13160000Y-83924389D01*
X13160000Y-80375029D01*
X27554634Y-80375029D01*
X31000000Y-83820395D01*
X34445366Y-80375029D01*
X65554634Y-80375029D01*
X69000000Y-83820395D01*
X72445366Y-80375029D01*
X71929217Y-79752212D01*
X71044232Y-79262370D01*
X70080686Y-78954593D01*
X69075611Y-78840707D01*
X68067630Y-78925090D01*
X67095480Y-79204499D01*
X66196519Y-79668197D01*
X66070783Y-79752212D01*
X65554634Y-80375029D01*
X34445366Y-80375029D01*
X33929217Y-79752212D01*
X33044232Y-79262370D01*
X32080686Y-78954593D01*
X31075611Y-78840707D01*
X30067630Y-78925090D01*
X29095480Y-79204499D01*
X28196519Y-79668197D01*
X28070783Y-79752212D01*
X27554634Y-80375029D01*
X13160000Y-80375029D01*
X13160000Y-43624971D01*
X27554634Y-43624971D01*
X28070783Y-44247788D01*
X28955768Y-44737630D01*
X29919314Y-45045407D01*
X30924389Y-45159293D01*
X31932370Y-45074910D01*
X32904520Y-44795501D01*
X33803481Y-44331803D01*
X33929217Y-44247788D01*
X34445366Y-43624971D01*
X65554634Y-43624971D01*
X66070783Y-44247788D01*
X66955768Y-44737630D01*
X67919314Y-45045407D01*
X68924389Y-45159293D01*
X69932370Y-45074910D01*
X70904520Y-44795501D01*
X71803481Y-44331803D01*
X71929217Y-44247788D01*
X72445366Y-43624971D01*
X69000000Y-40179605D01*
X65554634Y-43624971D01*
X34445366Y-43624971D01*
X31000000Y-40179605D01*
X27554634Y-43624971D01*
X13160000Y-43624971D01*
X13160000Y-39924389D01*
X25840707Y-39924389D01*
X25925090Y-40932370D01*
X26204499Y-41904520D01*
X26668197Y-42803481D01*
X26752212Y-42929217D01*
X27375029Y-43445366D01*
X30820395Y-40000000D01*
X31179605Y-40000000D01*
X34624971Y-43445366D01*
X35247788Y-42929217D01*
X35737630Y-42044232D01*
X36045407Y-41080686D01*
X36159293Y-40075611D01*
X36146634Y-39924389D01*
X63840707Y-39924389D01*
X63925090Y-40932370D01*
X64204499Y-41904520D01*
X64668197Y-42803481D01*
X64752212Y-42929217D01*
X65375029Y-43445366D01*
X68820395Y-40000000D01*
X69179605Y-40000000D01*
X72624971Y-43445366D01*
X73247788Y-42929217D01*
X73737630Y-42044232D01*
X74045407Y-41080686D01*
X74159293Y-40075611D01*
X74074910Y-39067630D01*
X73795501Y-38095480D01*
X73331803Y-37196519D01*
X73247788Y-37070783D01*
X72624971Y-36554634D01*
X69179605Y-40000000D01*
X68820395Y-40000000D01*
X65375029Y-36554634D01*
X64752212Y-37070783D01*
X64262370Y-37955768D01*
X63954593Y-38919314D01*
X63840707Y-39924389D01*
X36146634Y-39924389D01*
X36074910Y-39067630D01*
X35795501Y-38095480D01*
X35331803Y-37196519D01*
X35247788Y-37070783D01*
X34624971Y-36554634D01*
X31179605Y-40000000D01*
X30820395Y-40000000D01*
X27375029Y-36554634D01*
X26752212Y-37070783D01*
X26262370Y-37955768D01*
X25954593Y-38919314D01*
X25840707Y-39924389D01*
X13160000Y-39924389D01*
X13160000Y-36375029D01*
X27554634Y-36375029D01*
X31000000Y-39820395D01*
X34445366Y-36375029D01*
X65554634Y-36375029D01*
X69000000Y-39820395D01*
X72445366Y-36375029D01*
X71929217Y-35752212D01*
X71044232Y-35262370D01*
X70080686Y-34954593D01*
X69075611Y-34840707D01*
X68067630Y-34925090D01*
X67095480Y-35204499D01*
X66196519Y-35668197D01*
X66070783Y-35752212D01*
X65554634Y-36375029D01*
X34445366Y-36375029D01*
X33929217Y-35752212D01*
X33044232Y-35262370D01*
X32080686Y-34954593D01*
X31075611Y-34840707D01*
X30067630Y-34925090D01*
X29095480Y-35204499D01*
X28196519Y-35668197D01*
X28070783Y-35752212D01*
X27554634Y-36375029D01*
X13160000Y-36375029D01*
X13160000Y-4192714D01*
X13238519Y-4358331D01*
X13546970Y-4773424D01*
X13930475Y-5120365D01*
X14374296Y-5385822D01*
X14861377Y-5559593D01*
X15373000Y-5635000D01*
X16773000Y-5635000D01*
X16773000Y-3127000D01*
X17027000Y-3127000D01*
X17027000Y-5635000D01*
X18427000Y-5635000D01*
X18938623Y-5559593D01*
X19425704Y-5385822D01*
X19869525Y-5120365D01*
X20253030Y-4773424D01*
X20561481Y-4358331D01*
X20783025Y-3891038D01*
X20879667Y-3537162D01*
X79120333Y-3537162D01*
X79216975Y-3891038D01*
X79438519Y-4358331D01*
X79746970Y-4773424D01*
X80130475Y-5120365D01*
X80574296Y-5385822D01*
X81061377Y-5559593D01*
X81573000Y-5635000D01*
X82973000Y-5635000D01*
X82973000Y-3127000D01*
X79227009Y-3127000D01*
X79120333Y-3537162D01*
X20879667Y-3537162D01*
X20772991Y-3127000D01*
X17027000Y-3127000D01*
X16773000Y-3127000D01*
X16753000Y-3127000D01*
X16753000Y-2873000D01*
X16773000Y-2873000D01*
X16773000Y-2853000D01*
X17027000Y-2853000D01*
X17027000Y-2873000D01*
X20772991Y-2873000D01*
X20879667Y-2462838D01*
X20783025Y-2108962D01*
X20561481Y-1641669D01*
X20253030Y-1226576D01*
X19869525Y-879635D01*
X19502314Y-660000D01*
X80497686Y-660000D01*
X80130475Y-879635D01*
G37*
%TD.AperFunction*%
%TD*%
M02*
