%TF.GenerationSoftware,KiCad,Pcbnew,5.1.8-db9833491~87~ubuntu20.04.1*%
%TF.CreationDate,2020-11-16T19:43:01-05:00*%
%TF.ProjectId,mfos_vca-panel,6d666f73-5f76-4636-912d-70616e656c2e,rev?*%
%TF.SameCoordinates,Original*%
%TF.FileFunction,Legend,Bot*%
%TF.FilePolarity,Positive*%
%FSLAX46Y46*%
G04 Gerber Fmt 4.6, Leading zero omitted, Abs format (unit mm)*
G04 Created by KiCad (PCBNEW 5.1.8-db9833491~87~ubuntu20.04.1) date 2020-11-16 19:43:01*
%MOMM*%
%LPD*%
G01*
G04 APERTURE LIST*
%ADD10C,0.150000*%
G04 APERTURE END LIST*
D10*
X61000000Y-187977380D02*
X61000000Y-186977380D01*
X60619047Y-186977380D01*
X60523809Y-187025000D01*
X60476190Y-187072619D01*
X60428571Y-187167857D01*
X60428571Y-187310714D01*
X60476190Y-187405952D01*
X60523809Y-187453571D01*
X60619047Y-187501190D01*
X61000000Y-187501190D01*
X59571428Y-187977380D02*
X59571428Y-187453571D01*
X59619047Y-187358333D01*
X59714285Y-187310714D01*
X59904761Y-187310714D01*
X60000000Y-187358333D01*
X59571428Y-187929761D02*
X59666666Y-187977380D01*
X59904761Y-187977380D01*
X60000000Y-187929761D01*
X60047619Y-187834523D01*
X60047619Y-187739285D01*
X60000000Y-187644047D01*
X59904761Y-187596428D01*
X59666666Y-187596428D01*
X59571428Y-187548809D01*
X59095238Y-187310714D02*
X59095238Y-187977380D01*
X59095238Y-187405952D02*
X59047619Y-187358333D01*
X58952380Y-187310714D01*
X58809523Y-187310714D01*
X58714285Y-187358333D01*
X58666666Y-187453571D01*
X58666666Y-187977380D01*
X57809523Y-187929761D02*
X57904761Y-187977380D01*
X58095238Y-187977380D01*
X58190476Y-187929761D01*
X58238095Y-187834523D01*
X58238095Y-187453571D01*
X58190476Y-187358333D01*
X58095238Y-187310714D01*
X57904761Y-187310714D01*
X57809523Y-187358333D01*
X57761904Y-187453571D01*
X57761904Y-187548809D01*
X58238095Y-187644047D01*
X57190476Y-187977380D02*
X57285714Y-187929761D01*
X57333333Y-187834523D01*
X57333333Y-186977380D01*
X55619047Y-187977380D02*
X55619047Y-186977380D01*
X55619047Y-187929761D02*
X55714285Y-187977380D01*
X55904761Y-187977380D01*
X56000000Y-187929761D01*
X56047619Y-187882142D01*
X56095238Y-187786904D01*
X56095238Y-187501190D01*
X56047619Y-187405952D01*
X56000000Y-187358333D01*
X55904761Y-187310714D01*
X55714285Y-187310714D01*
X55619047Y-187358333D01*
X54761904Y-187929761D02*
X54857142Y-187977380D01*
X55047619Y-187977380D01*
X55142857Y-187929761D01*
X55190476Y-187834523D01*
X55190476Y-187453571D01*
X55142857Y-187358333D01*
X55047619Y-187310714D01*
X54857142Y-187310714D01*
X54761904Y-187358333D01*
X54714285Y-187453571D01*
X54714285Y-187548809D01*
X55190476Y-187644047D01*
X54333333Y-187929761D02*
X54238095Y-187977380D01*
X54047619Y-187977380D01*
X53952380Y-187929761D01*
X53904761Y-187834523D01*
X53904761Y-187786904D01*
X53952380Y-187691666D01*
X54047619Y-187644047D01*
X54190476Y-187644047D01*
X54285714Y-187596428D01*
X54333333Y-187501190D01*
X54333333Y-187453571D01*
X54285714Y-187358333D01*
X54190476Y-187310714D01*
X54047619Y-187310714D01*
X53952380Y-187358333D01*
X53476190Y-187977380D02*
X53476190Y-187310714D01*
X53476190Y-186977380D02*
X53523809Y-187025000D01*
X53476190Y-187072619D01*
X53428571Y-187025000D01*
X53476190Y-186977380D01*
X53476190Y-187072619D01*
X52571428Y-187310714D02*
X52571428Y-188120238D01*
X52619047Y-188215476D01*
X52666666Y-188263095D01*
X52761904Y-188310714D01*
X52904761Y-188310714D01*
X53000000Y-188263095D01*
X52571428Y-187929761D02*
X52666666Y-187977380D01*
X52857142Y-187977380D01*
X52952380Y-187929761D01*
X53000000Y-187882142D01*
X53047619Y-187786904D01*
X53047619Y-187501190D01*
X53000000Y-187405952D01*
X52952380Y-187358333D01*
X52857142Y-187310714D01*
X52666666Y-187310714D01*
X52571428Y-187358333D01*
X52095238Y-187310714D02*
X52095238Y-187977380D01*
X52095238Y-187405952D02*
X52047619Y-187358333D01*
X51952380Y-187310714D01*
X51809523Y-187310714D01*
X51714285Y-187358333D01*
X51666666Y-187453571D01*
X51666666Y-187977380D01*
X50428571Y-187977380D02*
X50428571Y-186977380D01*
X50428571Y-187358333D02*
X50333333Y-187310714D01*
X50142857Y-187310714D01*
X50047619Y-187358333D01*
X50000000Y-187405952D01*
X49952380Y-187501190D01*
X49952380Y-187786904D01*
X50000000Y-187882142D01*
X50047619Y-187929761D01*
X50142857Y-187977380D01*
X50333333Y-187977380D01*
X50428571Y-187929761D01*
X49619047Y-187310714D02*
X49380952Y-187977380D01*
X49142857Y-187310714D02*
X49380952Y-187977380D01*
X49476190Y-188215476D01*
X49523809Y-188263095D01*
X49619047Y-188310714D01*
X47428571Y-187977380D02*
X47761904Y-187501190D01*
X48000000Y-187977380D02*
X48000000Y-186977380D01*
X47619047Y-186977380D01*
X47523809Y-187025000D01*
X47476190Y-187072619D01*
X47428571Y-187167857D01*
X47428571Y-187310714D01*
X47476190Y-187405952D01*
X47523809Y-187453571D01*
X47619047Y-187501190D01*
X48000000Y-187501190D01*
X47000000Y-187977380D02*
X47000000Y-187310714D01*
X47000000Y-186977380D02*
X47047619Y-187025000D01*
X47000000Y-187072619D01*
X46952380Y-187025000D01*
X47000000Y-186977380D01*
X47000000Y-187072619D01*
X46095238Y-187929761D02*
X46190476Y-187977380D01*
X46380952Y-187977380D01*
X46476190Y-187929761D01*
X46523809Y-187882142D01*
X46571428Y-187786904D01*
X46571428Y-187501190D01*
X46523809Y-187405952D01*
X46476190Y-187358333D01*
X46380952Y-187310714D01*
X46190476Y-187310714D01*
X46095238Y-187358333D01*
X45666666Y-187977380D02*
X45666666Y-186977380D01*
X45238095Y-187977380D02*
X45238095Y-187453571D01*
X45285714Y-187358333D01*
X45380952Y-187310714D01*
X45523809Y-187310714D01*
X45619047Y-187358333D01*
X45666666Y-187405952D01*
X44000000Y-187977380D02*
X44000000Y-186977380D01*
X44000000Y-187453571D02*
X43428571Y-187453571D01*
X43428571Y-187977380D02*
X43428571Y-186977380D01*
X42809523Y-187977380D02*
X42904761Y-187929761D01*
X42952380Y-187882142D01*
X43000000Y-187786904D01*
X43000000Y-187501190D01*
X42952380Y-187405952D01*
X42904761Y-187358333D01*
X42809523Y-187310714D01*
X42666666Y-187310714D01*
X42571428Y-187358333D01*
X42523809Y-187405952D01*
X42476190Y-187501190D01*
X42476190Y-187786904D01*
X42523809Y-187882142D01*
X42571428Y-187929761D01*
X42666666Y-187977380D01*
X42809523Y-187977380D01*
X41904761Y-187977380D02*
X42000000Y-187929761D01*
X42047619Y-187834523D01*
X42047619Y-186977380D01*
X41523809Y-187977380D02*
X41523809Y-187310714D01*
X41523809Y-187405952D02*
X41476190Y-187358333D01*
X41380952Y-187310714D01*
X41238095Y-187310714D01*
X41142857Y-187358333D01*
X41095238Y-187453571D01*
X41095238Y-187977380D01*
X41095238Y-187453571D02*
X41047619Y-187358333D01*
X40952380Y-187310714D01*
X40809523Y-187310714D01*
X40714285Y-187358333D01*
X40666666Y-187453571D01*
X40666666Y-187977380D01*
X39809523Y-187929761D02*
X39904761Y-187977380D01*
X40095238Y-187977380D01*
X40190476Y-187929761D01*
X40238095Y-187834523D01*
X40238095Y-187453571D01*
X40190476Y-187358333D01*
X40095238Y-187310714D01*
X39904761Y-187310714D01*
X39809523Y-187358333D01*
X39761904Y-187453571D01*
X39761904Y-187548809D01*
X40238095Y-187644047D01*
X39380952Y-187929761D02*
X39285714Y-187977380D01*
X39095238Y-187977380D01*
X39000000Y-187929761D01*
X38952380Y-187834523D01*
X38952380Y-187786904D01*
X39000000Y-187691666D01*
X39095238Y-187644047D01*
X39238095Y-187644047D01*
X39333333Y-187596428D01*
X39380952Y-187501190D01*
X39380952Y-187453571D01*
X39333333Y-187358333D01*
X39238095Y-187310714D01*
X39095238Y-187310714D01*
X39000000Y-187358333D01*
X53095238Y-188627380D02*
X52904761Y-188627380D01*
X52809523Y-188675000D01*
X52714285Y-188770238D01*
X52666666Y-188960714D01*
X52666666Y-189294047D01*
X52714285Y-189484523D01*
X52809523Y-189579761D01*
X52904761Y-189627380D01*
X53095238Y-189627380D01*
X53190476Y-189579761D01*
X53285714Y-189484523D01*
X53333333Y-189294047D01*
X53333333Y-188960714D01*
X53285714Y-188770238D01*
X53190476Y-188675000D01*
X53095238Y-188627380D01*
X51809523Y-189579761D02*
X51904761Y-189627380D01*
X52095238Y-189627380D01*
X52190476Y-189579761D01*
X52238095Y-189532142D01*
X52285714Y-189436904D01*
X52285714Y-189151190D01*
X52238095Y-189055952D01*
X52190476Y-189008333D01*
X52095238Y-188960714D01*
X51904761Y-188960714D01*
X51809523Y-189008333D01*
X51523809Y-188960714D02*
X51142857Y-188960714D01*
X51380952Y-188627380D02*
X51380952Y-189484523D01*
X51333333Y-189579761D01*
X51238095Y-189627380D01*
X51142857Y-189627380D01*
X50095238Y-188722619D02*
X50047619Y-188675000D01*
X49952380Y-188627380D01*
X49714285Y-188627380D01*
X49619047Y-188675000D01*
X49571428Y-188722619D01*
X49523809Y-188817857D01*
X49523809Y-188913095D01*
X49571428Y-189055952D01*
X50142857Y-189627380D01*
X49523809Y-189627380D01*
X48904761Y-188627380D02*
X48809523Y-188627380D01*
X48714285Y-188675000D01*
X48666666Y-188722619D01*
X48619047Y-188817857D01*
X48571428Y-189008333D01*
X48571428Y-189246428D01*
X48619047Y-189436904D01*
X48666666Y-189532142D01*
X48714285Y-189579761D01*
X48809523Y-189627380D01*
X48904761Y-189627380D01*
X49000000Y-189579761D01*
X49047619Y-189532142D01*
X49095238Y-189436904D01*
X49142857Y-189246428D01*
X49142857Y-189008333D01*
X49095238Y-188817857D01*
X49047619Y-188722619D01*
X49000000Y-188675000D01*
X48904761Y-188627380D01*
X48190476Y-188722619D02*
X48142857Y-188675000D01*
X48047619Y-188627380D01*
X47809523Y-188627380D01*
X47714285Y-188675000D01*
X47666666Y-188722619D01*
X47619047Y-188817857D01*
X47619047Y-188913095D01*
X47666666Y-189055952D01*
X48238095Y-189627380D01*
X47619047Y-189627380D01*
X47000000Y-188627380D02*
X46904761Y-188627380D01*
X46809523Y-188675000D01*
X46761904Y-188722619D01*
X46714285Y-188817857D01*
X46666666Y-189008333D01*
X46666666Y-189246428D01*
X46714285Y-189436904D01*
X46761904Y-189532142D01*
X46809523Y-189579761D01*
X46904761Y-189627380D01*
X47000000Y-189627380D01*
X47095238Y-189579761D01*
X47142857Y-189532142D01*
X47190476Y-189436904D01*
X47238095Y-189246428D01*
X47238095Y-189008333D01*
X47190476Y-188817857D01*
X47142857Y-188722619D01*
X47095238Y-188675000D01*
X47000000Y-188627380D01*
X54619047Y-191927380D02*
X54619047Y-192641666D01*
X54666666Y-192784523D01*
X54761904Y-192879761D01*
X54904761Y-192927380D01*
X55000000Y-192927380D01*
X53666666Y-192927380D02*
X54142857Y-192927380D01*
X54142857Y-191927380D01*
X52761904Y-192832142D02*
X52809523Y-192879761D01*
X52952380Y-192927380D01*
X53047619Y-192927380D01*
X53190476Y-192879761D01*
X53285714Y-192784523D01*
X53333333Y-192689285D01*
X53380952Y-192498809D01*
X53380952Y-192355952D01*
X53333333Y-192165476D01*
X53285714Y-192070238D01*
X53190476Y-191975000D01*
X53047619Y-191927380D01*
X52952380Y-191927380D01*
X52809523Y-191975000D01*
X52761904Y-192022619D01*
X52047619Y-191927380D02*
X52047619Y-192641666D01*
X52095238Y-192784523D01*
X52190476Y-192879761D01*
X52333333Y-192927380D01*
X52428571Y-192927380D01*
X51095238Y-192927380D02*
X51571428Y-192927380D01*
X51571428Y-191927380D01*
X50190476Y-192832142D02*
X50238095Y-192879761D01*
X50380952Y-192927380D01*
X50476190Y-192927380D01*
X50619047Y-192879761D01*
X50714285Y-192784523D01*
X50761904Y-192689285D01*
X50809523Y-192498809D01*
X50809523Y-192355952D01*
X50761904Y-192165476D01*
X50714285Y-192070238D01*
X50619047Y-191975000D01*
X50476190Y-191927380D01*
X50380952Y-191927380D01*
X50238095Y-191975000D01*
X50190476Y-192022619D01*
X49476190Y-191927380D02*
X49476190Y-192641666D01*
X49523809Y-192784523D01*
X49619047Y-192879761D01*
X49761904Y-192927380D01*
X49857142Y-192927380D01*
X48523809Y-192927380D02*
X49000000Y-192927380D01*
X49000000Y-191927380D01*
X47619047Y-192832142D02*
X47666666Y-192879761D01*
X47809523Y-192927380D01*
X47904761Y-192927380D01*
X48047619Y-192879761D01*
X48142857Y-192784523D01*
X48190476Y-192689285D01*
X48238095Y-192498809D01*
X48238095Y-192355952D01*
X48190476Y-192165476D01*
X48142857Y-192070238D01*
X48047619Y-191975000D01*
X47904761Y-191927380D01*
X47809523Y-191927380D01*
X47666666Y-191975000D01*
X47619047Y-192022619D01*
X46904761Y-191927380D02*
X46904761Y-192641666D01*
X46952380Y-192784523D01*
X47047619Y-192879761D01*
X47190476Y-192927380D01*
X47285714Y-192927380D01*
X45952380Y-192927380D02*
X46428571Y-192927380D01*
X46428571Y-191927380D01*
X45047619Y-192832142D02*
X45095238Y-192879761D01*
X45238095Y-192927380D01*
X45333333Y-192927380D01*
X45476190Y-192879761D01*
X45571428Y-192784523D01*
X45619047Y-192689285D01*
X45666666Y-192498809D01*
X45666666Y-192355952D01*
X45619047Y-192165476D01*
X45571428Y-192070238D01*
X45476190Y-191975000D01*
X45333333Y-191927380D01*
X45238095Y-191927380D01*
X45095238Y-191975000D01*
X45047619Y-192022619D01*
M02*
